<?xml version="1.0" encoding="UTF-8"?>
<svg id="Camada_2" data-name="Camada 2" xmlns="http://www.w3.org/2000/svg" viewBox="0 0 16 19.5">
  <g id="Camada_1-2" data-name="Camada 1" focusable="false">
    <g>
      <g>
        <path d="M8,19.5c1.1,0,2-.9,2-2H6c0,1.1,.89,2,2,2Z" style="fill: #164878;"/>
        <path d="M14,8.5c0-.46-.05-.91-.12-1.34-.25,.06-.51,.1-.77,.1-1.87,0-3.39-1.52-3.39-3.39,0-.54,.14-1.04,.36-1.49-.19-.07-.37-.15-.58-.19v-.68c0-.83-.67-1.5-1.5-1.5s-1.5,.67-1.5,1.5v.68c-2.87,.68-4.5,3.24-4.5,6.32v5L0,15.5v1H16v-1l-2-2v-5Z" style="fill: #164878;"/>
      </g>
      <path d="M13.15,1.2c1.46,0,2.64,1.18,2.64,2.64s-1.18,2.64-2.64,2.64-2.64-1.18-2.64-2.64,1.18-2.64,2.64-2.64" style="fill: #164878;"/>
    </g>
  </g>
</svg>