<?xml version="1.0" encoding="UTF-8"?>
<svg id="Camada_2" data-name="Camada 2" xmlns="http://www.w3.org/2000/svg" viewBox="0 0 16 19.49">
  <g id="Camada_2-2" data-name="Camada 2">
    <g>
      <path d="M9,18.24c-.23,.3-.59,.5-1,.5s-.77-.2-1-.5h2m1-.75H6c0,1.1,.89,2,2,2s2-.9,2-2h0Z" style="fill: #164878;"/>
      <path d="M8,.75c.41,0,.75,.34,.75,.75v1.27l.58,.14c2.42,.57,3.92,2.72,3.92,5.59v5.31l.22,.22,1.72,1.71H.81l1.72-1.71,.22-.22v-5.31c0-2.87,1.5-5.02,3.92-5.59l.58-.14V1.5c0-.41,.34-.75,.75-.75m0-.75c-.83,0-1.5,.67-1.5,1.5v.68c-2.87,.68-4.5,3.24-4.5,6.32v5l-2,1.99v1H16v-1l-2-1.99v-5c0-3.08-1.63-5.64-4.5-6.32v-.68c0-.83-.67-1.5-1.5-1.5h0Z" style="fill: #164878;"/>
    </g>
  </g>
</svg>