<svg width="17" height="17" viewBox="0 0 17 17" fill="none" xmlns="http://www.w3.org/2000/svg">
<path d="M11.6835 7.13752C11.6835 6.85487 11.9126 6.62574 12.1953 6.62574H13.2188C13.5015 6.62574 13.7306 6.85487 13.7306 7.13752V8.16108C13.7306 8.44372 13.5015 8.67286 13.2188 8.67286H12.1953C11.9126 8.67286 11.6835 8.44372 11.6835 8.16108V7.13752Z" fill="#164878"/>
<path d="M4.00678 0.484375C4.28943 0.484375 4.51856 0.713507 4.51856 0.996155V1.50794H12.707V0.996155C12.707 0.713507 12.9362 0.484375 13.2188 0.484375C13.5015 0.484375 13.7306 0.713507 13.7306 0.996155V1.50794H14.7542C15.8848 1.50794 16.8013 2.42446 16.8013 3.55506V14.8142C16.8013 15.9448 15.8848 16.8613 14.7542 16.8613H2.47144C1.34084 16.8613 0.424316 15.9448 0.424316 14.8142V3.55506C0.424316 2.42446 1.34084 1.50794 2.47144 1.50794H3.495V0.996155C3.495 0.713507 3.72413 0.484375 4.00678 0.484375ZM1.44788 4.57862V14.8142C1.44788 15.3795 1.90614 15.8378 2.47144 15.8378H14.7542C15.3195 15.8378 15.7777 15.3795 15.7777 14.8142V4.57862H1.44788Z" fill="#164878"/>
</svg>
