<svg width="51" height="51" viewBox="0 0 51 51" fill="none" xmlns="http://www.w3.org/2000/svg">
<circle cx="25.4073" cy="25.6243" r="25.0772" fill="#E5E7EB"/>
<path d="M20.8014 17.9478C20.2361 17.9478 19.7778 18.406 19.7778 18.9713V33.3012C19.7778 33.8665 20.2361 34.3247 20.8014 34.3247H23.8721V30.7423C23.8721 30.4596 24.1012 30.2305 24.3839 30.2305H27.4545C27.7372 30.2305 27.9663 30.4596 27.9663 30.7423V34.3247H31.037C31.6023 34.3247 32.0606 33.8665 32.0606 33.3012V18.9713C32.0606 18.406 31.6023 17.9478 31.037 17.9478H20.8014ZM21.825 20.5067C21.825 20.224 22.0541 19.9949 22.3367 19.9949H23.3603C23.6429 19.9949 23.8721 20.224 23.8721 20.5067V21.5302C23.8721 21.8129 23.6429 22.042 23.3603 22.042H22.3367C22.0541 22.042 21.825 21.8129 21.825 21.5302V20.5067ZM24.8956 20.5067C24.8956 20.224 25.1248 19.9949 25.4074 19.9949H26.431C26.7136 19.9949 26.9428 20.224 26.9428 20.5067V21.5302C26.9428 21.8129 26.7136 22.042 26.431 22.042H25.4074C25.1248 22.042 24.8956 21.8129 24.8956 21.5302V20.5067ZM28.4781 19.9949H29.5017C29.7843 19.9949 30.0134 20.224 30.0134 20.5067V21.5302C30.0134 21.8129 29.7843 22.042 29.5017 22.042H28.4781C28.1954 22.042 27.9663 21.8129 27.9663 21.5302V20.5067C27.9663 20.224 28.1954 19.9949 28.4781 19.9949ZM21.825 23.5773C21.825 23.2947 22.0541 23.0656 22.3367 23.0656H23.3603C23.6429 23.0656 23.8721 23.2947 23.8721 23.5773V24.6009C23.8721 24.8835 23.6429 25.1127 23.3603 25.1127H22.3367C22.0541 25.1127 21.825 24.8835 21.825 24.6009V23.5773ZM25.4074 23.0656H26.431C26.7136 23.0656 26.9428 23.2947 26.9428 23.5773V24.6009C26.9428 24.8835 26.7136 25.1127 26.431 25.1127H25.4074C25.1248 25.1127 24.8956 24.8835 24.8956 24.6009V23.5773C24.8956 23.2947 25.1248 23.0656 25.4074 23.0656ZM27.9663 23.5773C27.9663 23.2947 28.1954 23.0656 28.4781 23.0656H29.5017C29.7843 23.0656 30.0134 23.2947 30.0134 23.5773V24.6009C30.0134 24.8835 29.7843 25.1127 29.5017 25.1127H28.4781C28.1954 25.1127 27.9663 24.8835 27.9663 24.6009V23.5773ZM22.3367 26.1362H23.3603C23.6429 26.1362 23.8721 26.3654 23.8721 26.648V27.6716C23.8721 27.9542 23.6429 28.1834 23.3603 28.1834H22.3367C22.0541 28.1834 21.825 27.9542 21.825 27.6716V26.648C21.825 26.3654 22.0541 26.1362 22.3367 26.1362ZM24.8956 26.648C24.8956 26.3654 25.1248 26.1362 25.4074 26.1362H26.431C26.7136 26.1362 26.9428 26.3654 26.9428 26.648V27.6716C26.9428 27.9542 26.7136 28.1834 26.431 28.1834H25.4074C25.1248 28.1834 24.8956 27.9542 24.8956 27.6716V26.648ZM28.4781 26.1362H29.5017C29.7843 26.1362 30.0134 26.3654 30.0134 26.648V27.6716C30.0134 27.9542 29.7843 28.1834 29.5017 28.1834H28.4781C28.1954 28.1834 27.9663 27.9542 27.9663 27.6716V26.648C27.9663 26.3654 28.1954 26.1362 28.4781 26.1362Z" fill="#164878"/>
</svg>
