<svg width="473" height="838" viewBox="0 0 473 838" fill="none" xmlns="http://www.w3.org/2000/svg">
<g filter="url(#filter0_d_1040_1428)">
<path d="M38.1399 796.021L29.3385 803.696L29 25L38.1399 32.2843L46.9404 25L56.0803 32.2843L64.8809 25L74.3593 32.2843L83.1598 25L92.2997 32.2843L101.1 25L110.579 31.981L119.041 25L128.519 31.981L136.982 25L146.46 31.981L154.921 25L164.739 31.981L173.2 25L182.68 32.2843L191.141 25L200.62 31.981L209.081 25L218.559 32.2843L227.36 25L236.5 32.2843L245.301 25L254.779 32.2843L263.242 25L272.72 32.2843L281.521 25L290.999 32.2843L299.461 25L308.939 32.2843L317.402 25L326.88 32.2843L335.342 25L344.82 31.981L353.62 25L363.099 31.981L371.899 25L381.379 31.981L389.84 25L399.318 31.981L407.78 25.3035L417.597 31.981L426.059 25.3035L435.199 31.981L444 25.3035V804L434.86 796.021L425.721 804L417.259 796.021L407.78 804L398.642 796.021L389.501 804L380.701 796.021L371.899 804L362.761 796.021L353.959 804L345.497 796.021L335.681 803.696L326.541 796.021L317.402 803.696L308.939 796.021L299.461 803.696L290.66 796.021L281.859 803.696L273.058 796.021L263.58 803.696L254.441 796.021L245.64 803.696L236.839 796.021L227.36 803.696L218.559 796.021L209.42 803.696L200.281 796.021L191.479 803.696L182.68 796.021L173.2 803.696L164.4 796.021L155.598 803.696L146.46 796.021L136.982 803.696L128.858 796.021L119.041 803.696L110.24 796.021L101.439 803.696L91.9612 796.021L82.8214 803.696L74.6978 796.021L65.2194 803.696L56.0803 796.021L46.9404 803.696L38.1399 796.021Z" fill="white"/>
<path d="M38.1399 796.021L29.3385 803.696L29 25L38.1399 32.2843L46.9404 25L56.0803 32.2843L64.8809 25L74.3593 32.2843L83.1598 25L92.2997 32.2843L101.1 25L110.579 31.981L119.041 25L128.519 31.981L136.982 25L146.46 31.981L154.921 25L164.739 31.981L173.2 25L182.68 32.2843L191.141 25L200.62 31.981L209.081 25L218.559 32.2843L227.36 25L236.5 32.2843L245.301 25L254.779 32.2843L263.242 25L272.72 32.2843L281.521 25L290.999 32.2843L299.461 25L308.939 32.2843L317.402 25L326.88 32.2843L335.342 25L344.82 31.981L353.62 25L363.099 31.981L371.899 25L381.379 31.981L389.84 25L399.318 31.981L407.78 25.3035L417.597 31.981L426.059 25.3035L435.199 31.981L444 25.3035V804L434.86 796.021L425.721 804L417.259 796.021L407.78 804L398.642 796.021L389.501 804L380.701 796.021L371.899 804L362.761 796.021L353.959 804L345.497 796.021L335.681 803.696L326.541 796.021L317.402 803.696L308.939 796.021L299.461 803.696L290.66 796.021L281.859 803.696L273.058 796.021L263.58 803.696L254.441 796.021L245.64 803.696L236.839 796.021L227.36 803.696L218.559 796.021L209.42 803.696L200.281 796.021L191.479 803.696L182.68 796.021L173.2 803.696L164.4 796.021L155.598 803.696L146.46 796.021L136.982 803.696L128.858 796.021L119.041 803.696L110.24 796.021L101.439 803.696L91.9612 796.021L82.8214 803.696L74.6978 796.021L65.2194 803.696L56.0803 796.021L46.9404 803.696L38.1399 796.021Z" stroke="#F8F8F8" stroke-width="1.08639"/>
</g>
<defs>
<filter id="filter0_d_1040_1428" x="0.427559" y="0.188879" width="472.144" height="837.381" filterUnits="userSpaceOnUse" color-interpolation-filters="sRGB">
<feFlood flood-opacity="0" result="BackgroundImageFix"/>
<feColorMatrix in="SourceAlpha" type="matrix" values="0 0 0 0 0 0 0 0 0 0 0 0 0 0 0 0 0 0 127 0" result="hardAlpha"/>
<feOffset dy="4.34555"/>
<feGaussianBlur stdDeviation="14.0144"/>
<feComposite in2="hardAlpha" operator="out"/>
<feColorMatrix type="matrix" values="0 0 0 0 0 0 0 0 0 0 0 0 0 0 0 0 0 0 0.25 0"/>
<feBlend mode="normal" in2="BackgroundImageFix" result="effect1_dropShadow_1040_1428"/>
<feBlend mode="normal" in="SourceGraphic" in2="effect1_dropShadow_1040_1428" result="shape"/>
</filter>
</defs>
</svg>
