<svg width="18" height="24" viewBox="0 0 18 24" fill="none" xmlns="http://www.w3.org/2000/svg">
<path d="M6.75229 10.5C7.99493 10.5 9.00229 9.49264 9.00229 8.25C9.00229 7.00736 7.99493 6 6.75229 6C5.50965 6 4.50229 7.00736 4.50229 8.25C4.50229 9.49264 5.50965 10.5 6.75229 10.5Z" fill="#164878"/>
<path d="M18 21C18 22.6569 16.6569 24 15 24H3C1.34315 24 0 22.6569 0 21V3C0 1.34314 1.34315 0 3 0H11.25L18 6.75V21ZM3 1.5C2.17157 1.5 1.5 2.17157 1.5 3V18L4.83593 14.6641C5.07928 14.4207 5.45703 14.3742 5.75213 14.5513L9 16.5L12.2354 11.9704C12.5048 11.5933 13.0483 11.5483 13.376 11.876L16.5 15V6.75H13.5C12.2574 6.75 11.25 5.74264 11.25 4.5V1.5H3Z" fill="#164878"/>
</svg>
