<svg width="170" height="208" viewBox="0 0 170 208" fill="none" xmlns="http://www.w3.org/2000/svg">
<path fill-rule="evenodd" clip-rule="evenodd" d="M59.4328 2.76618C61.2041 0.995066 63.6063 0 66.1111 0H141.667C157.315 0 170 12.6853 170 28.3333V179.444C170 195.093 157.315 207.778 141.667 207.778H28.3333C12.6853 207.778 0 195.093 0 179.444V66.1111C0 63.6063 0.995067 61.2041 2.76618 59.4328L59.4328 2.76618ZM141.667 18.8889H75.5556V66.1111C75.5556 71.3271 71.3273 75.5556 66.1111 75.5556H18.8889V179.444C18.8889 184.661 23.1174 188.889 28.3333 188.889H141.667C146.883 188.889 151.111 184.661 151.111 179.444V28.3333C151.111 23.1174 146.883 18.8889 141.667 18.8889ZM32.2453 56.6667H56.6667V32.2453L32.2453 56.6667ZM37.7778 113.333C37.7778 108.117 42.0062 103.889 47.2222 103.889H122.778C127.994 103.889 132.222 108.117 132.222 113.333C132.222 118.549 127.994 122.778 122.778 122.778H47.2222C42.0062 122.778 37.7778 118.549 37.7778 113.333ZM37.7778 151.111C37.7778 145.895 42.0062 141.667 47.2222 141.667H122.778C127.994 141.667 132.222 145.895 132.222 151.111C132.222 156.327 127.994 160.556 122.778 160.556H47.2222C42.0062 160.556 37.7778 156.327 37.7778 151.111Z" fill="#164878"/>
</svg>
