<svg width="217" height="217" viewBox="0 0 217 217" fill="none" xmlns="http://www.w3.org/2000/svg">
<path d="M76.0022 32.6667H45.6688C33.5343 32.6667 27.4626 32.6667 22.8278 35.0282C18.7509 37.1054 15.4387 40.4176 13.3616 44.4945C11 49.1292 11 55.201 11 67.3355V171.335C11 183.47 11 189.534 13.3616 194.169C15.4387 198.245 18.7509 201.564 22.8278 203.64C27.458 206 33.5224 206 45.6332 206H149.7C161.811 206 167.867 206 172.497 203.64C176.573 201.564 179.897 198.242 181.974 194.166C184.333 189.535 184.333 183.478 184.333 171.367V141M141 43.5L76 108.5V141H108.5L173.5 76M141 43.5L173.5 11L206 43.5L173.5 76M141 43.5L173.5 76" stroke="#164878" stroke-width="21.6667" stroke-linecap="round" stroke-linejoin="round"/>
</svg>
