<svg width="17" height="17" viewBox="0 0 17 17" fill="none" xmlns="http://www.w3.org/2000/svg">
<path fill-rule="evenodd" clip-rule="evenodd" d="M11.2592 15.4369C13.5203 15.4369 15.3534 13.6038 15.3534 11.3427C15.3534 9.08147 13.5203 7.24842 11.2592 7.24842C8.99798 7.24842 7.16492 9.08147 7.16492 11.3427C7.16492 13.6038 8.99798 15.4369 11.2592 15.4369ZM16.377 11.3427C16.377 14.1691 14.0856 16.4605 11.2592 16.4605C8.43268 16.4605 6.14136 14.1691 6.14136 11.3427C6.14136 8.51617 8.43268 6.22486 11.2592 6.22486C14.0856 6.22486 16.377 8.51617 16.377 11.3427Z" fill="#164878"/>
<path d="M9.65985 12.3093C9.70866 12.9193 10.1902 13.3948 11.0558 13.4511V13.9016H11.4398V13.448C12.3346 13.3854 12.8585 12.9068 12.8585 12.2123C12.8585 11.5804 12.4582 11.2551 11.7424 11.0861L11.4398 11.0142V9.78792C11.8237 9.83172 12.0678 10.0413 12.1263 10.3322H12.7999C12.7511 9.74413 12.2467 9.28428 11.4398 9.23422V8.78376H11.0558V9.24361C10.2911 9.31869 9.77048 9.77854 9.77048 10.4292C9.77048 11.0048 10.1577 11.3708 10.802 11.521L11.0558 11.5835V12.8849C10.6621 12.8254 10.4017 12.6096 10.3432 12.3093H9.65985ZM11.0525 10.9235C10.6751 10.8359 10.4701 10.6576 10.4701 10.3885C10.4701 10.0882 10.6913 9.863 11.0558 9.79731V10.9235H11.0525ZM11.4951 11.6868C11.9539 11.7931 12.1654 11.9652 12.1654 12.2686C12.1654 12.6159 11.9018 12.8536 11.4398 12.8974V11.6743L11.4951 11.6868Z" fill="#164878"/>
<path d="M1.02356 0.0834961C0.458264 0.0834961 0 0.54176 0 1.10706V9.29554C0 9.86083 0.458264 10.3191 1.02356 10.3191H5.20271C5.26181 9.96684 5.3509 9.62475 5.46726 9.29554H3.07068C3.07068 8.16494 2.15415 7.24842 1.02356 7.24842V3.15418C2.15415 3.15418 3.07068 2.23765 3.07068 1.10706H13.3063C13.3063 2.23765 14.2228 3.15418 15.3534 3.15418V6.76508C15.7425 7.1133 16.0869 7.51039 16.377 7.9467V1.10706C16.377 0.54176 15.9187 0.0834961 15.3534 0.0834961H1.02356Z" fill="#164878"/>
<path d="M10.2339 5.2865C10.235 5.25825 10.2356 5.22984 10.2356 5.2013C10.2356 4.0707 9.31907 3.15418 8.18848 3.15418C7.05789 3.15418 6.14136 4.0707 6.14136 5.2013C6.14136 5.90193 6.49334 6.52035 7.03011 6.88939C7.89662 6.06624 9.00314 5.49334 10.2339 5.2865Z" fill="#164878"/>
</svg>
