<svg width="138" height="138" viewBox="0 0 138 138" fill="none" xmlns="http://www.w3.org/2000/svg">
<circle cx="69" cy="69" r="69" fill="#FF0000"/>
<path d="M41.403 39.403C43.2737 37.5323 46.3066 37.5323 48.1772 39.403L87.4198 78.6455L87.4197 52.1296C87.4197 49.4841 89.5644 47.3394 92.2099 47.3395C94.8554 47.3394 97 49.4841 97 52.1296L97 90.2099C97 92.8554 94.8554 95 92.2099 95L54.13 95C51.4845 95 49.3399 92.8554 49.3399 90.2098C49.3399 87.5643 51.4845 85.4197 54.13 85.4197L80.6455 85.4197L41.403 46.1772C39.5323 44.3066 39.5323 41.2737 41.403 39.403Z" fill="white" stroke="white" stroke-width="3" stroke-linecap="round" stroke-linejoin="round"/>
</svg>
