<svg width="263" height="832" viewBox="0 0 263 832" fill="none" xmlns="http://www.w3.org/2000/svg">
<path d="M8.32672 3L2 8.9313V826.536L7.9313 821L16.6305 828.908L25.7252 821L34.029 828.908L41.9374 821L51.4275 828.908L58.545 821L68.4305 828.908L76.7344 821L85.0382 828.908L93.7374 821L102.041 828.908L109.95 821L118.649 828.908L127.348 821L136.443 828.908L143.956 821L153.05 828.908L160.959 821L169.658 828.908L178.357 821L187.056 828.908L195.36 821L204.06 828.908L211.968 821L221.063 828.908L228.971 821L238.066 828.908L245.974 821L254.673 828.908L260.605 822.977L261 4.18626L255.069 10.9084L245.974 3L238.066 10.9084L229.366 3L220.667 10.9084L212.759 3L204.06 10.9084L195.756 3L187.056 10.9084L178.357 3L169.658 10.9084L161.75 3L153.446 10.9084L144.351 3L136.047 10.9084L127.744 3L118.649 10.9084L110.345 3L102.437 10.9084L93.342 3L85.0382 10.9084L76.3389 3L67.6397 10.9084L59.3359 3L51.0321 10.9084L42.3328 3L34.029 10.9084L25.7252 3L17.026 10.9084L8.32672 3Z" fill="#4AAF53" fill-opacity="0.1" stroke="#4AAF53" stroke-width="3.01957"/>
</svg>
