<svg width="33" height="33" viewBox="0 0 33 33" fill="none" xmlns="http://www.w3.org/2000/svg">
<path d="M26.5105 0.302046C26.1078 -0.100682 25.4548 -0.100682 25.0521 0.302046L21.6563 3.69786L29.3022 11.3438L32.698 7.94795C33.1007 7.54523 33.1007 6.89227 32.698 6.48955L26.5105 0.302046Z" fill="white"/>
<path d="M27.8438 12.8022L20.1979 5.15626L6.79162 18.5625H7.21875C7.78829 18.5625 8.25 19.0242 8.25 19.5938V20.625H9.28125C9.85079 20.625 10.3125 21.0867 10.3125 21.6562V22.6875H11.3438C11.9133 22.6875 12.375 23.1492 12.375 23.7188V24.75H13.4062C13.9758 24.75 14.4375 25.2117 14.4375 25.7812V26.2084L27.8438 12.8022Z" fill="white"/>
<path d="M12.4403 28.2056C12.3981 28.093 12.375 27.9711 12.375 27.8438V26.8125H11.3438C10.7742 26.8125 10.3125 26.3508 10.3125 25.7812V24.75H9.28125C8.71171 24.75 8.25 24.2883 8.25 23.7188V22.6875H7.21875C6.64921 22.6875 6.1875 22.2258 6.1875 21.6562V20.625H5.15625C5.02892 20.625 4.90699 20.6019 4.79439 20.5597L4.42708 20.927C4.32832 21.0258 4.25066 21.1436 4.19879 21.2733L0.0737885 31.5858C-0.079421 31.9688 0.0103741 32.4063 0.302076 32.698C0.593778 32.9897 1.03125 33.0794 1.41428 32.9262L11.7268 28.8012C11.8564 28.7494 11.9742 28.6717 12.073 28.573L12.4403 28.2056Z" fill="white"/>
</svg>
