<?xml version="1.0" encoding="UTF-8"?>
<svg id="Camada_2" data-name="Camada 2" xmlns="http://www.w3.org/2000/svg" viewBox="0 0 394.67 460.03">
  <g id="Camada_1-2" data-name="Camada 1">
    <g>
      <path d="M308.4,275.78l-40.9,40.9c-.67,.93-1.18,1.97-1.51,3.07l-3.21,22.37,22.46-3.18c1.12-.34,2.17-.87,3.1-1.56l40.83-40.85c-8.28-5.41-15.36-12.48-20.77-20.76Z" style="fill: #fff;"/>
      <path d="M277.91,0H116.76C27.16,0,0,28.84,0,123.48v240.19c0,47.3,19.63,62.14,30.98,66.6,11.35,4.46,34.9,7.04,65.81-25.94,4.43-5.28,11.05-8.22,17.94-7.94,6.83,.57,13.04,4.17,16.92,9.81l21.67,28.89c2.78,3.86,18.01,24.19,41.44,24.92,26.08,.81,45.26-23.21,46.59-24.92,6.53-8.41,11.87-14.63,21.67-28.89,3.88-5.64,10.09-9.25,16.92-9.81,6.89-.28,13.51,2.65,17.94,7.94,30.91,32.98,54.46,30.4,65.81,25.94,11.35-4.46,30.98-19.31,30.98-66.6V123.48C394.67,28.84,367.51,0,277.91,0ZM79.6,116.19H250.27c8.84,0,16,7.16,16,16s-7.16,16-16,16H79.6c-8.84,0-16-7.16-16-16s7.16-16,16-16Zm128,117.33H79.6c-8.84,0-16-7.16-16-16s7.16-16,16-16H207.6c8.84,0,16,7.16,16,16s-7.16,16-16,16Zm177.18,33.36v-.05c-1.43,10.1-6.4,19.36-14.03,26.14l-63.5,63.52c-5.06,4.76-11.41,7.92-18.26,9.1l-24.24,3.48c-1.37,.19-2.75,.29-4.13,.29-6.7,.11-13.16-2.48-17.94-7.18-5.64-5.84-8.19-14-6.87-22.01l3.48-24.29c1.17-6.84,4.34-13.18,9.11-18.23l63.5-63.5c6.78-7.63,16.05-12.6,26.16-14.03,12.46-.61,24.51,4.57,32.65,14.03,9.52,8.14,14.72,20.23,14.06,32.74Z" style="fill: #fff;"/>
      <path d="M341.25,246.93h-.48c-3.83,1.03-7.24,3.22-9.76,6.28l-2.76,2.76c4.36,9.1,11.71,16.44,20.83,20.77l2.74-2.74c3.03-2.54,5.21-5.95,6.22-9.78,.36-3.59-3.21-7.95-6.28-11-2.68-3.24-6.39-5.46-10.51-6.3Z" style="fill: #fff;"/>
    </g>
  </g>
</svg>