<svg width="145" height="145" viewBox="0 0 145 145" fill="none" xmlns="http://www.w3.org/2000/svg">
<path d="M67.1231 138.958C66.4225 138.957 65.7274 138.835 65.0689 138.596C63.7986 138.131 62.7212 137.253 62.0092 136.102C61.2971 134.952 60.9917 133.596 61.1418 132.252L65.7939 89.4166H30.2085C29.1109 89.4183 28.0336 89.1209 27.0923 88.5564C26.151 87.992 25.3812 87.1817 24.8657 86.2128C24.3501 85.2438 24.1083 84.1527 24.1661 83.0566C24.2239 81.9605 24.5793 80.9009 25.1939 79.9916L72.8627 8.69994C73.6166 7.58427 74.7216 6.75243 76.0022 6.33649C77.2829 5.92055 78.6658 5.94435 79.9314 6.4041C81.1481 6.8558 82.187 7.68726 82.8942 8.7754C83.6015 9.86353 83.9396 11.1505 83.8585 12.4458L79.2064 55.5833H114.792C115.889 55.5816 116.967 55.879 117.908 56.4434C118.849 57.0079 119.619 57.8181 120.135 58.7871C120.65 59.7561 120.892 60.8472 120.834 61.9433C120.776 63.0393 120.421 64.0989 119.806 65.0083L72.1377 136.3C71.5835 137.12 70.8363 137.791 69.962 138.255C69.0876 138.718 68.1127 138.96 67.1231 138.958Z" fill="white"/>
</svg>
