<svg width="145" height="145" viewBox="0 0 145 145" fill="none" xmlns="http://www.w3.org/2000/svg">
<g clip-path="url(#clip0_935_1337)">
<path d="M104.702 87.6041L119.806 65.0083C120.421 64.099 120.776 63.0394 120.834 61.9433C120.892 60.8472 120.65 59.7561 120.135 58.7872C119.619 57.8182 118.849 57.0079 117.908 56.4435C116.967 55.879 115.889 55.5816 114.792 55.5833H79.2064L83.8585 12.7479C83.9397 11.4526 83.6016 10.1657 82.8943 9.07752C82.187 7.98938 81.1481 7.15792 79.9314 6.70623C78.6659 6.24647 77.2829 6.22267 76.0023 6.63861C74.7216 7.05456 73.6166 7.88639 72.8627 9.00206L54.0127 36.9146L104.702 87.6041Z" fill="white"/>
<path d="M40.2981 57.3959L25.1939 79.9917C24.5793 80.901 24.2239 81.9607 24.1661 83.0567C24.1083 84.1528 24.3501 85.2439 24.8657 86.2129C25.3812 87.1818 26.151 87.9921 27.0923 88.5565C28.0336 89.121 29.1109 89.4184 30.2085 89.4167H65.7939L61.1418 132.252C60.9917 133.597 61.2971 134.952 62.0092 136.103C62.7212 137.253 63.7986 138.131 65.0689 138.596C65.7274 138.835 66.4225 138.958 67.1231 138.958C68.1127 138.96 69.0876 138.718 69.962 138.255C70.8363 137.791 71.5835 137.12 72.1377 136.3L90.9877 108.085L40.2981 57.3959Z" fill="white"/>
<path d="M125.123 116.544L28.4561 19.877C27.8928 19.3137 27.224 18.8669 26.488 18.562C25.752 18.2571 24.9631 18.1002 24.1665 18.1002C23.3698 18.1002 22.581 18.2571 21.845 18.562C21.109 18.8669 20.4402 19.3137 19.8769 19.877C18.7392 21.0147 18.1001 22.5577 18.1001 24.1666C18.1001 25.7755 18.7392 27.3185 19.8769 28.4562L116.544 125.123C117.105 125.689 117.773 126.139 118.51 126.445C119.246 126.752 120.036 126.91 120.833 126.91C121.631 126.91 122.42 126.752 123.157 126.445C123.893 126.139 124.561 125.689 125.123 125.123C125.689 124.561 126.138 123.893 126.445 123.157C126.752 122.421 126.91 121.631 126.91 120.833C126.91 120.036 126.752 119.246 126.445 118.51C126.138 117.774 125.689 117.105 125.123 116.544Z" fill="white"/>
</g>
<defs>
<clipPath id="clip0_935_1337">
<rect width="145" height="145" fill="white"/>
</clipPath>
</defs>
</svg>
