<svg width="389" height="575" viewBox="0 0 389 575" fill="none" xmlns="http://www.w3.org/2000/svg">
<path d="M8.5669 574.66H0V0L8.24959 11.2054L16.8165 0L25.0661 11.2054L33.633 0L42.1998 11.2054L50.7667 0L59.0163 11.2054L67.5832 0L76.1501 10.8658L84.3997 0L92.9666 10.8658L101.216 0L109.783 10.8658L118.033 0L126.917 10.8658L135.166 0L143.733 11.2054L151.983 0L160.55 10.8658L168.799 0L177.366 11.2054L185.933 0L194.183 11.2054L202.75 0L211.316 11.2054L219.566 0L228.133 11.2054L236.7 0L245.267 11.2054L253.516 0L262.083 11.2054L270.333 0L278.9 11.2054L287.149 0L295.716 10.8658L304.283 0L312.85 10.8658L321.417 0L329.984 10.8658L338.233 0L346.8 10.8658L355.05 0.339557L363.934 10.8658L372.184 0.339557L380.433 10.8658L389 0.339557V575L380.433 574.66L371.866 575L363.934 574.66L355.05 575L346.483 574.66L337.916 575L329.666 574.66L321.417 575L312.85 574.66L304.6 575L296.668 574.66H287.467H278.9H270.333H262.4H253.516H245.267H237.017H228.768H219.883H211.316H203.067H194.817H185.933H177.684H169.117H160.55H152.3H144.051H135.166H126.917H118.667H110.1H101.216H93.6012H84.3997H76.1501H67.9005H59.0163H51.4382H42.8344H34.958H25.3834H16.9796H8.5669Z" fill="white"/>
</svg>
