<svg width="31" height="27" viewBox="0 0 31 27" fill="none" xmlns="http://www.w3.org/2000/svg">
<path d="M8.67857 15.4286C10.2763 15.4286 11.5714 14.1334 11.5714 12.5357C11.5714 10.938 10.2763 9.64286 8.67857 9.64286C7.08089 9.64286 5.78571 10.938 5.78571 12.5357C5.78571 14.1334 7.08089 15.4286 8.67857 15.4286Z" fill="white"/>
<path d="M27 23.1429C27 25.2731 25.2731 27 23.1429 27H3.85714C1.7269 27 0 25.2731 0 23.1429V7.71429C0 5.58504 1.7253 3.85875 3.85417 3.85714C3.85417 1.7269 5.58107 0 7.71131 0H26.997C29.1273 0 30.8542 1.7269 30.8542 3.85714V19.2857C30.8542 21.415 29.1289 23.1413 27 23.1429ZM26.997 1.92857H7.71131C6.64619 1.92857 5.78274 2.79202 5.78274 3.85714L23.1429 3.85714C25.2731 3.85714 27 5.58404 27 7.71429V21.2143C28.0638 21.2127 28.9256 20.3498 28.9256 19.2857V3.85714C28.9256 2.79202 28.0621 1.92857 26.997 1.92857ZM3.85714 5.78571C2.79202 5.78571 1.92857 6.64917 1.92857 7.71429V23.1429L7.03243 18.6039C7.35746 18.2789 7.86672 18.2284 8.24918 18.4834L13.3771 21.902L20.5324 14.7467C20.8259 14.4533 21.2743 14.3805 21.6455 14.5661L25.0714 18.3215V7.71429C25.0714 6.64917 24.208 5.78571 23.1429 5.78571H3.85714Z" fill="white"/>
</svg>
