<svg width="22" height="23" viewBox="0 0 22 23" fill="none" xmlns="http://www.w3.org/2000/svg">
<path d="M10.724 22.9003C16.6467 22.9003 21.448 17.9131 21.448 11.761C21.448 5.60885 16.6467 0.621582 10.724 0.621582C4.80131 0.621582 0 5.60885 0 11.761C0 17.9131 4.80131 22.9003 10.724 22.9003ZM11.9716 9.79471L10.6285 16.3462C10.5342 16.8194 10.6678 17.0886 11.0369 17.0886C11.2961 17.0886 11.6889 16.9907 11.9559 16.7459L11.8381 17.3252C11.4532 17.8066 10.6049 18.1574 9.87447 18.1574C8.93193 18.1574 8.53135 17.57 8.79055 16.3217L9.78022 11.4917C9.86662 11.0838 9.78807 10.9369 9.39535 10.839L8.79055 10.7248L8.90051 10.1945L11.9716 9.79471ZM10.724 8.27991C9.98368 8.27991 9.38351 7.6565 9.38351 6.88748C9.38351 6.11847 9.98368 5.49506 10.724 5.49506C11.4644 5.49506 12.0645 6.11847 12.0645 6.88748C12.0645 7.6565 11.4644 8.27991 10.724 8.27991Z" fill="#164878"/>
</svg>
