<svg width="14" height="16" viewBox="0 0 14 16" fill="none" xmlns="http://www.w3.org/2000/svg">
<path d="M1.06667 1.06667C0.477563 1.06667 0 1.54423 0 2.13333V3.2C0 3.7891 0.477563 4.26667 1.06667 4.26667H1.6V13.8667C1.6 15.0449 2.55513 16 3.73333 16H10.1333C11.3115 16 12.2667 15.0449 12.2667 13.8667V4.26667H12.8C13.3891 4.26667 13.8667 3.7891 13.8667 3.2V2.13333C13.8667 1.54423 13.3891 1.06667 12.8 1.06667H9.06667C9.06667 0.477563 8.5891 0 8 0H5.86667C5.27756 0 4.8 0.477563 4.8 1.06667H1.06667ZM4.26667 5.33333C4.56122 5.33333 4.8 5.57211 4.8 5.86667V13.3333C4.8 13.6279 4.56122 13.8667 4.26667 13.8667C3.97211 13.8667 3.73333 13.6279 3.73333 13.3333V5.86667C3.73333 5.57211 3.97212 5.33333 4.26667 5.33333ZM6.93333 5.33333C7.22789 5.33333 7.46667 5.57211 7.46667 5.86667V13.3333C7.46667 13.6279 7.22788 13.8667 6.93333 13.8667C6.63878 13.8667 6.4 13.6279 6.4 13.3333V5.86667C6.4 5.57211 6.63878 5.33333 6.93333 5.33333ZM10.1333 5.86667V13.3333C10.1333 13.6279 9.89455 13.8667 9.6 13.8667C9.30545 13.8667 9.06667 13.6279 9.06667 13.3333V5.86667C9.06667 5.57211 9.30545 5.33333 9.6 5.33333C9.89455 5.33333 10.1333 5.57211 10.1333 5.86667Z" fill="white"/>
</svg>
