<svg width="138" height="138" viewBox="0 0 138 138" fill="none" xmlns="http://www.w3.org/2000/svg">
<circle cx="69" cy="69" r="69" fill="#4AAF53"/>
<path d="M41.403 93.597C43.2737 95.4677 46.3066 95.4677 48.1772 93.597L87.4198 54.3545L87.4197 80.8704C87.4197 83.5159 89.5644 85.6606 92.2099 85.6605C94.8554 85.6606 97 83.5159 97 80.8704L97 42.7901C97 40.1446 94.8554 38 92.2099 38L54.13 38C51.4845 38 49.3399 40.1446 49.3399 42.7902C49.3399 45.4357 51.4845 47.5803 54.13 47.5803L80.6455 47.5803L41.403 86.8228C39.5323 88.6934 39.5323 91.7263 41.403 93.597Z" fill="white" stroke="white" stroke-width="3" stroke-linecap="round" stroke-linejoin="round"/>
</svg>
