<svg width="100" height="100" viewBox="0 0 100 100" fill="none" xmlns="http://www.w3.org/2000/svg">
<path d="M60.8868 8.84992C64.6146 11.9907 66.9193 15.8461 67.6191 20.6828C67.6341 21.101 67.64 21.5197 67.638 21.9383C67.6373 22.1701 67.6367 22.4019 67.6361 22.6408C67.6344 22.8801 67.6328 23.1194 67.6312 23.366C67.6303 23.6098 67.6294 23.8536 67.6285 24.1048C67.6262 24.7046 67.6231 25.3044 67.6191 25.9042C67.8278 25.8981 67.8278 25.8981 68.0407 25.8919C74.2116 25.7358 74.2116 25.7358 76.9016 27.838C77.0203 27.9231 77.1389 28.0081 77.2612 28.0956C79.1054 29.5114 80.095 31.7646 80.4411 34.0212C80.5614 35.035 80.6194 36.0531 80.6804 37.0718C80.703 37.4108 80.7259 37.7497 80.749 38.0886C80.7978 38.8109 80.845 39.5333 80.8908 40.2557C80.9619 41.3717 81.0386 42.4872 81.1167 43.6026C81.2853 46.0208 81.4488 48.4393 81.6116 50.8578C81.6413 51.2976 81.6709 51.7374 81.7005 52.1772C81.8237 54.0065 81.9468 55.8358 82.0694 57.6651C82.2429 60.254 82.4174 62.843 82.5933 65.4318C82.7184 67.2733 82.8423 69.1149 82.9654 70.9566C83.0383 72.0482 83.1118 73.1399 83.1865 74.2314C83.2565 75.2554 83.3251 76.2794 83.3927 77.3036C83.4174 77.675 83.4427 78.0464 83.4685 78.4178C83.6062 80.4052 83.6939 82.3862 83.704 84.3787C83.7056 84.5631 83.7073 84.7476 83.7089 84.9376C83.7051 87.2793 83.054 89.0687 81.5429 90.882C81.432 91.0191 81.321 91.1562 81.2067 91.2975C79.5882 93.1067 77.2369 94.037 74.8473 94.2053C74.3029 94.2196 73.7599 94.2221 73.2154 94.22C73.0086 94.2207 72.8018 94.2215 72.5888 94.2222C71.9004 94.2242 71.2121 94.2235 70.5238 94.2227C70.0284 94.2235 69.533 94.2245 69.0376 94.2257C67.8344 94.228 66.6311 94.2285 65.4278 94.228C64.4491 94.2277 63.4703 94.228 62.4916 94.2289C62.2821 94.229 62.2821 94.229 62.0684 94.2292C61.7847 94.2294 61.501 94.2297 61.2173 94.2299C58.56 94.232 55.9028 94.2316 53.2455 94.2304C50.8188 94.2294 48.3921 94.2316 45.9653 94.2353C43.469 94.239 40.9727 94.2406 38.4763 94.2399C37.0767 94.2395 35.677 94.24 34.2774 94.2427C32.9607 94.2453 31.644 94.2448 30.3273 94.2423C29.8453 94.2418 29.3633 94.2423 28.8814 94.2439C25.1593 94.2554 21.8876 94.2202 19.0187 91.5226C17.1112 89.5031 16.259 87.135 16.3181 84.3843C16.3202 84.1921 16.3224 83.9999 16.3247 83.8018C16.3597 81.6193 16.5003 79.4439 16.6496 77.2668C16.6796 76.8136 16.7094 76.3604 16.7391 75.9071C16.8193 74.6909 16.9013 73.4748 16.9837 72.2587C17.0614 71.1092 17.1378 69.9596 17.2143 68.81C17.3658 66.5334 17.5187 64.2569 17.6724 61.9804C17.821 59.7795 17.9685 57.5786 18.1147 55.3777C18.2747 52.9691 18.4353 50.5606 18.597 48.1521C18.6823 46.8813 18.7674 45.6105 18.8519 44.3397C18.9314 43.1459 19.0118 41.9523 19.0929 40.7586C19.1224 40.3226 19.1515 39.8867 19.1803 39.4506C19.7519 30.812 19.7519 30.812 22.7421 28.0745C24.9884 26.2911 27.2005 25.8399 30.0054 25.88C30.3547 25.8826 30.3547 25.8826 30.711 25.8853C31.2816 25.8898 31.8522 25.8962 32.4228 25.9042C32.4167 25.6943 32.4167 25.6943 32.4105 25.4801C32.2638 19.6226 33.2345 14.8592 37.3095 10.4747C38.5608 9.18463 39.9583 8.23051 41.5119 7.33909C41.6812 7.24187 41.8504 7.14465 42.0248 7.04448C47.9572 3.87158 55.6264 4.77312 60.8868 8.84992ZM41.3185 15.6547C38.8279 18.9113 38.8045 21.6531 38.8045 25.9042C46.2073 25.9042 53.6102 25.9042 61.2373 25.9042C61.2373 21.3329 61.2126 18.2474 58.0351 14.9356C55.6427 12.7001 52.796 11.4654 49.5065 11.5332C46.2228 11.8404 43.525 13.1966 41.3185 15.6547ZM34.4654 43.8045C33.9447 44.6168 33.9063 45.2591 33.9698 46.2098C34.614 47.9591 35.6174 49.4801 36.8706 50.851C36.9997 50.9924 36.9997 50.9924 37.1314 51.1367C38.3966 52.5052 39.672 53.6233 41.3185 54.5254C41.5035 54.6283 41.6885 54.7313 41.879 54.8374C45.9657 56.9987 50.6468 57.4806 55.0677 56.1432C56.7151 55.6056 58.2627 54.9397 59.6902 53.9452C59.8296 53.8487 59.9689 53.7523 60.1125 53.6529C62.7403 51.7183 64.8825 49.2741 66.072 46.2098C66.1927 45.2442 66.0582 44.6105 65.5417 43.8068C64.9649 43.0849 64.2812 42.7139 63.3887 42.5354C62.4667 42.4612 61.7889 42.7878 61.0439 43.309C60.6152 43.7377 60.328 44.1751 60.0279 44.6997C58.3582 47.6069 56.1712 49.4129 52.9164 50.3305C49.8273 51.049 46.8879 50.6214 44.0894 49.1249C42.2286 47.9652 41.0639 46.5269 39.9648 44.6627C39.2572 43.5545 38.7363 42.9094 37.4508 42.5354C36.2953 42.328 35.2366 42.9937 34.4654 43.8045Z" fill="#FA6FE0"/>
</svg>
