<svg width="100" height="100" viewBox="0 0 100 100" fill="none" xmlns="http://www.w3.org/2000/svg">
<g clip-path="url(#clip0_891_1200)">
<path d="M19.5685 0.137224C19.8069 0.136729 19.8069 0.136729 20.0501 0.136223C20.581 0.135587 21.1119 0.137711 21.6428 0.139827C22.024 0.139936 22.4053 0.139875 22.7865 0.139656C23.8205 0.139545 24.8544 0.141819 25.8884 0.144519C26.9693 0.146937 28.0502 0.147164 29.1311 0.147623C31.1775 0.148825 33.224 0.151999 35.2704 0.15588C37.6004 0.160204 39.9303 0.16233 42.2603 0.164272C47.0529 0.168314 51.8454 0.175117 56.6379 0.183735C56.6389 0.372153 56.6389 0.372153 56.6399 0.564377C56.6556 3.62822 56.6734 6.69205 56.6935 9.75587C56.7032 11.2375 56.7122 12.7192 56.7195 14.2009C56.7259 15.4931 56.7336 16.7853 56.7429 18.0775C56.7477 18.761 56.752 19.4445 56.7546 20.128C56.7576 20.8932 56.7635 21.6583 56.7696 22.4234C56.7701 22.6472 56.7705 22.871 56.7709 23.1016C56.7933 25.2947 56.9803 27.2352 58.3784 28.9983C60.3241 30.9038 62.6766 30.9592 65.2523 30.9719C65.4939 30.9738 65.7355 30.9757 65.9845 30.9777C66.6436 30.9827 67.3028 30.987 67.962 30.9908C68.6521 30.9951 69.3423 31.0004 70.0324 31.0055C71.3378 31.0152 72.6432 31.0239 73.9485 31.0322C75.4353 31.0418 76.9221 31.0524 78.4088 31.0631C81.4658 31.0851 84.5228 31.1057 87.5797 31.1256C87.5974 39.1733 87.6111 47.2211 87.6192 55.2689C87.6202 56.2192 87.6212 57.1695 87.6222 58.1199C87.6224 58.309 87.6226 58.4982 87.6228 58.6932C87.6262 61.7557 87.6323 64.8182 87.6394 67.8807C87.6467 71.0236 87.6509 74.1665 87.6525 77.3094C87.6536 79.2484 87.6569 81.1874 87.6632 83.1264C87.6673 84.4564 87.6685 85.7864 87.6675 87.1165C87.667 87.8836 87.6678 88.6507 87.6719 89.4178C87.6757 90.121 87.6759 90.824 87.6733 91.5272C87.6728 91.9003 87.6761 92.2734 87.6796 92.6465C87.6666 94.5383 87.2942 96.1354 85.9752 97.5477C84.7662 98.6348 83.4244 99.245 81.7858 99.2473C81.5582 99.2486 81.3306 99.2498 81.0961 99.2511C80.8479 99.2505 80.5996 99.2499 80.3438 99.2493C80.076 99.25 79.8083 99.2509 79.5405 99.2519C78.8056 99.2543 78.0708 99.2542 77.3359 99.2538C76.5429 99.2537 75.75 99.2558 74.9571 99.2577C73.4039 99.2609 71.8507 99.262 70.2976 99.2622C69.035 99.2624 67.7725 99.2631 66.5099 99.2644C62.9299 99.2678 59.3498 99.2696 55.7698 99.2693C55.5768 99.2693 55.3838 99.2692 55.185 99.2692C54.9918 99.2692 54.7986 99.2692 54.5995 99.2692C51.4682 99.269 48.3368 99.2727 45.2055 99.2782C41.9898 99.2837 38.7741 99.2864 35.5584 99.2861C33.7532 99.2859 31.948 99.287 30.1428 99.2912C28.6059 99.2947 27.0689 99.2955 25.532 99.2929C24.748 99.2916 23.9641 99.2916 23.1802 99.295C22.4619 99.298 21.7437 99.2975 21.0255 99.2941C20.6438 99.2932 20.2622 99.2961 19.8806 99.2992C17.8094 99.2831 16.1881 98.706 14.6731 97.2637C13.6488 95.9638 13.2603 94.6682 13.2696 93.0175C13.2686 92.7892 13.2686 92.7891 13.2676 92.5561C13.2658 92.0452 13.2667 91.5342 13.2677 91.0232C13.2669 90.6535 13.266 90.2837 13.265 89.914C13.2626 88.8972 13.2627 87.8805 13.2631 86.8638C13.2632 85.7675 13.2611 84.6712 13.2593 83.575C13.256 81.4269 13.255 79.2788 13.2548 77.1307C13.2546 75.3847 13.2538 73.6388 13.2526 71.8929C13.2497 67.7495 13.2473 63.6061 13.2475 59.4627C13.2475 59.3302 13.2475 59.1976 13.2475 59.0611C13.2476 58.3895 13.2476 57.7179 13.2477 57.0463C13.2477 56.9129 13.2477 56.7796 13.2477 56.6421C13.2477 56.3724 13.2477 56.1027 13.2477 55.8329C13.248 51.6368 13.2451 47.4406 13.2398 43.2445C13.2338 38.5298 13.2305 33.8151 13.2309 29.1004C13.231 26.6042 13.2299 24.1081 13.2258 21.6119C13.2222 19.4866 13.2214 17.3613 13.224 15.236C13.2253 14.1516 13.2253 13.0673 13.222 11.9829C13.2189 10.9899 13.2195 9.99702 13.2228 9.00403C13.2234 8.64511 13.2227 8.28619 13.2206 7.92727C13.2077 5.63063 13.2743 3.59972 14.9239 1.83356C16.2988 0.597354 17.728 0.123129 19.5685 0.137224ZM35.9456 13.5274C34.9237 14.8255 34.9512 15.9693 34.9666 17.5522C34.9674 17.7231 34.9683 17.894 34.9692 18.0701C34.9715 18.4897 34.9749 18.9094 34.9786 19.329C34.8686 19.35 34.7585 19.3711 34.6451 19.3928C32.2076 19.8911 30.3185 21.0359 28.5969 22.8099C28.4062 22.998 28.4062 22.998 28.2116 23.1899C26.5693 24.9134 25.8119 27.1898 25.8291 29.5422C25.83 29.6959 25.831 29.8495 25.8319 30.0079C25.87 31.9164 26.4211 33.3867 27.4366 34.9933C27.5131 35.1202 27.5896 35.2471 27.6685 35.3778C29.3567 37.9075 32.4421 39.4852 35.3346 40.1395C36.1562 40.2875 36.9876 40.3424 37.819 40.4081C40.0959 40.5922 41.9 40.966 43.4876 42.7287C44.2596 43.7661 44.215 44.9667 44.0678 46.2097C43.6735 47.4841 42.6294 48.3401 41.5024 48.9677C39.6854 49.762 37.262 49.8399 35.3533 49.2797C34.7473 49.0335 34.2436 48.688 33.7095 48.3128C32.8685 47.7262 32.335 47.5468 31.3043 47.5634C30.1653 47.8916 29.6557 48.3749 28.9837 49.3039C28.6236 50.024 28.7089 50.8385 28.7903 51.6245C29.5208 53.318 31.5009 54.1919 33.0954 54.9227C33.7193 55.138 34.3243 55.223 34.9786 55.2988C34.9719 55.5439 34.9652 55.7889 34.9582 56.0414C34.9528 56.37 34.9475 56.6986 34.9424 57.0272C34.9375 57.1879 34.9327 57.3486 34.9277 57.5141C34.9135 58.7269 34.9951 60.0816 35.8397 61.0286C36.7587 61.8114 37.3757 61.9428 38.5487 61.9276C39.2766 61.8481 39.6621 61.5872 40.2001 61.1004C41.222 59.8023 41.1944 58.6586 41.1791 57.0756C41.1782 56.9047 41.1773 56.7338 41.1765 56.5577C41.1742 56.1381 41.1707 55.7185 41.167 55.2988C41.2771 55.2778 41.3872 55.2567 41.5006 55.2351C43.9381 54.7367 45.8271 53.592 47.5488 51.8179C47.6759 51.6925 47.803 51.5671 47.934 51.4379C49.5763 49.7146 50.334 47.438 50.3166 45.0856C50.3155 44.9317 50.3144 44.7777 50.3133 44.6191C50.2638 42.217 49.3103 39.7796 47.5488 38.0875C44.8648 35.6189 41.9169 34.5057 38.3266 34.2197C36.0497 34.0355 34.2457 33.6619 32.658 31.8991C31.886 30.8617 31.9306 29.6611 32.0778 28.4181C32.4721 27.1438 33.5162 26.2878 34.6432 25.6601C36.5654 24.8199 39.027 24.7868 41.0099 25.4569C41.748 25.772 42.3383 26.1807 42.9702 26.6678C43.5952 27.0598 44.1045 27.0644 44.8413 27.0644C45.9803 26.7363 46.49 26.2529 47.162 25.324C47.5221 24.6038 47.4368 23.7893 47.3554 23.0033C46.5443 21.1232 44.3149 20.2887 42.5404 19.5352C41.9243 19.2871 41.9243 19.2871 41.167 19.329C41.1737 19.0839 41.1805 18.8389 41.1874 18.5864C41.1929 18.2578 41.1981 17.9292 41.2033 17.6006C41.2081 17.4399 41.213 17.2793 41.218 17.1137C41.2322 15.9009 41.1506 14.5462 40.3059 13.5992C39.387 12.8164 38.7699 12.685 37.5969 12.7002C36.8691 12.7797 36.4836 13.0406 35.9456 13.5274ZM57.4115 44.6747C56.7487 45.6481 56.7041 46.399 56.8313 47.5634C57.2854 48.5064 57.8539 48.9951 58.7652 49.4973C59.499 49.6874 60.1941 49.7171 60.9504 49.7218C61.1925 49.7237 61.4346 49.7255 61.684 49.7274C61.9469 49.7284 62.2098 49.7292 62.4727 49.7299C62.673 49.7307 62.673 49.7307 62.8773 49.7316C63.584 49.7345 64.2906 49.7363 64.9973 49.7371C65.7232 49.7382 66.449 49.7428 67.1748 49.7483C67.7366 49.7519 68.2984 49.7529 68.8602 49.7532C69.1275 49.7538 69.3949 49.7553 69.6622 49.7579C72.0642 49.8385 72.0642 49.8385 74.1608 48.8297C74.9497 47.9153 75.0785 47.2925 75.0633 46.1205C74.9838 45.3927 74.7229 45.0072 74.2361 44.4692C73.1374 43.6043 72.2585 43.4796 70.8905 43.4711C70.5274 43.4683 70.5274 43.4683 70.1569 43.4655C69.894 43.4646 69.6311 43.4637 69.3682 43.463C69.1679 43.4622 69.1679 43.4622 68.9637 43.4613C68.257 43.4584 67.5503 43.4567 66.8436 43.4558C66.1177 43.4548 65.392 43.4501 64.6661 43.4446C64.1043 43.441 63.5426 43.44 62.9808 43.4397C62.7134 43.4391 62.446 43.4376 62.1787 43.435C59.5497 43.3575 59.5497 43.3575 57.4115 44.6747ZM57.4115 57.0514C56.7487 58.0248 56.7041 58.7757 56.8313 59.9401C57.2854 60.8832 57.8539 61.3718 58.7652 61.874C59.499 62.0642 60.1941 62.0938 60.9504 62.0985C61.1925 62.1004 61.4346 62.1022 61.684 62.1042C61.9469 62.1051 62.2098 62.1059 62.4727 62.1067C62.673 62.1075 62.673 62.1075 62.8773 62.1083C63.584 62.1112 64.2906 62.113 64.9973 62.1138C65.7232 62.1149 66.449 62.1195 67.1748 62.125C67.7366 62.1287 68.2984 62.1297 68.8602 62.1299C69.1275 62.1305 69.3949 62.1321 69.6622 62.1346C72.0642 62.2152 72.0642 62.2152 74.1608 61.2064C74.9497 60.292 75.0785 59.6692 75.0633 58.4973C74.9838 57.7694 74.7229 57.384 74.2361 56.8459C73.1374 55.981 72.2585 55.8563 70.8905 55.8478C70.5274 55.8451 70.5274 55.8451 70.1569 55.8422C69.894 55.8413 69.6311 55.8405 69.3682 55.8397C69.1679 55.8389 69.1679 55.8389 68.9637 55.8381C68.257 55.8352 67.5503 55.8334 66.8436 55.8325C66.1177 55.8315 65.392 55.8268 64.6661 55.8213C64.1043 55.8177 63.5426 55.8167 62.9808 55.8164C62.7134 55.8159 62.446 55.8143 62.1787 55.8118C59.5497 55.7343 59.5497 55.7343 57.4115 57.0514ZM26.4696 69.4281C25.8069 70.4016 25.7623 71.1525 25.8895 72.3168C26.3435 73.2599 26.912 73.7486 27.8233 74.2507C28.7183 74.5019 29.6176 74.4722 30.5394 74.4713C30.7159 74.4718 30.8924 74.4724 31.0742 74.473C31.6658 74.4747 32.2574 74.475 32.8489 74.4753C33.273 74.4762 33.6971 74.4771 34.1212 74.4782C35.2736 74.4807 36.4259 74.482 37.5783 74.4828C38.2983 74.4834 39.0184 74.4842 39.7384 74.485C41.9916 74.4877 44.2447 74.4896 46.4979 74.4903C46.757 74.4904 47.0161 74.4905 47.2753 74.4906C47.4038 74.4906 47.5324 74.4906 47.6648 74.4907C49.747 74.4914 51.8291 74.4948 53.9113 74.4993C56.051 74.5039 58.1906 74.5063 60.3303 74.5065C61.5308 74.5068 62.7314 74.5079 63.9319 74.5113C65.0615 74.5145 66.191 74.515 67.3205 74.5133C67.7345 74.5131 68.1486 74.5139 68.5626 74.5159C69.1289 74.5183 69.6951 74.5172 70.2615 74.5152C70.4243 74.5167 70.5871 74.5183 70.7549 74.5199C71.9262 74.5102 73.2543 74.3938 74.1646 73.5832C74.9466 72.6635 75.0785 72.0473 75.0633 70.874C74.9838 70.1462 74.7229 69.7607 74.2361 69.2227C72.9826 68.2359 71.8874 68.227 70.3597 68.2286C70.1832 68.228 70.0067 68.2274 69.8249 68.2268C69.2333 68.2252 68.6417 68.2249 68.0502 68.2246C67.6261 68.2237 67.202 68.2227 66.7779 68.2217C65.6255 68.2191 64.4732 68.2179 63.3208 68.217C62.6008 68.2165 61.8807 68.2157 61.1607 68.2148C58.9076 68.2121 56.6544 68.2103 54.4013 68.2095C54.1421 68.2094 53.883 68.2094 53.6238 68.2093C53.4953 68.2092 53.3667 68.2092 53.2343 68.2091C51.1521 68.2084 49.07 68.205 46.9878 68.2005C44.8481 68.1959 42.7085 68.1936 40.5688 68.1933C39.3683 68.1931 38.1677 68.1919 36.9672 68.1885C35.8376 68.1853 34.7081 68.1849 33.5786 68.1866C33.1646 68.1867 32.7506 68.1859 32.3365 68.184C31.7702 68.1815 31.204 68.1827 30.6376 68.1847C30.4748 68.1831 30.312 68.1815 30.1442 68.1799C28.8005 68.1911 27.3834 68.3534 26.4696 69.4281ZM26.4696 81.8049C25.8069 82.7783 25.7623 83.5292 25.8895 84.6936C26.3435 85.6366 26.912 86.1253 27.8233 86.6274C28.7183 86.8786 29.6176 86.8489 30.5394 86.848C30.7159 86.8486 30.8924 86.8491 31.0742 86.8497C31.6658 86.8514 32.2574 86.8517 32.8489 86.852C33.273 86.8529 33.6971 86.8539 34.1212 86.8549C35.2736 86.8574 36.4259 86.8587 37.5783 86.8595C38.2983 86.8601 39.0184 86.8609 39.7384 86.8618C41.9916 86.8644 44.2447 86.8663 46.4979 86.867C46.757 86.8671 47.0161 86.8672 47.2753 86.8673C47.4038 86.8673 47.5324 86.8674 47.6648 86.8674C49.747 86.8682 51.8291 86.8715 53.9113 86.8761C56.051 86.8806 58.1906 86.883 60.3303 86.8833C61.5308 86.8835 62.7314 86.8846 63.9319 86.8881C65.0615 86.8913 66.191 86.8917 67.3205 86.89C67.7345 86.8898 68.1486 86.8907 68.5626 86.8926C69.1289 86.895 69.6951 86.8939 70.2615 86.8919C70.4243 86.8935 70.5871 86.895 70.7549 86.8966C71.9262 86.8869 73.2543 86.7705 74.1646 85.9599C74.9466 85.0402 75.0785 84.424 75.0633 83.2507C74.9838 82.5229 74.7229 82.1374 74.2361 81.5994C72.9826 80.6126 71.8874 80.6037 70.3597 80.6053C70.1832 80.6047 70.0067 80.6042 69.8249 80.6036C69.2333 80.6019 68.6417 80.6016 68.0502 80.6013C67.6261 80.6004 67.202 80.5994 66.7779 80.5984C65.6255 80.5959 64.4732 80.5946 63.3208 80.5937C62.6008 80.5932 61.8807 80.5924 61.1607 80.5915C58.9076 80.5889 56.6544 80.587 54.4013 80.5863C54.1421 80.5862 53.883 80.5861 53.6238 80.586C53.4953 80.586 53.3667 80.5859 53.2343 80.5859C51.1521 80.5851 49.07 80.5817 46.9878 80.5772C44.8481 80.5726 42.7085 80.5703 40.5688 80.57C39.3683 80.5698 38.1677 80.5687 36.9672 80.5652C35.8376 80.562 34.7081 80.5616 33.5786 80.5633C33.1646 80.5635 32.7506 80.5626 32.3365 80.5607C31.7702 80.5582 31.204 80.5594 30.6376 80.5614C30.4748 80.5598 30.312 80.5583 30.1442 80.5567C28.8005 80.5678 27.3834 80.7301 26.4696 81.8049Z" fill="#7FCACF"/>
<path d="M62.8263 0.183716C63.6666 0.904012 64.4542 1.59406 65.2311 2.37061C65.3278 2.46702 65.4246 2.56343 65.5242 2.66276C65.8438 2.98162 66.1628 3.30116 66.4817 3.62071C66.7124 3.85115 66.9431 4.08154 67.1739 4.3119C67.7972 4.93428 68.4198 5.55727 69.0423 6.18041C69.6943 6.83281 70.3467 7.48475 70.999 8.13676C72.0929 9.23029 73.1863 10.3242 74.2796 11.4184C75.545 12.6849 76.8112 13.9507 78.0777 15.2162C79.1654 16.3029 80.2526 17.3901 81.3395 18.4775C81.9887 19.1269 82.638 19.7763 83.2876 20.4253C83.8971 21.0342 84.5061 21.6436 85.1147 22.2534C85.3388 22.4777 85.563 22.7018 85.7874 22.9258C86.0922 23.2301 86.3964 23.535 86.7005 23.84C86.8713 24.0109 87.0421 24.1817 87.2181 24.3578C87.5798 24.7438 87.5798 24.7438 87.5798 24.9372C79.4111 24.9372 71.2425 24.9372 62.8263 24.9372C62.8263 16.7685 62.8263 8.59989 62.8263 0.183716Z" fill="#7FCACF"/>
</g>
<defs>
<clipPath id="clip0_891_1200">
<rect width="99.0138" height="99.0138" fill="white" transform="translate(0.942627 0.183838)"/>
</clipPath>
</defs>
</svg>
