<svg width="17" height="17" viewBox="0 0 17 17" fill="none" xmlns="http://www.w3.org/2000/svg">
<path d="M4.25 0.53125C4.25 0.237849 4.01215 0 3.71875 0C3.42535 0 3.1875 0.237849 3.1875 0.53125V1.0625H2.125C0.951395 1.0625 0 2.0139 0 3.1875V4.25H17V3.1875C17 2.01389 16.0486 1.0625 14.875 1.0625H13.8125V0.53125C13.8125 0.237849 13.5747 0 13.2812 0C12.9878 0 12.75 0.237849 12.75 0.53125V1.0625H4.25V0.53125Z" fill="#164878"/>
<path d="M17 14.875V5.3125H0V14.875C0 16.0486 0.951396 17 2.125 17H14.875C16.0486 17 17 16.0486 17 14.875ZM10.0938 7.4375H11.1562C11.4497 7.4375 11.6875 7.67535 11.6875 7.96875V9.03125C11.6875 9.32465 11.4497 9.5625 11.1562 9.5625H10.0938C9.80035 9.5625 9.5625 9.32465 9.5625 9.03125V7.96875C9.5625 7.67535 9.80035 7.4375 10.0938 7.4375ZM13.2812 7.4375H14.3438C14.6372 7.4375 14.875 7.67535 14.875 7.96875V9.03125C14.875 9.32465 14.6372 9.5625 14.3438 9.5625H13.2812C12.9878 9.5625 12.75 9.32465 12.75 9.03125V7.96875C12.75 7.67535 12.9878 7.4375 13.2812 7.4375ZM2.125 11.1562C2.125 10.8628 2.36285 10.625 2.65625 10.625H3.71875C4.01215 10.625 4.25 10.8628 4.25 11.1562V12.2188C4.25 12.5122 4.01215 12.75 3.71875 12.75H2.65625C2.36285 12.75 2.125 12.5122 2.125 12.2188V11.1562ZM5.84375 10.625H6.90625C7.19965 10.625 7.4375 10.8628 7.4375 11.1562V12.2188C7.4375 12.5122 7.19965 12.75 6.90625 12.75H5.84375C5.55035 12.75 5.3125 12.5122 5.3125 12.2188V11.1562C5.3125 10.8628 5.55035 10.625 5.84375 10.625Z" fill="#164878"/>
</svg>
