<svg width="100" height="100" viewBox="0 0 100 100" fill="none" xmlns="http://www.w3.org/2000/svg">
<g clip-path="url(#clip0_891_1203)">
<path d="M67.8931 29.0394C68.054 29.0384 68.2149 29.0374 68.3807 29.0364C68.9083 29.0337 69.4359 29.0339 69.9635 29.0343C70.3334 29.0336 70.7033 29.0327 71.0732 29.0318C71.8471 29.0304 72.621 29.0304 73.3949 29.0314C74.3819 29.0326 75.3689 29.0293 76.3559 29.0248C77.1196 29.0219 77.8833 29.0218 78.647 29.0224C79.0106 29.0223 79.3743 29.0213 79.7379 29.0193C83.3909 29.0021 83.3909 29.0021 85.1587 29.6727C85.3456 29.743 85.3456 29.743 85.5363 29.8148C88.3834 30.9833 90.6108 33.0955 91.8202 35.938C92.3683 37.2839 92.7323 38.6611 93.083 40.0687C93.1538 40.3473 93.2248 40.626 93.296 40.9045C93.4869 41.6537 93.6758 42.4035 93.8642 43.1533C94.0627 43.9413 94.2631 44.7287 94.4634 45.5161C94.7141 46.502 94.9646 47.488 95.2142 48.4742C95.8175 50.8571 96.4268 53.2385 97.0398 55.6189C97.1254 55.9512 97.2109 56.2835 97.2965 56.6158C97.5861 57.7407 97.8758 58.8656 98.1656 59.9905C98.3982 60.8933 98.6305 61.7961 98.8624 62.699C98.9327 62.9724 99.0031 63.2457 99.0736 63.5191C99.1699 63.8925 99.2658 64.266 99.3617 64.6396C99.4155 64.8485 99.4692 65.0574 99.5246 65.2726C99.9963 67.1974 100.324 69.653 99.3257 71.4607C99.2455 71.5829 99.1652 71.705 99.0825 71.8309C98.9561 72.0321 98.9561 72.0321 98.8272 72.2373C97.7884 73.7528 96.4525 74.7443 94.6346 75.1185C93.4416 75.2146 92.2403 75.1733 91.0449 75.1547C90.7174 75.1518 90.3899 75.1492 90.0624 75.1468C89.2658 75.1404 88.4693 75.1304 87.6727 75.1185C87.6744 75.3589 87.6761 75.5993 87.6779 75.8469C87.6936 78.1174 87.7052 80.3878 87.7128 82.6582C87.7168 83.8254 87.7223 84.9925 87.731 86.1596C87.7395 87.2869 87.7441 88.4141 87.7461 89.5414C87.7475 89.9705 87.7503 90.3996 87.7545 90.8288C87.7601 91.4319 87.7609 92.0348 87.7605 92.638C87.7633 92.8136 87.7661 92.9893 87.7689 93.1703C87.7573 95.0014 87.1466 96.4785 85.8922 97.8051C84.5834 99.0369 83.2951 99.3499 81.5616 99.3479C81.3985 99.3492 81.2355 99.3505 81.0675 99.3519C80.5306 99.3555 79.9937 99.3563 79.4568 99.3567C79.0815 99.358 78.7063 99.3593 78.331 99.3606C77.5449 99.3629 76.7588 99.3636 75.9726 99.3634C74.9691 99.3634 73.9656 99.3687 72.9621 99.3753C72.187 99.3796 71.4119 99.3804 70.6367 99.3802C70.267 99.3807 69.8972 99.3824 69.5275 99.3854C65.8506 99.4124 65.8506 99.4124 64.2729 98.5182C63.9678 98.3626 63.9678 98.3626 63.6565 98.2039C63.306 97.7447 63.306 97.7447 63.3119 97.3652C63.3441 97.138 63.3441 97.138 63.377 96.9062C63.5217 95.7021 63.543 94.5071 63.5606 93.2953C63.5646 93.0619 63.5686 92.8286 63.5728 92.5881C63.5853 91.8494 63.5968 91.1106 63.6082 90.3718C63.6165 89.8682 63.625 89.3646 63.6335 88.861C63.6541 87.6322 63.6738 86.4034 63.6928 85.1745C63.9017 85.1386 64.1106 85.1026 64.3259 85.0655C64.6046 85.0158 64.8833 84.966 65.1621 84.9162C65.3678 84.8811 65.3678 84.8811 65.5777 84.8452C67.9663 84.4129 69.6851 83.215 71.1495 81.2993C72.3695 79.4819 72.8402 77.242 72.5269 75.0795C72.4341 74.6213 72.3289 74.1677 72.2184 73.7134C72.1763 73.5345 72.1342 73.3556 72.0908 73.1713C71.409 70.3109 70.6657 67.4649 69.9308 64.6178C69.7686 63.9886 69.607 63.3592 69.4454 62.7297C68.9845 60.9345 68.5204 59.1401 68.0531 57.3465C67.9505 56.9526 67.8483 56.5586 67.7461 56.1646C67.5656 55.4706 67.3833 54.7772 67.2002 54.0839C67.1489 53.8863 67.0977 53.6886 67.0449 53.485C65.9625 49.4264 63.7486 46.9307 60.2118 44.7568C60.505 44.1344 60.8588 43.5769 61.2392 43.0042C63.2324 39.8714 64.0042 36.5347 63.2214 32.8635C63.1698 32.6501 63.1182 32.4367 63.065 32.2169C62.9246 31.6288 62.8185 31.0435 62.7258 30.4462C63.0148 30.291 63.3052 30.1385 63.5961 29.9869C63.7576 29.9016 63.9192 29.8164 64.0856 29.7286C65.3514 29.1789 66.532 29.035 67.8931 29.0394Z" fill="#61C98D"/>
<path d="M21.4665 29.0087C21.8347 29.0078 22.2028 29.0068 22.571 29.0056C23.3398 29.0039 24.1086 29.0043 24.8774 29.0063C25.8564 29.0085 26.8352 29.0046 27.8142 28.9989C28.5737 28.9954 29.3333 28.9955 30.0929 28.9966C30.4535 28.9966 30.8141 28.9954 31.1748 28.993C33.6485 28.9788 35.817 29.0789 37.9724 30.4462C37.9165 30.6895 37.8607 30.9328 37.8032 31.1835C37.7303 31.5178 37.6578 31.8522 37.5856 32.1867C37.5487 32.3498 37.5118 32.5128 37.4738 32.6808C36.7632 36.1017 37.2675 39.648 39.1327 42.6296C39.4911 43.1063 39.8567 43.5659 40.2499 44.0143C40.328 44.1317 40.406 44.2491 40.4864 44.3701C40.2407 45.1071 39.9992 45.1707 39.3382 45.5546C35.5019 47.9329 34.1335 51.3705 33.0811 55.5842C33.0054 55.8815 32.9296 56.1788 32.8536 56.4761C32.6531 57.2625 32.4547 58.0493 32.2567 58.8363C32.0522 59.6479 31.8457 60.4589 31.6394 61.27C31.3553 62.3878 31.0717 63.5057 30.789 64.6238C30.3876 66.2111 29.9828 67.7975 29.5729 69.3826C29.5263 69.5628 29.4798 69.7431 29.4318 69.9287C29.2662 70.5696 29.1005 71.2105 28.9342 71.8512C28.8276 72.2623 28.7216 72.6736 28.6158 73.0849C28.5592 73.3037 28.5026 73.5225 28.4442 73.748C27.8646 76.1988 28.0362 78.5219 29.2473 80.775C29.5934 81.3172 30.0121 81.7859 30.4303 82.2738C30.4303 82.4014 30.4303 82.5291 30.4303 82.6606C30.5982 82.7391 30.5982 82.7391 30.7695 82.8192C31.2047 83.0478 31.5708 83.311 31.9653 83.6033C33.4927 84.6342 35.2083 84.9602 37.0054 85.1746C37.0084 85.368 37.0084 85.368 37.0115 85.5654C37.0325 86.9145 37.0546 88.2636 37.0774 89.6126C37.0858 90.1153 37.0938 90.618 37.1016 91.1206C37.1129 91.8455 37.1251 92.5704 37.1376 93.2953C37.1409 93.518 37.1441 93.7406 37.1474 93.9701C37.1704 95.2377 37.2411 96.4857 37.3922 97.7447C37.1231 97.9312 36.8529 98.1162 36.5824 98.3007C36.4321 98.4039 36.2818 98.5071 36.1269 98.6134C35.0942 99.2472 34.2175 99.3486 33.0196 99.3449C32.8541 99.3459 32.6886 99.3469 32.518 99.3479C31.9719 99.3506 31.4259 99.3504 30.8798 99.35C30.499 99.3507 30.1182 99.3515 29.7374 99.3525C28.9394 99.3539 28.1414 99.3539 27.3433 99.3528C26.3231 99.3517 25.3029 99.355 24.2826 99.3595C23.4961 99.3623 22.7095 99.3625 21.9229 99.3619C21.5469 99.362 21.1709 99.363 20.7949 99.3649C20.2678 99.3673 19.7408 99.366 19.2137 99.3638C19.0598 99.3653 18.9059 99.3667 18.7474 99.3683C16.9341 99.3514 15.7302 98.6745 14.4193 97.438C13.4744 96.4045 13.0005 95.2133 13.0023 93.816C13.002 93.6506 13.0017 93.4852 13.0015 93.3147C13.0025 93.045 13.0025 93.045 13.0036 92.7697C13.0035 92.5791 13.0035 92.3885 13.0035 92.1921C13.0036 91.5622 13.0051 90.9323 13.0066 90.3023C13.007 89.8655 13.0073 89.4287 13.0075 88.9919C13.0082 87.8423 13.0101 86.6927 13.0122 85.5431C13.0142 84.37 13.0151 83.1969 13.0161 82.0237C13.0182 79.722 13.0215 77.4202 13.0255 75.1185C12.8179 75.1225 12.6102 75.1266 12.3963 75.1308C11.6189 75.1449 10.8415 75.1537 10.0641 75.161C9.72889 75.1649 9.39373 75.1701 9.0586 75.1768C5.51083 75.2463 5.51083 75.2463 4.12975 74.3449C3.89829 74.2122 3.89829 74.2122 3.66215 74.0768C2.28741 73.0662 1.39264 71.7048 0.842182 70.0904C0.476917 67.4001 1.22575 64.8477 1.90279 62.2681C2.01463 61.8303 2.12613 61.3924 2.23731 60.9544C2.53052 59.8032 2.82843 58.6532 3.12737 57.5035C3.42236 56.3655 3.71277 55.2264 4.0036 54.0873C4.51717 52.0787 5.03585 50.0713 5.55733 48.0647C5.89409 46.7678 6.22783 45.4702 6.55863 44.1718C6.76729 43.3535 6.9773 42.5355 7.18753 41.7177C7.28471 41.3383 7.38132 40.9588 7.4773 40.5791C8.48874 36.5809 9.72271 32.8827 13.4825 30.6381C16.1257 29.2254 18.5182 29.0025 21.4665 29.0087Z" fill="#61C98D"/>
<path d="M47.1809 47.2127C47.431 47.2118 47.681 47.211 47.9386 47.2102C48.4656 47.2087 48.9925 47.2088 49.5194 47.2098C50.1888 47.2109 50.8582 47.2076 51.5276 47.2032C52.1737 47.1996 52.8198 47.2003 53.466 47.2006C53.7034 47.1988 53.9407 47.197 54.1853 47.1952C56.8353 47.2093 59.2338 47.8505 61.215 49.6761C63.1461 51.7658 63.8137 54.3248 64.4656 57.0172C64.5507 57.3585 64.6361 57.6996 64.7218 58.0407C64.9456 58.9348 65.1656 59.8298 65.3848 60.7251C65.6033 61.6149 65.8253 62.5039 66.0471 63.3929C66.3497 64.6073 66.6506 65.8221 66.9493 67.0374C67.3032 68.4771 67.6625 69.9151 68.0328 71.3507C68.1415 71.7748 68.2501 72.1989 68.3587 72.6231C68.4263 72.8853 68.4945 73.1474 68.5635 73.4093C69.0784 75.3657 69.4761 77.1017 68.5275 78.9862C67.6077 80.3582 66.6326 81.0567 65.0465 81.5002C64.1648 81.5875 63.2964 81.5742 62.4116 81.5486C62.1805 81.5451 61.9494 81.5416 61.7113 81.538C61.1469 81.529 60.5828 81.5163 60.0185 81.5002C60.0204 81.764 60.0204 81.764 60.0224 82.0331C60.034 83.6946 60.0428 85.3561 60.0485 87.0177C60.0515 87.8718 60.0556 88.7259 60.0622 89.58C60.0686 90.405 60.072 91.2301 60.0735 92.0552C60.0746 92.3691 60.0767 92.683 60.0798 92.997C60.0978 94.8747 60.1025 96.3711 59.0153 97.9864C57.5102 99.4581 55.9328 99.4072 53.951 99.3945C53.662 99.395 53.3731 99.3958 53.0842 99.3968C52.4808 99.3979 51.8775 99.3963 51.2741 99.3926C50.5042 99.3882 49.7346 99.3908 48.9647 99.3954C48.3687 99.3982 47.7728 99.3973 47.1768 99.3953C46.8931 99.3948 46.6094 99.3954 46.3257 99.3972C44.5992 99.4058 43.1559 99.4042 41.8356 98.1451C41.7494 98.0209 41.6631 97.8968 41.5742 97.7689C41.485 97.6457 41.3957 97.5226 41.3038 97.3957C40.746 96.3973 40.632 95.4987 40.6359 94.3654C40.6359 94.2257 40.6358 94.0859 40.6357 93.9419C40.636 93.4836 40.639 93.0254 40.642 92.5671C40.6428 92.2479 40.6433 91.9287 40.6437 91.6095C40.6452 90.7721 40.649 89.9347 40.6533 89.0973C40.6572 88.2417 40.659 87.3861 40.6609 86.5305C40.6651 84.8538 40.6717 83.177 40.6798 81.5002C40.5376 81.5043 40.3954 81.5083 40.249 81.5125C39.5949 81.5287 38.9409 81.5387 38.2867 81.5486C38.0631 81.5551 37.8394 81.5615 37.6091 81.5682C35.9428 81.587 34.5514 81.3764 33.211 80.3316C32.0735 78.9885 31.5292 77.8586 31.5405 76.0759C31.6547 74.7764 32.0412 73.5109 32.3687 72.2517C32.451 71.9293 32.5331 71.6069 32.615 71.2844C32.8318 70.4331 33.0511 69.5825 33.2709 68.732C33.4867 67.8949 33.7 67.057 33.9136 66.2193C34.2955 64.7226 34.6818 63.2271 35.0701 61.732C35.3338 60.7149 35.5928 59.6968 35.8485 58.6776C36.0171 58.0068 36.1881 57.3366 36.3595 56.6665C36.4393 56.3522 36.5181 56.0376 36.5958 55.7228C37.3307 52.7506 38.36 50.157 41.0658 48.4531C43.0877 47.3894 44.9307 47.211 47.1809 47.2127Z" fill="#61C98D"/>
<path d="M33.5245 2.40514C34.2164 2.94387 34.8421 3.52273 35.4584 4.14562C35.5791 4.25979 35.6997 4.37397 35.824 4.4916C36.612 5.29729 37.1253 6.20797 37.634 7.20354C37.6977 7.3272 37.7614 7.45087 37.8271 7.57827C38.7042 9.37632 39.0412 11.1335 39.0119 13.126C39.0098 13.3213 39.0077 13.5166 39.0055 13.7178C38.9275 17.3673 37.4443 20.3951 34.8329 22.9381C32.1532 25.2536 28.8719 26.3307 25.3502 26.2468C21.7025 25.968 18.6659 24.4843 16.1447 21.8458C13.6802 18.92 12.8012 15.4554 13.0256 11.6877C13.391 8.326 15.1802 5.08596 17.7877 2.93167C22.5207 -0.501297 28.5629 -0.834617 33.5245 2.40514Z" fill="#61C98D"/>
<path d="M74.607 0.205486C74.8023 0.20759 74.9976 0.209693 75.1988 0.21186C78.8483 0.289896 81.8761 1.77301 84.4191 4.38444C86.7346 7.06414 87.8117 10.3455 87.7278 13.8672C87.4871 17.0156 86.3971 19.5284 84.3851 21.9373C84.2277 22.128 84.2277 22.128 84.0671 22.3225C81.8645 24.7426 78.6243 26.011 75.4183 26.2379C71.4676 26.3214 68.1385 25.073 65.2398 22.3241C62.8432 19.8302 61.638 16.6794 61.6864 13.247C61.6886 13.0425 61.6909 12.8379 61.6932 12.6272C61.7675 9.08813 63.0887 6.229 65.6266 3.75896C65.7975 3.57873 65.7975 3.57873 65.9718 3.39485C66.7771 2.60555 67.6885 2.09229 68.6845 1.58336C68.8082 1.51964 68.9319 1.45592 69.0593 1.39026C70.8573 0.513113 72.6145 0.176153 74.607 0.205486Z" fill="#61C98D"/>
<path d="M56.3441 27.9323C58.3659 29.6063 59.7544 31.8674 60.0184 34.5074C60.2204 37.4773 59.3805 40.0089 57.4802 42.2912C55.6274 44.2532 53.2574 45.1914 50.6059 45.3363C47.702 45.3397 45.3105 44.2421 43.2135 42.2874C41.4718 40.4811 40.7073 38.0576 40.6194 35.5952C40.6793 32.9411 41.6801 30.678 43.4937 28.7685C47.1056 25.341 52.3009 25.0522 56.3441 27.9323Z" fill="#61C98D"/>
</g>
<defs>
<clipPath id="clip0_891_1203">
<rect width="99.0138" height="99.0138" fill="white" transform="translate(0.842285 0.277954)"/>
</clipPath>
</defs>
</svg>
