<svg width="100" height="90" viewBox="0 0 100 90" fill="none" xmlns="http://www.w3.org/2000/svg">
<g clip-path="url(#clip0_891_1210)">
<path d="M83.2078 11.6433C83.3936 11.6382 83.5794 11.6332 83.7709 11.628C85.1219 11.6246 85.9478 11.8653 86.9653 12.7983C87.5925 13.6093 87.8125 14.1512 87.8146 15.1647C87.8155 15.3585 87.8163 15.5523 87.8172 15.7519C87.8172 15.9654 87.8172 16.1789 87.8171 16.3988C87.8178 16.6252 87.8185 16.8515 87.8193 17.0847C87.821 17.7139 87.8219 18.3432 87.8224 18.9724C87.8232 19.6507 87.825 20.3289 87.8267 21.0072C87.8306 22.6456 87.8325 24.2839 87.8342 25.9223C87.8351 26.6936 87.8361 27.4649 87.8371 28.2362C87.8404 30.7998 87.8432 33.3634 87.8446 35.927C87.845 36.5923 87.8454 37.2575 87.8457 37.9228C87.8458 38.0882 87.8459 38.2535 87.846 38.4239C87.8476 41.1036 87.8525 43.7833 87.8588 46.463C87.8652 49.2134 87.8687 51.9638 87.8693 54.7143C87.8697 56.2589 87.8714 57.8034 87.8764 59.348C87.8805 60.6632 87.8821 61.9783 87.8802 63.2935C87.8793 63.9646 87.8797 64.6356 87.8835 65.3067C87.8869 66.0342 87.8855 66.7615 87.883 67.489C87.8851 67.7012 87.8872 67.9134 87.8894 68.132C87.8776 69.5229 87.6839 70.2036 86.7061 71.21C85.7903 71.9402 85.1729 72.0773 84.0206 72.1354C83.7661 72.1492 83.5116 72.163 83.2493 72.1772C83.047 72.1879 83.047 72.1879 82.8405 72.1989C71.9388 72.7899 61.7594 75.5736 53.5774 83.1048C53.1725 83.4621 53.1725 83.4621 52.5923 83.8489C52.5613 76.6453 52.5375 69.4418 52.5232 62.2382C52.5215 61.3872 52.5198 60.5361 52.518 59.685C52.5176 59.5156 52.5173 59.3462 52.5169 59.1716C52.511 56.4308 52.5003 53.6899 52.4879 50.9491C52.4752 48.1353 52.4677 45.3215 52.465 42.5077C52.4631 40.7723 52.4573 39.0371 52.4463 37.3018C52.4391 36.1107 52.4369 34.9197 52.4387 33.7286C52.4396 33.042 52.4383 32.3557 52.431 31.6692C52.4231 30.923 52.4259 30.177 52.4296 29.4308C52.4236 29.1091 52.4236 29.1091 52.4176 28.7809C52.4539 26.0495 54.3116 24.0752 56.0733 22.1586C56.1706 22.0526 56.2679 21.9466 56.3681 21.8373C63.1555 14.5375 73.5116 11.7945 83.2078 11.6433Z" fill="#7FC5F3"/>
<path d="M35.978 16.1714C38.4192 17.4388 40.5434 19.1146 42.5362 20.9983C42.693 21.1427 42.8498 21.287 43.0114 21.4357C44.3822 22.7418 45.5898 24.2271 46.5973 25.833C46.6964 25.9846 46.7954 26.1363 46.8975 26.2925C47.2986 27.2965 47.2556 28.2197 47.2473 29.2913C47.2478 29.5245 47.2483 29.7576 47.2488 29.9979C47.2496 30.6435 47.2478 31.2891 47.2448 31.9347C47.2423 32.6315 47.2432 33.3284 47.2436 34.0252C47.2439 35.2319 47.2421 36.4387 47.2388 37.6454C47.2341 39.3902 47.2326 41.1349 47.2319 42.8797C47.2306 45.7105 47.2268 48.5414 47.2213 51.3722C47.2159 54.1219 47.2118 56.8716 47.2094 59.6213C47.2091 59.8756 47.2091 59.8756 47.2089 60.135C47.2082 60.9855 47.2074 61.8359 47.2067 62.6864C47.2007 69.7406 47.1905 76.7947 47.1775 83.8489C46.9609 83.6643 46.7445 83.4794 46.5281 83.2945C46.4076 83.1916 46.287 83.0887 46.1629 82.9827C45.7565 82.6303 45.3681 82.2609 44.9777 81.8909C37.2382 74.9727 26.7299 72.6565 16.6345 72.1997C16.4232 72.1894 16.4232 72.1894 16.2075 72.179C15.8436 72.1625 15.4795 72.1499 15.1154 72.1377C14.081 71.9953 13.3456 71.5961 12.6943 70.7833C12.5993 70.6673 12.5043 70.5514 12.4065 70.432C11.99 69.8689 11.9568 69.5113 11.9558 68.8206C11.955 68.6272 11.9543 68.4338 11.9535 68.2345C11.9537 68.0205 11.9539 67.8065 11.954 67.5859C11.9532 67.2467 11.9532 67.2467 11.9523 66.9006C11.9509 66.2709 11.9504 65.6412 11.9502 65.0115C11.9499 64.3331 11.9484 63.6548 11.9471 62.9764C11.9445 61.492 11.9433 60.0076 11.9425 58.5233C11.9419 57.5967 11.9411 56.6702 11.9402 55.7436C11.9379 53.1792 11.9359 50.6148 11.9352 48.0504C11.9352 47.8862 11.9352 47.722 11.9351 47.5528C11.9351 47.3059 11.9351 47.3059 11.935 47.054C11.9349 46.7204 11.9348 46.3869 11.9347 46.0533C11.9347 45.8878 11.9346 45.7224 11.9346 45.5519C11.9338 42.8709 11.9305 40.19 11.926 37.509C11.9214 34.7577 11.919 32.0064 11.9187 29.2551C11.9186 27.7099 11.9174 26.1646 11.9139 24.6194C11.911 23.3035 11.91 21.9877 11.9116 20.6718C11.9123 20.0003 11.9121 19.3289 11.9094 18.6574C11.907 17.9295 11.9081 17.2017 11.9101 16.4738C11.9086 16.2615 11.907 16.0492 11.9054 15.8305C11.9135 14.5808 12.0105 13.6666 12.8937 12.7092C13.0074 12.6167 13.1211 12.5242 13.2382 12.4289C13.3519 12.3339 13.4655 12.239 13.5827 12.1411C18.419 8.76663 31.3074 13.8443 35.978 16.1714Z" fill="#7FC5F3"/>
<path d="M4.0735 23.8803C4.21933 23.8809 4.36516 23.8815 4.51541 23.8822C4.66573 23.8838 4.81606 23.8854 4.97093 23.8871C5.12424 23.8879 5.27755 23.8888 5.43551 23.8897C5.81247 23.892 6.18942 23.8955 6.56637 23.8992C6.56683 24.1324 6.56729 24.3657 6.56777 24.606C6.57887 30.1483 6.59294 35.6907 6.61065 41.233C6.61283 41.9158 6.61498 42.5987 6.61712 43.2815C6.61755 43.4174 6.61797 43.5533 6.61841 43.6934C6.62525 45.8916 6.63006 48.0899 6.63412 50.2882C6.63834 52.5454 6.64478 54.8026 6.65314 57.0597C6.65777 58.3269 6.66139 59.5941 6.6626 60.8612C6.66377 62.0547 6.66764 63.2482 6.67356 64.4417C6.67525 64.8789 6.67598 65.3162 6.67563 65.7534C6.67531 66.3523 6.67856 66.951 6.68265 67.5499C6.68171 67.7213 6.68077 67.8927 6.67981 68.0692C6.7063 70.4339 7.49712 72.8746 9.12269 74.6329C11.1691 76.5357 13.4498 77.2532 16.1949 77.3299C25.5316 77.5923 35.5039 79.7475 42.3428 86.5563C41.6982 86.7712 41.4858 86.7258 40.8388 86.5775C40.651 86.5362 40.4631 86.4948 40.2696 86.4522C40.0643 86.4068 39.859 86.3614 39.6475 86.3146C31.5765 84.6589 22.8377 84.5801 14.6886 85.7828C14.5454 85.8039 14.4022 85.8249 14.2547 85.8466C11.2885 86.2853 8.32603 86.7421 5.40109 87.4073C4.17082 87.6553 3.1559 87.747 2.04596 87.1002C1.32088 86.5846 0.778339 86.0033 0.378004 85.2026C0.359168 84.8824 0.352672 84.5615 0.352047 84.2407C0.351185 84.036 0.350323 83.8313 0.349435 83.6203C0.349471 83.3936 0.349506 83.1669 0.349543 82.9334C0.348832 82.6939 0.348121 82.4545 0.347389 82.2078C0.345621 81.541 0.344731 80.8742 0.344219 80.2074C0.343465 79.489 0.341613 78.7707 0.339923 78.0524C0.336098 76.3164 0.334154 74.5804 0.332434 72.8445C0.331586 72.0273 0.330549 71.2102 0.329535 70.393C0.326245 67.6772 0.323442 64.9613 0.322042 62.2454C0.321673 61.5404 0.321301 60.8353 0.320923 60.1303C0.320829 59.955 0.320736 59.7798 0.320639 59.5992C0.319034 56.7602 0.314134 53.9212 0.307854 51.0821C0.30146 48.1685 0.297975 45.2548 0.297357 42.3411C0.296938 40.7048 0.295243 39.0684 0.290306 37.4321C0.286111 36.0385 0.28455 34.6449 0.286432 33.2513C0.287312 32.5402 0.286939 31.8292 0.28319 31.1182C0.279161 30.3472 0.281129 29.5763 0.28368 28.8052C0.281559 28.5807 0.279438 28.3562 0.277252 28.1248C0.287343 26.8646 0.399486 26.0844 1.15155 25.0595C1.49602 24.7226 1.49602 24.7226 1.8284 24.5035C1.93809 24.4282 2.04777 24.3529 2.16078 24.2754C2.78253 23.9454 3.37675 23.875 4.0735 23.8803Z" fill="#7FC5F3"/>
<path d="M93.2035 23.8992C93.7233 23.8834 94.2427 23.872 94.7627 23.863C94.9081 23.8581 95.0536 23.8532 95.2034 23.8482C96.6443 23.8295 97.7548 24.2254 98.8117 25.2529C99.5673 26.3622 99.4735 27.4856 99.4668 28.7768C99.4684 29.1372 99.4684 29.1372 99.47 29.5048C99.4723 30.1703 99.4719 30.8357 99.4705 31.5011C99.4696 32.2193 99.472 32.9375 99.474 33.6557C99.4773 35.0621 99.4775 36.4685 99.4765 37.8748C99.4757 39.0178 99.476 40.1608 99.477 41.3038C99.4772 41.4665 99.4773 41.6291 99.4774 41.7967C99.4777 42.1272 99.478 42.4576 99.4783 42.7881C99.481 45.8869 99.4799 48.9857 99.4777 52.0845C99.4758 54.9198 99.4783 57.7552 99.4829 60.5906C99.4876 63.5018 99.4895 66.4131 99.4882 69.3244C99.4875 70.9589 99.488 72.5934 99.4914 74.2279C99.4942 75.6192 99.4943 77.0104 99.491 78.4016C99.4893 79.1115 99.4889 79.8213 99.4919 80.5311C99.495 81.3005 99.4922 82.0697 99.4888 82.8391C99.4916 83.176 99.4916 83.176 99.4944 83.5196C99.4833 84.7217 99.4319 85.453 98.6183 86.363C97.6016 87.278 96.8701 87.5984 95.5194 87.5698C94.3835 87.4781 93.2776 87.2257 92.164 86.9915C91.629 86.883 91.0936 86.7766 90.558 86.6712C90.3558 86.6314 90.3558 86.6314 90.1495 86.5908C88.8201 86.3324 87.4854 86.1202 86.1449 85.9279C85.9473 85.8988 85.7498 85.8697 85.5463 85.8397C81.6126 85.2924 77.6999 85.13 73.7319 85.1423C73.4937 85.1426 73.2555 85.143 73.0101 85.1433C68.3931 85.1548 64.0207 85.4521 59.5003 86.4523C59.2185 86.5143 59.2185 86.5143 58.931 86.5776C58.6835 86.6343 58.6835 86.6343 58.4309 86.6922C58.0072 86.7498 58.0072 86.7498 57.427 86.5564C63.127 80.3135 72.9646 77.8587 81.0675 77.4344C81.6842 77.4103 82.3009 77.3894 82.9177 77.3706C85.6579 77.2846 88.279 76.8434 90.3692 74.9109C92.3112 72.8223 93.0377 70.4832 93.0407 67.6895C93.0416 67.5023 93.0426 67.3151 93.0436 67.1222C93.0466 66.4945 93.0482 65.8668 93.0498 65.2391C93.0517 64.7893 93.0536 64.3395 93.0556 63.8897C93.0608 62.668 93.0649 61.4462 93.0688 60.2245C93.0726 59.0772 93.0772 57.93 93.0819 56.7827C93.0911 54.5106 93.0995 52.2384 93.1073 49.9663C93.1149 47.7593 93.1229 45.5523 93.1315 43.3453C93.1323 43.1412 93.1323 43.1412 93.1331 42.9329C93.1357 42.2503 93.1384 41.5677 93.141 40.885C93.1631 35.2231 93.1837 29.5612 93.2035 23.8992Z" fill="#7FC5F3"/>
</g>
<defs>
<clipPath id="clip0_891_1210">
<rect width="99.0138" height="89.3445" fill="white" transform="translate(0.37793 0.112671)"/>
</clipPath>
</defs>
</svg>
