<svg width="100" height="92" viewBox="0 0 100 92" fill="none" xmlns="http://www.w3.org/2000/svg">
<path d="M60.5299 50.8225C61.225 51.418 61.8924 52.0367 62.554 52.6689C62.9509 53.0448 63.3557 53.4117 63.7607 53.7788C64.6518 54.5872 65.5171 55.4151 66.361 56.2729C66.7141 56.62 67.0792 56.9431 67.4556 57.2647C68.1111 57.8275 68.7227 58.4268 69.329 59.0415C69.9235 59.644 70.5216 60.2325 71.1662 60.7819C71.9931 61.4868 72.7465 62.2594 73.5049 63.0361C73.9225 63.4543 74.3577 63.845 74.8043 64.2319C78.0158 67.0181 80.8689 69.8486 81.2646 74.3128C81.511 78.4467 80.4774 82.1329 77.6877 85.2929C75.2871 87.721 72.3389 89.0483 68.9422 89.1976C65.7441 89.1433 62.5875 88.2408 59.505 87.4511C56.1683 86.5969 53.0343 85.9809 49.5794 85.9463C49.3744 85.9436 49.1694 85.9408 48.9582 85.938C45.8246 85.9571 42.8372 86.732 39.8376 87.5659C33.8163 89.24 33.8163 89.24 30.7243 89.1976C30.5647 89.1962 30.4052 89.1947 30.2408 89.1932C26.8236 89.103 23.9325 87.8176 21.4659 85.4387C18.5696 82.1411 17.5017 78.4476 17.7475 74.1318C18.0093 71.2187 19.4575 68.9103 21.4659 66.8736C21.5897 66.7472 21.7134 66.6208 21.8409 66.4905C23.176 65.1302 24.5089 63.7828 25.953 62.5377C26.4127 62.1338 26.8407 61.7037 27.2675 61.2654C27.8275 60.6985 28.3896 60.1507 28.9959 59.6337C29.644 59.0798 30.2467 58.4877 30.8451 57.8811C31.5587 57.1578 32.2907 56.4728 33.0638 55.8136C33.536 55.3923 33.9781 54.947 34.4228 54.4969C35.1145 53.7977 35.8185 53.1308 36.5674 52.4935C36.8122 52.2832 37.0526 52.0676 37.2881 51.8469C43.5435 46.0485 53.7728 45.6971 60.5299 50.8225Z" fill="#CF866C"/>
<path d="M69.2323 13.4989C72.0099 15.9791 73.2998 19.9433 73.6802 23.555C73.9528 29.0079 73.2442 33.7217 69.5957 37.9548C67.8728 39.8035 65.6187 40.9411 63.0802 41.0444C61.0131 40.9833 59.2501 40.2823 57.6292 39.0259C57.4377 38.8903 57.2462 38.7547 57.049 38.615C54.1159 36.0475 52.6413 31.7745 52.2506 27.9908C52.2341 27.6727 52.2217 27.3544 52.2143 27.036C52.2069 26.8901 52.1994 26.7443 52.1917 26.5941C52.0601 22.2149 53.2128 17.3446 56.2754 14.0791C59.9739 10.2158 65.2048 10.0802 69.2323 13.4989Z" fill="#CF866C"/>
<path d="M41.7495 13.1151C41.8844 13.2417 42.0192 13.3684 42.1582 13.4989C42.3754 13.7008 42.3754 13.7008 42.5971 13.9068C45.6686 17.0254 46.7884 21.8395 46.8229 26.1022C46.7572 30.5775 45.4128 35.2312 42.1582 38.4457C40.1967 40.1011 38.0196 41.1402 35.3972 41.033C32.5747 40.6811 30.4317 39.2365 28.6211 37.092C27.3502 35.3594 26.558 33.518 25.9137 31.4838C25.8477 31.2831 25.7816 31.0824 25.7135 30.8757C24.5494 26.5709 25.1009 21.3534 27.074 17.3666C27.1571 17.1888 27.2401 17.0111 27.3256 16.828C28.5717 14.3322 30.5608 12.3418 33.2141 11.3958C36.194 10.5459 39.3636 11.0738 41.7495 13.1151Z" fill="#CF866C"/>
<path d="M90.8599 32.4796C93.3819 34.6375 94.2535 37.6998 94.5297 40.8995C94.7803 45.4935 93.5219 50.5742 90.496 54.1276C88.7416 56.0626 86.8155 57.3221 84.1812 57.6576C82.0304 57.7387 80.2341 56.9054 78.6765 55.4631C77.68 54.42 77.077 53.3314 76.581 51.9829C76.5214 51.8226 76.4619 51.6624 76.4005 51.4972C74.9893 47.0882 75.9092 41.8392 77.9105 37.769C78.5114 36.6025 79.1746 35.5514 80.062 34.5782C80.207 34.4154 80.3521 34.2526 80.5016 34.0849C83.3103 31.0945 87.3329 29.9497 90.8599 32.4796Z" fill="#CF866C"/>
<path d="M16.7076 32.4553C20.4751 35.3135 22.4315 39.6644 23.0698 44.2701C23.4895 47.9255 23.1031 51.84 20.8858 54.8836C19.7866 56.2316 18.3735 57.269 16.6313 57.591C13.8433 57.8077 11.7711 57.1157 9.65199 55.3135C8.60695 54.3326 7.86375 53.2226 7.15534 51.9828C7.00278 51.7174 7.00278 51.7174 6.84713 51.4465C4.55771 47.183 3.79069 41.6116 5.18522 36.9584C5.99229 34.7097 7.14963 32.8861 9.33094 31.7619C11.8084 30.6051 14.4308 30.9858 16.7076 32.4553Z" fill="#CF866C"/>
</svg>
