<svg width="100" height="100" viewBox="0 0 100 100" fill="none" xmlns="http://www.w3.org/2000/svg">
<g clip-path="url(#clip0_891_1168)">
<path d="M55.9006 1.7284C56.3154 1.90619 56.7304 2.08354 57.1456 2.26045C57.9905 2.62088 58.8346 2.98316 59.6781 3.34688C61.2651 4.02967 62.8611 4.69023 64.4584 5.34856C65.267 5.68206 66.0748 6.01731 66.8828 6.3523C67.2044 6.48555 67.5261 6.61879 67.8477 6.75201C69.5139 7.44224 71.18 8.13265 72.8461 8.82327C73.0113 8.89175 73.1765 8.96023 73.3467 9.03079C75.7845 10.0414 78.2209 11.055 80.6565 12.0707C82.6594 12.906 84.6633 13.7389 86.6681 14.5695C87.3359 14.8462 88.0036 15.1234 88.6711 15.4009C90.1646 16.0215 91.6587 16.64 93.1575 17.2477C93.8044 17.5102 94.4504 17.7745 95.0964 18.039C95.4 18.1627 95.704 18.2856 96.0083 18.4076C96.4278 18.5757 96.8461 18.7468 97.2641 18.9186C97.6183 19.0619 97.6183 19.0619 97.9797 19.2082C98.87 19.671 99.4044 20.251 99.9564 21.0791C100.008 21.4494 100.008 21.4494 100.013 21.8722C100.016 22.1104 100.016 22.1104 100.02 22.3535C100.021 22.61 100.021 22.61 100.021 22.8717C100.023 23.0484 100.024 23.2251 100.025 23.4072C100.027 23.7813 100.028 24.1553 100.028 24.5293C100.029 25.0998 100.036 25.6701 100.043 26.2405C100.044 26.6042 100.045 26.968 100.046 27.3317C100.048 27.5016 100.051 27.6714 100.054 27.8464C100.046 28.9053 99.9115 29.5375 99.1829 30.3617C98.3591 30.9971 97.6119 31.0241 96.6082 31.0154C96.4462 31.0163 96.2841 31.0172 96.1171 31.0181C95.5716 31.0204 95.0262 31.0186 94.4807 31.0168C94.0866 31.0176 93.6926 31.0187 93.2985 31.02C92.2137 31.0228 91.1289 31.0219 90.0441 31.0205C88.8749 31.0196 87.7058 31.022 86.5366 31.024C84.3779 31.0271 82.2192 31.0276 80.0605 31.0266C78.0662 31.0258 76.072 31.0259 74.0777 31.027C73.8104 31.0271 73.543 31.0273 73.2757 31.0274C72.8728 31.0277 72.47 31.0279 72.0671 31.0281C68.321 31.0302 64.5749 31.0311 60.8288 31.0296C60.6876 31.0295 60.5463 31.0294 60.4008 31.0294C59.2536 31.0289 58.1064 31.0284 56.9592 31.0279C52.484 31.0259 48.0088 31.0276 43.5336 31.0321C38.5072 31.0371 33.4808 31.0396 28.4544 31.0382C27.9187 31.0381 27.3829 31.0379 26.8472 31.0378C26.7153 31.0378 26.5834 31.0377 26.4474 31.0377C24.4545 31.0373 22.4615 31.0388 20.4685 31.0414C18.2025 31.0442 15.9365 31.0443 13.6704 31.041C12.5137 31.0393 11.357 31.0389 10.2003 31.0419C9.14209 31.0445 8.08396 31.0436 7.02576 31.0399C6.64225 31.0391 6.25874 31.0397 5.87524 31.0417C5.35512 31.0443 4.83524 31.0421 4.31513 31.0386C4.16519 31.0405 4.01525 31.0424 3.86076 31.0443C2.86007 31.0307 2.29571 30.7965 1.52277 30.1683C0.795202 29.3184 0.85518 28.4371 0.858761 27.371C0.857747 27.1948 0.85673 27.0187 0.855686 26.8372C0.854447 26.4654 0.854703 26.0937 0.856353 25.722C0.857998 25.1549 0.852435 24.5882 0.846296 24.0211C0.845985 23.6591 0.846097 23.2972 0.846674 22.9352C0.844502 22.7665 0.842326 22.5979 0.840088 22.4241C0.852074 21.371 0.989947 20.737 1.71616 19.9188C2.18461 19.5984 2.18461 19.5984 2.72086 19.3492C3.03019 19.2052 3.03019 19.2052 3.34578 19.0582C4.50571 18.5551 5.67375 18.0756 6.84863 17.6086C7.64249 17.2928 8.43487 16.9734 9.22725 16.6539C9.39086 16.588 9.55447 16.5221 9.72303 16.4541C11.4087 15.7733 13.0837 15.0679 14.7577 14.359C17.5037 13.1968 20.256 12.0507 23.0128 10.9143C23.7695 10.6023 24.5262 10.2903 25.2829 9.9783C25.4666 9.90251 25.6504 9.82672 25.8398 9.74864C27.5542 9.04132 29.2664 8.32886 30.9779 7.6146C32.7668 6.86812 34.556 6.12242 36.3467 5.38008C36.5122 5.31144 36.6777 5.2428 36.8482 5.17208C37.6854 4.82497 38.5228 4.47851 39.3608 4.13322C40.8484 3.51947 42.3336 2.90174 43.8091 2.25941C44.4414 1.9843 45.0749 1.71208 45.7085 1.43993C46.0039 1.312 46.2986 1.18259 46.5927 1.05155C50.2517 -0.578718 52.3468 0.173363 55.9006 1.7284ZM30.7241 17.5982C30.198 18.4622 30.2115 19.3218 30.3373 20.3056C30.7615 21.1697 31.2051 21.6416 32.0778 22.0461C32.8813 22.2529 33.6458 22.2642 34.4734 22.2653C34.6154 22.2657 34.7575 22.2662 34.9038 22.2666C35.3787 22.2679 35.8536 22.2677 36.3284 22.2675C36.6693 22.2681 37.0102 22.2688 37.3511 22.2695C38.2765 22.2712 39.2019 22.2717 40.1273 22.2718C40.7056 22.2719 41.2838 22.2723 41.8621 22.2729C43.8799 22.2746 45.8978 22.2754 47.9156 22.2753C49.7959 22.2752 51.6762 22.2772 53.5565 22.2803C55.1714 22.2828 56.7864 22.2838 58.4013 22.2837C59.3656 22.2837 60.3299 22.2842 61.2941 22.2863C62.2011 22.2881 63.1081 22.2881 64.0151 22.2867C64.3476 22.2865 64.68 22.287 65.0125 22.2882C65.4672 22.2897 65.9218 22.2887 66.3765 22.2873C66.6307 22.2874 66.8849 22.2875 67.1468 22.2876C68.185 22.2169 68.9579 22.0695 69.7519 21.3813C70.5135 20.4891 70.6478 19.9981 70.6229 18.8567C70.5326 18.1412 70.2667 17.7416 69.7882 17.2114C68.7334 16.4271 67.7077 16.4136 66.4256 16.412C66.2836 16.4116 66.1416 16.4111 65.9953 16.4107C65.5204 16.4094 65.0455 16.4096 64.5706 16.4098C64.2297 16.4092 63.8888 16.4085 63.5479 16.4078C62.6225 16.4061 61.6972 16.4056 60.7718 16.4055C60.1935 16.4054 59.6152 16.405 59.0369 16.4044C57.0191 16.4027 55.0013 16.4019 52.9835 16.402C51.1032 16.4021 49.2229 16.4001 47.3425 16.397C45.7276 16.3945 44.1127 16.3935 42.4977 16.3936C41.5334 16.3937 40.5692 16.3931 39.6049 16.3911C38.6979 16.3892 37.7909 16.3892 36.884 16.3906C36.5515 16.3908 36.219 16.3903 35.8865 16.3891C35.4318 16.3877 34.9772 16.3886 34.5225 16.39C34.2683 16.3899 34.0141 16.3898 33.7523 16.3897C32.5302 16.4729 31.6111 16.7365 30.7241 17.5982Z" fill="#B4CE61"/>
<path d="M5.09225 86.3442C5.25263 86.3428 5.413 86.3415 5.57824 86.3401C6.11572 86.3365 6.65303 86.3384 7.19051 86.3403C7.57971 86.3388 7.96891 86.337 8.3581 86.335C9.42769 86.3302 10.4972 86.3303 11.5668 86.3312C12.7203 86.3314 13.8738 86.3271 15.0273 86.3235C17.2871 86.317 19.5469 86.3149 21.8068 86.3145C23.6433 86.3141 25.4799 86.3125 27.3164 86.3101C27.8451 86.3094 28.3739 86.3087 28.9026 86.308C29.0998 86.3077 29.0998 86.3077 29.3009 86.3075C32.9978 86.3027 36.6947 86.2997 40.3917 86.3C40.531 86.3 40.6704 86.3 40.814 86.3C41.5203 86.3001 42.2267 86.3002 42.933 86.3003C43.1434 86.3003 43.1434 86.3003 43.3581 86.3003C43.6418 86.3003 43.9255 86.3004 44.2092 86.3004C48.6235 86.3009 53.0377 86.2951 57.452 86.2845C62.4117 86.2726 67.3715 86.266 72.3312 86.2667C72.8601 86.2667 73.3889 86.2668 73.9178 86.2668C74.048 86.2668 74.1782 86.2668 74.3124 86.2668C76.4077 86.2668 78.503 86.2619 80.5984 86.2552C82.7042 86.2487 84.8099 86.2481 86.9157 86.253C88.0565 86.2555 89.1971 86.2556 90.3379 86.2489C91.3822 86.2428 92.4263 86.2439 93.4706 86.2506C93.8484 86.2518 94.2262 86.2504 94.6039 86.2461C97.7769 86.2124 97.7769 86.2124 98.9117 87.1809C99.6028 87.928 100.002 88.5891 100.013 89.6148C100.016 89.8647 100.016 89.8647 100.02 90.1195C100.021 90.3873 100.021 90.3873 100.021 90.6604C100.023 90.8455 100.024 91.0305 100.025 91.2211C100.027 91.6122 100.028 92.0033 100.028 92.3944C100.029 92.9912 100.036 93.5877 100.043 94.1844C100.044 94.5649 100.045 94.9454 100.046 95.3259C100.048 95.5036 100.051 95.6813 100.054 95.8644C100.046 96.9426 99.9302 97.5967 99.1829 98.4337C98.3588 99.0687 97.6121 99.0961 96.6083 99.0874C96.4462 99.0883 96.2842 99.0892 96.1172 99.0901C95.5717 99.0924 95.0263 99.0906 94.4807 99.0888C94.0867 99.0896 93.6926 99.0907 93.2986 99.0919C92.2138 99.0948 91.129 99.0939 90.0442 99.0925C88.875 99.0916 87.7058 99.094 86.5367 99.096C84.378 99.0991 82.2192 99.0996 80.0605 99.0986C78.0663 99.0977 76.072 99.0979 74.0778 99.099C73.8104 99.0991 73.5431 99.0993 73.2757 99.0994C72.8729 99.0996 72.4701 99.0999 72.0672 99.1001C68.3211 99.1022 64.575 99.1031 60.8289 99.1015C60.6876 99.1015 60.5464 99.1014 60.4008 99.1014C59.2537 99.1009 58.1065 99.1004 56.9593 99.0999C52.4841 99.0979 48.0088 99.0995 43.5336 99.104C38.5072 99.1091 33.4809 99.1116 28.4545 99.1102C27.9187 99.1101 27.383 99.1099 26.8473 99.1098C26.7153 99.1098 26.5834 99.1097 26.4475 99.1097C24.4545 99.1093 22.4615 99.1108 20.4686 99.1133C18.2025 99.1162 15.9365 99.1163 13.6705 99.1129C12.5138 99.1113 11.3571 99.1109 10.2003 99.1138C9.14214 99.1165 8.08401 99.1156 7.02582 99.1119C6.64231 99.1111 6.2588 99.1117 5.87529 99.1137C5.35518 99.1162 4.83529 99.114 4.31519 99.1106C4.09028 99.1134 4.09028 99.1134 3.86082 99.1163C2.8601 99.1027 2.29592 98.8683 1.52283 98.2403C0.781557 97.3816 0.849177 96.4528 0.845218 95.372C0.843287 95.1881 0.841356 95.0043 0.839367 94.8149C0.836435 94.4266 0.835068 94.0383 0.835162 93.6499C0.833895 93.059 0.823362 92.4686 0.812358 91.8778C0.810655 91.4994 0.809504 91.1211 0.808958 90.7428C0.804789 90.5677 0.800621 90.3926 0.796326 90.2121C0.808185 89.1018 1.03976 88.4387 1.72167 87.5617C2.79478 86.5924 3.68904 86.3291 5.09225 86.3442Z" fill="#B4CE61"/>
<path d="M75.9766 37C80.8267 37 85.6768 37 90.6739 37C90.6739 46.8917 90.6739 56.7834 90.6739 66.9749C85.8238 66.9749 80.9737 66.9749 75.9766 66.9749C75.9766 57.0832 75.9766 47.1915 75.9766 37Z" fill="#B4CE61"/>
<path d="M10.2252 36.7433C15.0753 36.7433 19.9255 36.7433 24.9226 36.7433C24.9226 46.635 24.9226 56.5267 24.9226 66.7182C20.0725 66.7182 15.2223 66.7182 10.2252 66.7182C10.2252 56.8265 10.2252 46.9347 10.2252 36.7433Z" fill="#B4CE61"/>
<path d="M51.6099 40.6111C52.4986 41.0321 52.9224 41.4771 53.3504 42.3516C53.3814 42.962 53.3814 42.962 53.3625 43.6086C53.379 44.2731 53.379 44.2731 53.5438 44.8656C53.9823 45.2384 54.3931 45.3941 54.93 45.5976C56.6315 46.3275 57.7864 47.8842 58.5718 49.5069C58.6374 49.639 58.7029 49.7711 58.7705 49.9072C59.1621 50.8564 59.2155 51.8131 59.2366 52.8307C59.2431 53.0273 59.2431 53.0273 59.2497 53.2278C59.2452 54.2053 59.0056 54.761 58.3784 55.5019C57.3685 56.2863 56.3182 56.2317 55.0909 56.082C54.1926 55.6565 53.8012 55.2099 53.3504 54.3415C53.2485 53.9256 53.1603 53.506 53.0845 53.0845C52.859 52.03 52.6801 51.49 51.8033 50.8606C51.0898 50.5038 50.2631 50.5995 49.4827 50.6672C48.8697 50.915 48.5973 51.1545 48.1652 51.6462C47.7563 52.6577 47.7563 53.7048 48.1652 54.7162C49.0381 55.7095 49.9923 55.8042 51.2352 55.9491C53.7658 56.3032 55.6768 57.2591 57.4115 59.1762C58.6721 60.8712 59.2649 62.6317 59.2487 64.7361C59.2476 64.9046 59.2465 65.0732 59.2453 65.2469C59.1777 67.7132 58.2056 69.553 56.5118 71.3029C55.8579 71.9106 55.2723 72.2152 54.4382 72.5319C53.9281 72.7393 53.9281 72.7393 53.5438 73.1C53.387 73.7528 53.3746 74.3431 53.3731 75.0135C53.3411 75.8599 53.1526 76.1666 52.5768 76.7744C51.5242 77.5262 50.5429 77.5074 49.2893 77.3545C48.4006 76.9336 47.9768 76.4886 47.5488 75.614C47.5178 75.0037 47.5178 75.0037 47.5367 74.357C47.5202 73.6925 47.5202 73.6925 47.3554 73.1C46.9169 72.7272 46.5061 72.5715 45.9692 72.368C44.2677 71.6381 43.1128 70.0814 42.3274 68.4587C42.229 68.2606 42.229 68.2606 42.1287 68.0584C41.7371 67.1092 41.6837 66.1525 41.6626 65.1349C41.6583 65.0039 41.6539 64.8728 41.6495 64.7378C41.654 63.7603 41.8936 63.2046 42.5208 62.4638C43.5307 61.6793 44.581 61.7339 45.8083 61.8836C46.7066 62.3091 47.098 62.7557 47.5488 63.6241C47.6507 64.04 47.7389 64.4596 47.8147 64.8811C48.0402 65.9356 48.2191 66.4756 49.0959 67.105C49.8094 67.4618 50.6361 67.3661 51.4165 67.2984C52.0295 67.0506 52.3019 66.8111 52.734 66.3194C53.1429 65.3079 53.1429 64.2609 52.734 63.2494C51.9627 62.3718 51.1992 62.1999 50.0628 62.1012C47.3822 61.8041 45.0959 60.73 43.3744 58.6142C41.7753 56.2465 41.4967 54.0376 41.7472 51.2474C42.2329 49.0781 43.5489 47.0674 45.4215 45.8325C45.7676 45.6983 46.1141 45.5654 46.461 45.4337C46.9711 45.2263 46.9711 45.2263 47.3554 44.8656C47.5122 44.2128 47.5246 43.6225 47.5261 42.9521C47.5581 42.1057 47.7466 41.799 48.3223 41.1913C49.375 40.4394 50.3563 40.4582 51.6099 40.6111Z" fill="#B4CE61"/>
<path d="M75.7724 72.4857C75.9517 72.4844 76.1309 72.4831 76.3156 72.4818C76.9107 72.478 77.5057 72.4757 78.1008 72.4738C78.3038 72.473 78.5068 72.4722 78.716 72.4714C79.7907 72.4674 80.8653 72.4646 81.94 72.4628C83.0503 72.4607 84.1605 72.454 85.2708 72.4463C86.1242 72.4413 86.9776 72.4397 87.831 72.439C88.2402 72.438 88.6495 72.4358 89.0587 72.4322C89.6319 72.4275 90.2048 72.4277 90.778 72.429C90.9468 72.4265 91.1156 72.4241 91.2895 72.4215C92.3397 72.4305 92.9327 72.598 93.7681 73.2934C95.6434 75.4274 94.5416 78.5107 94.5416 81.2223C87.1388 81.2223 79.736 81.2223 72.1088 81.2223C72.1088 74.6472 72.1088 74.6472 72.689 73.4868C73.7265 72.5505 74.4104 72.4898 75.7724 72.4857Z" fill="#B4CE61"/>
<path d="M10.021 72.4857C10.2003 72.4844 10.3795 72.4831 10.5642 72.4818C11.1593 72.478 11.7543 72.4757 12.3494 72.4738C12.5524 72.473 12.7554 72.4722 12.9646 72.4714C14.0393 72.4674 15.1139 72.4646 16.1886 72.4628C17.2989 72.4607 18.4091 72.454 19.5194 72.4463C20.3728 72.4413 21.2261 72.4397 22.0796 72.439C22.4888 72.438 22.8981 72.4358 23.3073 72.4322C23.8805 72.4275 24.4534 72.4277 25.0266 72.429C25.1954 72.4265 25.3642 72.4241 25.5381 72.4215C26.5883 72.4305 27.1813 72.598 28.0167 73.2934C29.892 75.4274 28.7902 78.5107 28.7902 81.2223C21.3874 81.2223 13.9846 81.2223 6.35742 81.2223C6.35742 74.6472 6.35742 74.6472 6.93758 73.4868C7.97514 72.5505 8.65903 72.4898 10.021 72.4857Z" fill="#B4CE61"/>
</g>
<defs>
<clipPath id="clip0_891_1168">
<rect width="99.0138" height="99.0138" fill="white" transform="translate(0.942627)"/>
</clipPath>
</defs>
</svg>
