<svg width="100" height="93" viewBox="0 0 100 93" fill="none" xmlns="http://www.w3.org/2000/svg">
<g clip-path="url(#clip0_891_1176)">
<path d="M50.1557 26.7815C51.7726 27.5184 53.1013 28.9122 54.447 30.0571C55.2078 30.7032 55.9813 31.3305 56.7633 31.9508C57.9077 32.8679 59.0349 33.8064 60.1658 34.74C60.7218 35.1987 61.2781 35.657 61.8346 36.1151C62.1069 36.3392 62.3791 36.5634 62.6513 36.7877C63.3455 37.3596 64.0401 37.931 64.7352 38.5018C66.0022 39.5425 67.2665 40.5856 68.5153 41.6481C69.3563 42.3634 70.2089 43.0612 71.0739 43.7474C72.2183 44.6645 73.3455 45.6029 74.4764 46.5366C75.0323 46.9953 75.5887 47.4535 76.1452 47.9116C76.4174 48.1358 76.6897 48.36 76.9619 48.5842C77.6561 49.1561 78.3507 49.7276 79.0458 50.2983C82.3864 53.0425 82.3864 53.0425 83.675 54.1818C84.0032 54.4534 84.0032 54.4534 84.4306 54.6753C85.2093 55.1483 85.6651 55.506 85.8998 56.4084C85.9605 57.2087 85.9655 57.9928 85.9517 58.7944C85.9528 59.1008 85.9547 59.4071 85.9572 59.7135C85.9618 60.5431 85.9556 61.3723 85.9471 62.2019C85.9398 63.0715 85.9417 63.9411 85.9423 64.8106C85.9419 66.271 85.9347 67.7313 85.9232 69.1916C85.91 70.8778 85.9063 72.5637 85.9079 74.2499C85.9094 75.8744 85.9053 77.4989 85.8983 79.1235C85.8954 79.8136 85.8941 80.5038 85.8942 81.1939C85.894 82.0075 85.8889 82.8209 85.88 83.6344C85.8775 83.9322 85.8766 84.23 85.8775 84.5278C85.8841 87.4528 85.8841 87.4528 84.7719 88.6651C83.868 89.5238 83.0249 89.8744 81.782 89.872C81.4676 89.8728 81.4676 89.8728 81.1468 89.8736C80.9188 89.8722 80.6909 89.8708 80.456 89.8694C80.0936 89.8694 80.0936 89.8694 79.7239 89.8695C79.0631 89.8693 78.4023 89.8674 77.7415 89.8647C77.0504 89.8622 76.3592 89.862 75.668 89.8616C74.3599 89.8604 73.0517 89.8572 71.7436 89.8533C69.9754 89.8482 68.2073 89.8461 66.4391 89.8438C63.6542 89.8402 60.8694 89.8325 58.0846 89.8255C58.0846 82.0397 58.0846 74.254 58.0846 66.2323C52.9792 66.2323 47.8738 66.2323 42.6137 66.2323C42.6137 74.018 42.6137 81.8038 42.6137 89.8255C36.4685 89.8566 36.4685 89.8566 33.8901 89.8632C32.111 89.8678 30.3319 89.8732 28.5527 89.8838C27.2569 89.8915 25.9611 89.8965 24.6653 89.8982C23.9795 89.8992 23.2938 89.9016 22.608 89.9072C21.8414 89.9135 21.0748 89.9136 20.3081 89.9133C19.9693 89.9174 19.9693 89.9174 19.6236 89.9217C18.2232 89.9146 17.0665 89.771 16.0198 88.772C15.1766 87.8083 14.9122 87.1203 14.896 85.85C14.8939 85.7229 14.8918 85.5958 14.8896 85.4649C14.8831 85.0393 14.8793 84.6137 14.8756 84.1881C14.8716 83.8828 14.8675 83.5775 14.8632 83.2722C14.8501 82.2695 14.8413 81.2669 14.8332 80.2642C14.8311 80.008 14.8312 80.008 14.829 79.7466C14.816 78.1346 14.8048 76.5226 14.7974 74.9105C14.7878 72.8516 14.7699 70.7931 14.7405 68.7343C14.7206 67.2851 14.7103 65.8359 14.7071 64.3866C14.705 63.5217 14.6986 62.6574 14.6818 61.7926C14.6661 60.978 14.6626 60.1641 14.668 59.3493C14.6679 59.0517 14.6636 58.7541 14.6545 58.4567C14.5916 56.276 14.5916 56.276 15.2081 55.4604C15.8897 54.7559 16.6638 54.2096 17.4734 53.6622C17.7228 53.4673 17.9708 53.2707 18.216 53.0707C18.4137 52.9189 18.6114 52.7671 18.815 52.6107C19.8757 51.7882 20.9 50.9307 21.915 50.0528C22.7426 49.3372 23.5824 48.639 24.4316 47.949C25.1524 47.3624 25.8696 46.7716 26.5868 46.1806C26.8713 45.9461 27.1558 45.7117 27.4404 45.4773C27.5833 45.3595 27.7262 45.2418 27.8734 45.1204C28.4284 44.6631 28.9835 44.206 29.5386 43.7489C29.8111 43.5246 30.0834 43.3002 30.3558 43.0758C31.05 42.5039 31.7446 41.9325 32.4397 41.3618C33.7067 40.321 34.9709 39.2779 36.2198 38.2155C37.0608 37.5001 37.9134 36.8023 38.7784 36.1162C39.9228 35.1991 41.0499 34.2606 42.1809 33.327C42.8726 32.7562 43.565 32.1862 44.2574 31.6162C45.1067 30.9169 45.9559 30.2174 46.8047 29.5176C46.9529 29.3955 47.1011 29.2733 47.2538 29.1475C47.5366 28.9143 47.8194 28.6812 48.1021 28.4479C48.7826 27.8872 49.4654 27.33 50.1557 26.7815Z" fill="#60A0E0"/>
<path d="M54.5892 12.0502C55.2066 12.4872 55.7844 12.9563 56.3561 13.45C56.5775 13.6391 56.7988 13.8283 57.0202 14.0173C57.1323 14.1135 57.2444 14.2097 57.36 14.3088C57.898 14.7698 58.4383 15.2282 58.9789 15.6861C59.0835 15.7747 59.1881 15.8633 59.2959 15.9547C60.1211 16.6525 60.957 17.3366 61.7951 18.0188C62.5092 18.6059 63.2134 19.2044 63.9179 19.8031C64.5786 20.3636 65.2447 20.9165 65.9167 21.4635C66.7378 22.132 67.55 22.8101 68.3582 23.494C68.4682 23.5871 68.5783 23.6803 68.6917 23.7762C69.4681 24.4348 69.4681 24.4348 69.6877 24.6544C69.6884 24.5043 69.6891 24.3542 69.6899 24.1996C69.6972 22.7827 69.7082 21.3658 69.7233 19.9489C69.7309 19.2206 69.7371 18.4922 69.7401 17.7638C69.7431 17.0603 69.7497 16.357 69.7589 15.6535C69.7618 15.3857 69.7633 15.1178 69.7635 14.85C69.7667 12.2317 69.7667 12.2317 70.6546 11.3107C71.2103 11.0328 71.6916 11.0881 72.3126 11.0831C72.4432 11.0818 72.5737 11.0805 72.7082 11.0792C73.1409 11.0754 73.5737 11.0732 74.0064 11.0712C74.1542 11.0704 74.302 11.0697 74.4543 11.0688C75.2366 11.0648 76.0188 11.062 76.8011 11.0602C77.6088 11.0581 78.4164 11.0514 79.2241 11.0438C79.8454 11.0387 80.4667 11.0371 81.088 11.0364C81.3857 11.0354 81.6834 11.0332 81.981 11.0296C82.3982 11.0249 82.815 11.0251 83.2322 11.0264C83.5879 11.0247 83.5879 11.0247 83.9509 11.023C84.6967 11.1351 85.0135 11.3669 85.5454 11.8909C85.7953 12.3906 85.7626 12.7481 85.762 13.3079C85.7624 13.6358 85.7624 13.6358 85.7628 13.9703C85.7621 14.2112 85.7615 14.4521 85.7607 14.7003C85.7608 14.9531 85.7608 15.206 85.7608 15.4664C85.7609 16.1608 85.7597 16.8552 85.7584 17.5496C85.7572 18.2748 85.7571 19.0001 85.7568 19.7254C85.7562 21.0992 85.7547 22.4731 85.7527 23.847C85.7506 25.4109 85.7495 26.9748 85.7485 28.5387C85.7465 31.7563 85.7431 34.9738 85.7388 38.1914C85.8542 38.2452 85.9696 38.2991 86.0885 38.3545C86.7287 38.6924 87.2411 39.1784 87.7814 39.6539C88.0245 39.8651 88.2678 40.0761 88.5112 40.2869C88.6313 40.3911 88.7513 40.4952 88.8751 40.6025C89.6848 41.2986 90.5175 41.9671 91.347 42.6393C92.5929 43.6517 93.8277 44.6753 95.0508 45.7151C95.7319 46.293 96.4193 46.862 97.1123 47.4256C99.7945 49.613 99.7945 49.613 99.9157 50.3521C99.993 51.6969 99.5659 52.2954 98.6957 53.2755C98.5251 53.4778 98.3552 53.6805 98.1858 53.8836C97.8181 54.3239 97.4471 54.7609 97.073 55.1958C96.7794 55.5381 96.4973 55.8814 96.2209 56.2383C95.584 57.0567 95.0922 57.4003 94.0544 57.53C93.1715 57.309 92.6031 56.9698 91.9151 56.3818C91.7313 56.2265 91.5476 56.0712 91.3583 55.9112C91.1612 55.7417 90.964 55.5723 90.7668 55.4028C90.4545 55.1377 90.1416 54.8732 89.8287 54.6088C89.615 54.4281 89.4016 54.2472 89.1883 54.0661C88.5276 53.5053 87.8613 52.9524 87.1892 52.4053C86.2987 51.6805 85.4216 50.9414 84.5467 50.198C83.886 49.6375 83.2199 49.0846 82.5479 48.5376C81.6575 47.8128 80.7803 47.0737 79.9055 46.3302C79.2448 45.7697 78.5786 45.2168 77.9066 44.6698C77.0162 43.9451 76.139 43.2059 75.2642 42.4625C74.6035 41.902 73.9374 41.3491 73.2654 40.8021C72.3749 40.0773 71.4978 39.3382 70.6229 38.5948C69.9622 38.0343 69.2961 37.4814 68.6241 36.9344C67.7336 36.2096 66.8565 35.4705 65.9816 34.7271C65.3209 34.1666 64.6548 33.6136 63.9828 33.0667C63.0924 32.3419 62.2152 31.6028 61.3404 30.8593C60.6797 30.2988 60.0136 29.7459 59.3415 29.1989C58.4511 28.4741 57.574 27.735 56.6991 26.9916C55.8698 26.2881 55.0298 25.5984 54.1851 24.9135C53.7784 24.578 53.3776 24.2389 52.9794 23.8937C52.8676 23.7972 52.7558 23.7007 52.6406 23.6013C52.4239 23.4138 52.208 23.2252 51.9932 23.0355C51.4104 22.5324 50.8903 22.1841 50.1557 21.9469C49.9989 22.0803 49.8421 22.2137 49.6805 22.3511C48.6529 23.2237 47.6237 24.0934 46.578 24.9444C45.7968 25.5803 45.025 26.226 44.2574 26.8783C43.3196 27.6752 42.3716 28.4582 41.417 29.2352C40.8116 29.733 40.2134 30.2385 39.6161 30.746C38.6783 31.543 37.7303 32.326 36.7758 33.1029C36.1704 33.6007 35.5721 34.1062 34.9749 34.6138C34.037 35.4107 33.089 36.1937 32.1345 36.9706C31.5291 37.4684 30.9308 37.974 30.3336 38.4815C29.3957 39.2784 28.4478 40.0614 27.4932 40.8384C26.8878 41.3361 26.2895 41.8417 25.6923 42.3492C24.7545 43.1462 23.8065 43.9292 22.852 44.7061C22.2466 45.2039 21.6483 45.7094 21.051 46.2169C20.1132 47.0139 19.1652 47.7969 18.2107 48.5738C17.6053 49.0716 17.007 49.5772 16.4098 50.0847C15.4719 50.8816 14.5239 51.6646 13.5694 52.4416C12.964 52.9393 12.3658 53.4449 11.7685 53.9524C10.9659 54.6331 10.1618 55.3118 9.35116 55.9829C9.18763 56.1186 9.0241 56.2542 8.85561 56.3939C8.02297 57.0344 7.32669 57.4864 6.25698 57.53C5.16905 57.1207 4.5835 56.4546 3.86382 55.5841C3.75482 55.4552 3.64582 55.3262 3.53352 55.1934C3.21408 54.8139 2.89776 54.4321 2.58264 54.0491C2.45261 53.8915 2.45261 53.8915 2.31994 53.7307C0.740531 51.8082 0.740531 51.8082 0.766621 50.445C0.994251 49.0678 2.5214 48.1794 3.53824 47.3682C4.16411 46.8662 4.77622 46.3505 5.38674 45.8302C6.32445 45.0331 7.27257 44.2502 8.22711 43.4733C8.8325 42.9755 9.43079 42.4699 10.028 41.9624C10.9659 41.1655 11.9138 40.3825 12.8684 39.6055C13.4738 39.1078 14.0721 38.6022 14.6693 38.0947C15.6071 37.2978 16.5551 36.5148 17.5097 35.7378C18.115 35.24 18.7133 34.7345 19.3106 34.227C20.2484 33.43 21.1964 32.647 22.1509 31.8701C22.7563 31.3723 23.3546 30.8668 23.9518 30.3593C24.8897 29.5623 25.8377 28.7793 26.7922 28.0024C27.3976 27.5046 27.9959 26.999 28.5931 26.4915C29.531 25.6946 30.4789 24.9116 31.4335 24.1346C32.0389 23.6369 32.6371 23.1313 33.2344 22.6238C34.1722 21.8268 35.1202 21.0438 36.0747 20.2669C36.6801 19.7691 37.2784 19.2636 37.8757 18.7561C38.8139 17.9588 39.7621 17.1752 40.7175 16.3984C41.2083 15.9945 41.6927 15.5845 42.1757 15.1713C45.8082 12.0683 49.8328 9.08464 54.5892 12.0502Z" fill="#60A0E0"/>
</g>
<defs>
<clipPath id="clip0_891_1176">
<rect width="99.0138" height="91.4717" fill="white" transform="translate(0.842285 0.867676)"/>
</clipPath>
</defs>
</svg>
