<svg width="100" height="85" viewBox="0 0 100 85" fill="none" xmlns="http://www.w3.org/2000/svg">
<g clip-path="url(#clip0_891_1179)">
<path d="M48.5312 16.013C49.0878 16.647 49.4739 17.2609 49.8215 18.0277C49.9639 18.3385 49.9639 18.3385 50.1091 18.6555C50.2614 18.9928 50.2614 18.9928 50.4167 19.3368C50.5834 19.7016 50.7507 20.0662 50.9179 20.4308C51.0357 20.6876 51.1534 20.9445 51.2709 21.2015C51.8828 22.5387 52.5085 23.8692 53.1359 25.1991C53.3312 25.6131 53.5263 26.0272 53.7214 26.4414C54.1184 27.2843 54.5157 28.1271 54.913 28.9699C55.8853 31.0324 56.857 33.0951 57.826 35.1591C57.9455 35.4136 58.065 35.6681 58.1845 35.9226C63.2407 46.6859 66.3886 56.7429 62.1763 68.4388C60.1878 73.597 56.9657 78.6792 52.5923 82.1511C52.4458 82.2708 52.2992 82.3904 52.1482 82.5137C50.9364 83.4399 49.8331 83.8322 48.3378 84.085C48.1205 84.1244 47.9031 84.1638 47.6791 84.2043C39.0355 85.5299 30.0927 83.275 23.0103 78.2023C21.8698 77.362 20.8193 76.459 19.8078 75.4669C19.5076 75.1739 19.2026 74.8866 18.897 74.5992C17.7997 73.5525 16.7986 72.4701 15.8973 71.249C15.8201 71.1447 15.7429 71.0404 15.6634 70.933C14.0773 68.7066 12.8135 66.3024 11.6428 63.8399C11.5081 63.5593 11.3734 63.2787 11.2386 62.9982C10.2041 60.8408 9.19513 58.6719 8.19279 56.4995C7.43516 54.8602 6.66218 53.2283 5.88953 51.5961C4.76951 49.2293 3.65228 46.8613 2.55914 44.4819C2.1459 43.5833 1.73213 42.6883 1.27621 41.8104C0.50607 40.3162 0.0132625 38.9823 0.378018 37.2855C0.674511 36.6645 1.0536 36.2221 1.53834 35.7384C1.63855 35.6285 1.73876 35.5185 1.84201 35.4053C2.80779 34.3812 3.91522 33.5129 5.01929 32.6442C5.14163 32.5478 5.26397 32.4514 5.39001 32.3521C10.1446 28.6232 15.2862 25.6809 20.6836 22.9749C20.8503 22.8912 21.0169 22.8074 21.1887 22.7212C27.938 19.3583 35.2342 16.7381 42.6934 15.5537C42.8975 15.5212 43.1016 15.4887 43.3119 15.4552C47.0622 14.9037 47.0622 14.9037 48.5312 16.013ZM39.0553 37.2855C37.4773 39.4015 37.4773 39.4015 36.928 41.9147C37.0785 42.8476 37.585 43.442 38.2817 44.054C39.0418 44.5022 39.7306 44.5325 40.6024 44.4408C41.5732 43.9268 42.2086 43.2864 42.744 42.3286C43.3233 41.3048 43.9089 40.5771 45.0503 40.1863C46.1584 40.0685 47.2181 40.1249 48.3137 40.3192C49.1268 40.4006 49.5625 40.1935 50.2717 39.7995C51.1135 39.0675 51.3991 38.6479 51.4925 37.5272C51.4763 36.6461 51.2337 36.0204 50.6585 35.3516C47.2586 32.8851 41.6818 34.2485 39.0553 37.2855ZM18.5563 46.3746C18.4058 46.4881 18.2552 46.6015 18.1001 46.7184C16.6885 47.8765 15.289 49.5878 15.0104 51.4503C14.9917 52.4999 15.1278 53.1007 15.8489 53.9167C16.6523 54.6266 17.2842 54.8189 18.3297 54.7628C19.1634 54.6188 19.6802 54.2303 20.1752 53.5549C20.5288 52.9998 20.8405 52.4522 21.1066 51.8499C21.7915 50.9761 22.8351 50.5054 23.9273 50.3685C24.6475 50.3611 25.2189 50.4004 25.905 50.6291C26.9218 50.7059 27.5606 50.6088 28.419 50.049C29.0209 49.4605 29.3397 49.0448 29.5794 48.236C29.5794 47.1504 29.3277 46.3453 28.5883 45.5407C25.4686 43.7095 21.3879 44.2411 18.5563 46.3746ZM48.053 54.8134C47.5198 55.4759 47.1879 56.192 46.8391 56.9625C46.1762 58.3518 45.3961 59.4222 44.2767 60.4919C44.1583 60.614 44.0399 60.7362 43.9179 60.862C41.4802 63.2218 38.2818 63.8612 35.0107 63.85C33.8187 63.8248 32.7502 63.676 31.6046 63.3315C30.5441 63.0383 29.713 63.0297 28.7333 63.5377C28.0795 64.0981 27.7244 64.5095 27.4521 65.3265C27.3755 66.3416 27.4781 66.9806 28.0323 67.8405C29.0594 68.7813 30.1915 69.0419 31.5132 69.3876C31.6807 69.432 31.8483 69.4764 32.0209 69.5221C36.7202 70.5648 41.6489 69.3411 45.6667 66.8373C48.6172 64.8987 50.7127 62.3723 52.3143 59.2469C52.3791 59.1212 52.4439 58.9955 52.5106 58.866C52.9641 57.9353 53.2656 57.0355 53.1053 55.9941C52.7384 55.0358 52.3285 54.4749 51.432 53.9167C50.1143 53.4855 49.012 53.7908 48.053 54.8134Z" fill="#C370E5"/>
<path d="M71.6607 0.480971C72.2165 0.481863 72.7722 0.480542 73.3279 0.477006C93.4234 0.350556 93.4234 0.350556 98.5837 4.7071C99.3378 5.58329 99.4162 6.31013 99.419 7.42867C99.4195 7.55924 99.4201 7.68982 99.4207 7.82435C99.4224 8.26295 99.4227 8.70155 99.423 9.14016C99.4239 9.45437 99.4248 9.76857 99.4259 10.0828C99.4284 10.938 99.4297 11.7933 99.4305 12.6485C99.4311 13.1841 99.4319 13.7197 99.4328 14.2553C99.4354 15.9346 99.4373 17.6138 99.438 19.2931C99.4389 21.2245 99.4423 23.1558 99.4479 25.0872C99.4521 26.5836 99.454 28.08 99.4543 29.5764C99.4545 30.4682 99.4556 31.3598 99.4591 32.2516C99.4623 33.0935 99.4627 33.9354 99.461 34.7773C99.4608 35.0832 99.4616 35.3892 99.4636 35.6951C99.481 38.6242 99.1352 41.5304 98.2919 44.344C98.2428 44.511 98.1936 44.6779 98.143 44.8499C96.7315 49.4821 94.404 53.8093 91.0883 57.3553C90.733 57.7375 90.4036 58.1305 90.073 58.5338C86.9039 62.1567 82.3733 64.768 77.9259 66.4868C77.7805 66.543 77.6351 66.5992 77.4853 66.6571C74.4503 67.7976 71.7157 68.1995 68.6434 66.8735C68.6958 66.5593 68.7481 66.245 68.8005 65.9308C68.8354 65.7199 68.8703 65.509 68.9063 65.2917C68.995 64.7625 69.0856 64.2339 69.1782 63.7053C70.0749 58.5486 70.0038 53.4795 68.9501 48.3515C68.8368 47.7283 68.8368 47.7283 68.8368 46.9547C69.7986 46.6542 70.7303 46.4544 71.7376 46.3746C71.8617 46.3641 71.9859 46.3536 72.1138 46.3429C75.7793 46.1895 78.9504 47.6774 81.6728 50.0248C82.467 50.6677 83.0043 50.8653 84.0176 50.7983C84.8225 50.6845 85.2861 50.4587 85.8548 49.8555C86.1794 49.3072 86.3028 48.8843 86.3141 48.248C86.3195 48.1092 86.325 47.9703 86.3307 47.8273C86.0941 46.538 85.281 45.7132 84.2714 44.9484C84.0959 44.8135 84.0959 44.8135 83.9168 44.676C80.5955 42.2051 76.7919 40.8772 72.6441 40.8993C72.451 40.8994 72.258 40.8996 72.0591 40.8997C70.7124 40.9163 69.5067 41.0672 68.2068 41.4319C67.6095 41.5536 67.2869 41.5372 66.7095 41.3465C66.4358 40.9674 66.4358 40.9674 66.2162 40.4589C66.1305 40.2664 66.0447 40.0738 65.9564 39.8754C65.8659 39.6629 65.7754 39.4503 65.6822 39.2314C65.4799 38.7742 65.2771 38.3171 65.074 37.8603C65.0205 37.7386 64.9669 37.6169 64.9117 37.4915C64.4818 36.5169 64.0331 35.5519 63.5768 34.5894C63.5078 34.4438 63.4389 34.2982 63.3678 34.1483C63.0932 33.5697 62.8183 32.9913 62.543 32.413C61.8222 30.8964 61.1129 29.3825 60.5212 27.8095C60.7176 27.7928 60.914 27.7761 61.1164 27.7589C63.7918 27.4997 66.0242 26.7553 68.0632 24.9087C68.7551 23.9604 68.8042 23.1479 68.6434 22.0079C68.2805 21.2097 67.993 20.921 67.2413 20.4729C66.4097 20.2373 65.7796 20.1662 64.969 20.4608C64.6479 20.6723 64.334 20.8949 64.0263 21.1256C62.9482 21.9279 62.006 22.2385 60.6609 22.1832C59.5326 22.0087 58.7411 21.446 57.8455 20.7622C57.4258 20.4284 57.4258 20.4284 56.8468 20.2674C56.56 19.7712 56.56 19.7712 56.2591 19.1086C56.2045 18.9899 56.1499 18.8713 56.0937 18.749C55.9766 18.4939 55.8605 18.2385 55.7453 17.9827C55.5653 17.5836 55.3829 17.1857 55.1997 16.7881C54.7488 15.8083 54.3023 14.8267 53.8585 13.8438C53.6276 13.3331 53.3942 12.8237 53.1604 12.3144C53.096 12.1684 53.0317 12.0223 52.9654 11.8718C52.4912 10.842 51.9838 10.2779 50.9349 9.78377C49.9533 9.55794 48.9795 9.54 47.9752 9.51031C47.7683 9.50283 47.5614 9.49535 47.3482 9.48765C46.8401 9.4695 46.332 9.45293 45.8238 9.43779C45.6424 5.89069 45.6424 5.89069 46.4721 4.91063C47.4928 3.92563 49.0446 3.56136 50.3684 3.16482C50.658 3.07779 50.658 3.07779 50.9534 2.989C57.6936 1.01677 64.6699 0.468822 71.6607 0.480971ZM78.349 21.1618C77.7878 21.8919 77.6834 22.6498 77.7325 23.555C78.1309 24.9494 79.4249 25.8836 80.622 26.6054C83.1513 27.9298 85.7926 28.2335 88.572 27.4431C90.3759 26.767 92.0639 25.7138 93.1068 24.0626C93.2853 23.1255 93.2704 22.2503 92.7714 21.4149C92.2362 20.7542 91.7414 20.2338 90.8828 20.074C89.64 20.0167 88.8869 20.3419 87.948 21.143C87.1405 21.7948 86.3031 21.9853 85.2746 22.0079C84.2078 21.8702 83.6299 21.5774 82.7727 20.9322C81.1714 19.754 79.8256 19.7837 78.349 21.1618Z" fill="#C370E5"/>
</g>
<defs>
<clipPath id="clip0_891_1179">
<rect width="99.0138" height="83.9297" fill="white" transform="translate(0.37793 0.541992)"/>
</clipPath>
</defs>
</svg>
