<svg width="100" height="100" viewBox="0 0 100 100" fill="none" xmlns="http://www.w3.org/2000/svg">
<path d="M9.21639 50.3684C36.1474 50.3684 63.0784 50.3684 90.8254 50.3684C90.8414 57.149 90.8573 63.9296 90.8738 70.9157C90.8808 73.0552 90.8879 75.1946 90.8951 77.3989C90.8986 80.0153 90.8986 80.0153 90.8993 81.241C90.9 82.0954 90.9029 82.9497 90.9071 83.804C90.9124 84.8954 90.914 85.9868 90.9129 87.0782C90.9131 87.4777 90.9147 87.8772 90.9177 88.2768C90.9378 91.0882 90.8627 93.4688 88.7979 95.5951C87.5717 96.6347 86.2138 97.1913 84.6139 97.1939C84.3647 97.1947 84.1155 97.1956 83.8588 97.1965C83.5806 97.1965 83.3024 97.1964 83.0242 97.1964C82.7299 97.197 82.4357 97.1977 82.1414 97.1985C81.3306 97.2005 80.5199 97.2012 79.7091 97.2017C78.8355 97.2024 77.9618 97.2043 77.0882 97.206C74.9772 97.2098 72.8661 97.2118 70.7551 97.2135C69.7611 97.2143 68.7672 97.2154 67.7733 97.2164C64.4695 97.2197 61.1657 97.2225 57.8619 97.2239C57.0043 97.2242 56.1467 97.2246 55.2891 97.225C55.076 97.2251 54.8628 97.2252 54.6432 97.2253C51.1906 97.2269 47.7379 97.2318 44.2853 97.2381C40.7412 97.2445 37.197 97.2479 33.6529 97.2486C31.6628 97.249 29.6726 97.2507 27.6825 97.2556C25.9875 97.2598 24.2925 97.2614 22.5975 97.2595C21.7328 97.2586 20.8682 97.259 20.0036 97.2627C19.2113 97.2661 18.4192 97.2659 17.6269 97.2629C17.341 97.2625 17.055 97.2633 16.7691 97.2656C14.2655 97.2845 12.6162 96.8585 10.7892 95.1117C9.48539 93.6646 9.15632 91.91 9.16988 90.0192C9.16955 89.8494 9.16922 89.6797 9.16888 89.5048C9.16824 88.9367 9.17037 88.3686 9.17248 87.8004C9.1726 87.3859 9.17255 86.9714 9.17234 86.5569C9.17225 85.4479 9.17449 84.3389 9.17722 83.2299C9.17942 82.1889 9.17953 81.1479 9.1798 80.1068C9.18183 77.0633 9.18723 74.0197 9.19222 70.9761C9.2002 64.1756 9.20817 57.375 9.21639 50.3684ZM20.5748 70.6815C19.9014 71.1644 19.3263 71.7092 18.7407 72.2936C18.5698 72.4574 18.5698 72.4574 18.3954 72.6245C17.9116 73.1049 17.5759 73.457 17.3356 74.1021C17.2988 74.5969 17.2988 74.5969 17.7254 75.1219C18.0815 75.3157 18.0815 75.3157 18.4989 75.3152C18.9278 75.0872 18.9278 75.0872 19.3208 74.7472C19.5257 74.583 19.5257 74.583 19.7348 74.4155C19.8375 74.3295 19.9402 74.2435 20.046 74.1549C20.043 74.3921 20.04 74.6292 20.0368 74.8736C20.0263 75.7526 20.0197 76.6316 20.0142 77.5106C20.0112 77.8912 20.0073 78.2718 20.0023 78.6524C19.9952 79.1992 19.9919 79.7459 19.9894 80.2927C19.9864 80.4631 19.9834 80.6336 19.9803 80.8092C19.9803 80.9679 19.9802 81.1266 19.9802 81.2901C19.9789 81.4296 19.9776 81.5692 19.9763 81.713C20.0677 82.1989 20.2313 82.3734 20.6262 82.6639C21.2295 82.6493 21.2295 82.6493 21.7865 82.4705C22.1187 81.8061 22.003 81.0425 21.9988 80.3116C21.9985 80.1361 21.9982 79.9607 21.9979 79.7799C21.9969 79.2183 21.9944 78.6568 21.992 78.0952C21.991 77.715 21.9901 77.3347 21.9893 76.9545C21.9872 76.0213 21.9839 75.0881 21.9799 74.1549C22.4025 74.5279 22.4025 74.5279 22.825 74.9009C23.1636 75.1729 23.1636 75.1729 23.7687 75.2186C24.032 75.1707 24.032 75.1707 24.3005 75.1219C24.7393 74.5917 24.7393 74.5917 24.6543 74.0671C24.4736 73.5123 24.2739 73.26 23.8609 72.8526C23.7332 72.7257 23.6056 72.5988 23.4741 72.4681C23.34 72.3387 23.2059 72.2093 23.0677 72.076C22.9351 71.9437 22.8024 71.8113 22.6658 71.6749C21.7754 70.6598 21.7754 70.6598 20.5748 70.6815ZM30.8243 70.6808C30.1488 71.1662 29.5757 71.7168 28.9901 72.3057C28.8762 72.4165 28.7623 72.5273 28.6449 72.6415C28.5365 72.7498 28.428 72.8581 28.3163 72.9697C28.2182 73.0673 28.12 73.1648 28.0189 73.2654C27.7362 73.6338 27.6291 73.8852 27.5881 74.3483C28.0434 74.8842 28.0434 74.8842 28.555 75.3152C29.165 74.9594 29.7343 74.583 30.2955 74.1549C30.2925 74.3921 30.2894 74.6292 30.2863 74.8736C30.2758 75.7526 30.2691 76.6316 30.2636 77.5106C30.2607 77.8912 30.2568 78.2718 30.2517 78.6524C30.2447 79.1992 30.2414 79.7459 30.2389 80.2927C30.2359 80.4631 30.2329 80.6336 30.2298 80.8092C30.2297 80.9679 30.2297 81.1266 30.2296 81.2901C30.2284 81.4296 30.2271 81.5692 30.2257 81.713C30.3166 82.196 30.4906 82.3672 30.8757 82.6639C31.3673 82.7445 31.3673 82.7445 31.8426 82.6639C32.2597 82.3254 32.2597 82.3254 32.2759 81.9223C32.275 81.7789 32.2742 81.6354 32.2733 81.4877C32.2732 81.3251 32.2732 81.1625 32.2732 80.995C32.2712 80.8193 32.2692 80.6436 32.2671 80.4626C32.2663 80.193 32.2663 80.193 32.2655 79.918C32.2633 79.3426 32.2585 78.7673 32.2535 78.1919C32.2516 77.8023 32.2498 77.4128 32.2483 77.0232C32.244 76.0671 32.2373 75.111 32.2294 74.1549C32.5111 74.404 32.7928 74.653 33.0745 74.9021C33.57 75.2476 33.9696 75.2142 34.55 75.1219C34.9787 74.7706 34.9787 74.7706 35.002 74.2752C34.9202 73.6393 34.7344 73.4484 34.2803 73.0037C34.1433 72.8681 34.0064 72.7325 33.8652 72.5927C33.7203 72.4541 33.5753 72.3155 33.4259 72.1727C33.2832 72.0311 33.1405 71.8895 32.9935 71.7436C32.0676 70.6836 32.0676 70.6836 30.8243 70.6808ZM17.3386 86.3383C17.3386 87.2317 17.3386 88.1252 17.3386 89.0457C23.146 89.0457 28.9534 89.0457 34.9368 89.0457C34.9368 88.1522 34.9368 87.2588 34.9368 86.3383C29.1294 86.3383 23.322 86.3383 17.3386 86.3383Z" fill="#B0C5C6"/>
<path d="M17.67 25.1531C17.9603 25.1523 18.2506 25.1513 18.5409 25.15C19.3363 25.1472 20.1316 25.148 20.927 25.1494C21.7857 25.1504 22.6444 25.1479 23.5032 25.146C25.1846 25.1426 26.866 25.1425 28.5474 25.1435C29.9142 25.1443 31.281 25.144 32.6478 25.143C32.9397 25.1427 32.9397 25.1427 33.2375 25.1425C33.6328 25.1422 34.0282 25.1419 34.4235 25.1416C38.1303 25.139 41.837 25.14 45.5438 25.1422C48.9339 25.1442 52.3239 25.1417 55.714 25.137C59.1961 25.1323 62.6781 25.1305 66.1602 25.1317C68.1147 25.1324 70.0692 25.132 72.0236 25.1286C73.6875 25.1258 75.3513 25.1256 77.0151 25.129C77.8637 25.1306 78.7123 25.1311 79.5609 25.1281C80.3384 25.1254 81.1159 25.1263 81.8934 25.1301C82.174 25.1308 82.4546 25.1302 82.7351 25.1282C84.572 25.1159 86.3768 25.184 87.7607 26.5373C88.6326 27.6895 89.1781 29.0806 89.7739 30.3891C89.9098 30.6833 90.0459 30.9774 90.1822 31.2714C90.4587 31.8687 90.7341 32.4666 91.0083 33.065C91.3736 33.8618 91.742 34.6572 92.1119 35.4519C92.5311 36.3527 92.9494 37.2539 93.3666 38.1555C93.7117 38.9 94.0596 39.643 94.4121 40.384C94.4852 40.5377 94.5582 40.6914 94.6335 40.8497C94.7643 41.1241 94.8957 41.3983 95.0278 41.672C95.695 43.0715 95.9336 44.4343 95.4546 45.9446C94.9586 47.1059 94.1702 47.8565 93.0199 48.3518C92.2263 48.6407 91.5254 48.7008 90.6768 48.7014C90.4614 48.7028 90.4614 48.7028 90.2416 48.7041C89.7623 48.7065 89.2831 48.7046 88.8038 48.7028C88.4559 48.7036 88.1081 48.7047 87.7602 48.706C86.8057 48.7088 85.8512 48.708 84.8967 48.7065C83.8667 48.7056 82.8368 48.708 81.8068 48.71C79.7897 48.7134 77.7725 48.7135 75.7553 48.7125C74.1159 48.7117 72.4765 48.712 70.837 48.713C70.4871 48.7132 70.4871 48.7133 70.1301 48.7135C69.6561 48.7138 69.1822 48.7141 68.7083 48.7144C64.2635 48.717 59.8188 48.716 55.3741 48.7137C51.3073 48.7118 47.2406 48.7143 43.1739 48.719C38.9984 48.7237 34.8229 48.7255 30.6474 48.7242C28.3031 48.7236 25.9588 48.724 23.6145 48.7274C21.6189 48.7302 19.6234 48.7304 17.6278 48.727C16.6096 48.7253 15.5915 48.7249 14.5733 48.7279C13.6411 48.7306 12.7089 48.7297 11.7767 48.7259C11.4396 48.7252 11.1026 48.7258 10.7656 48.7278C8.86631 48.7383 7.20317 48.7458 5.6697 47.4811C4.73368 46.3414 4.26951 45.3881 4.32544 43.89C4.5509 41.9527 5.85704 39.9568 6.69027 38.2092C6.9857 37.5874 7.28069 36.9653 7.57562 36.3433C7.64915 36.1883 7.72269 36.0333 7.79845 35.8737C8.58621 34.2116 9.35918 32.5429 10.1277 30.8719C10.5994 29.8502 11.0785 28.8326 11.5725 27.8215C11.6636 27.6348 11.7547 27.4481 11.8486 27.2557C12.42 26.2334 13.2274 25.7465 14.3271 25.3491C15.4193 25.0835 16.5524 25.1481 17.67 25.1531Z" fill="#B0C5C6"/>
<path d="M48.8607 2.02173C58.7524 2.02173 68.6441 2.02173 78.8355 2.02173C78.8355 9.10547 78.8355 16.1892 78.8355 23.4876C68.9438 23.4876 59.0521 23.4876 48.8607 23.4876C48.8607 16.4039 48.8607 9.32013 48.8607 2.02173ZM56.7895 5.11591C55.6273 6.36985 55.7673 7.55518 55.7549 9.1699C55.7517 9.46901 55.7465 9.7681 55.739 10.0671C55.6723 12.7602 56.0927 14.9673 57.9181 17.0764C59.4435 18.5935 61.5938 19.6181 63.7635 19.6682C66.0373 19.6268 67.9406 18.8134 69.6089 17.2789C71.789 14.9722 72.1376 12.5219 72.1516 9.45502C72.1612 9.08501 72.1612 9.08501 72.1709 8.70753C72.179 7.28874 72.1205 6.17591 71.1001 5.11591C70.3128 4.60112 69.762 4.47825 68.852 4.63244C68.0323 4.85765 67.5681 5.21155 67.039 5.88946C66.8289 6.5197 66.8153 6.99993 66.8048 7.66317C66.7966 8.01766 66.7966 8.01766 66.7882 8.37931C66.7782 8.87584 66.7696 9.3724 66.7625 9.86899C66.6946 12.5622 66.6946 12.5622 65.649 13.6974C64.9617 14.0945 64.3437 14.2439 63.558 14.2051C62.6577 13.92 62.0291 13.5877 61.4308 12.8514C61.2162 12.2075 61.21 11.7135 61.2034 11.0353C61.1988 10.7903 61.1942 10.5452 61.1894 10.2928C61.1804 9.77751 61.1751 9.26256 61.1713 8.74719C61.1419 6.88802 61.1419 6.88802 60.2705 5.3093C59.8961 4.99745 59.8961 4.99745 59.4848 4.83792C59.3549 4.77834 59.2251 4.71876 59.0912 4.65737C58.2086 4.36558 57.5804 4.7135 56.7895 5.11591Z" fill="#B0C5C6"/>
<path d="M31.0691 2.02173C33.0474 2.02173 35.0258 2.02173 37.064 2.02173C37.4932 4.7348 37.9219 7.44792 38.35 10.1612C38.5488 11.4209 38.7477 12.6807 38.947 13.9403C39.1392 15.1553 39.3311 16.3703 39.5225 17.5854C39.5958 18.0497 39.6692 18.5139 39.7428 18.9782C39.8455 19.6268 39.9477 20.2756 40.0498 20.9243C40.0806 21.1176 40.1113 21.3108 40.143 21.5098C40.1706 21.6864 40.1983 21.8629 40.2268 22.0448C40.251 22.1983 40.2753 22.3518 40.3003 22.5099C40.3516 22.9075 40.3516 22.9075 40.3516 23.4876C37.4798 23.4876 34.608 23.4876 31.6492 23.4876C31.5044 19.587 31.5044 19.587 31.443 17.89C31.4015 16.744 31.3598 15.598 31.3169 14.4521C31.162 10.3058 31.0311 6.17149 31.0691 2.02173Z" fill="#B0C5C6"/>
<path d="M24.8806 2.02173C26.859 2.02173 28.8373 2.02173 30.8756 2.02173C30.82 3.9677 30.764 5.91366 30.7064 7.85958C30.7021 8.00373 30.6979 8.14787 30.6935 8.29639C30.5432 13.3629 30.3432 18.4244 30.1021 23.4876C27.2941 23.4876 24.4861 23.4876 21.5931 23.4876C21.7104 21.9628 21.8324 20.4917 22.0716 18.9901C22.0996 18.8093 22.1277 18.6285 22.1565 18.4422C22.2478 17.8548 22.3404 17.2677 22.4331 16.6806C22.4975 16.2689 22.5618 15.8571 22.626 15.4454C22.76 14.588 22.8946 13.7306 23.0298 12.8733C23.2032 11.773 23.3752 10.6724 23.5467 9.57177C23.679 8.72413 23.8118 7.87659 23.9449 7.02909C24.0086 6.623 24.0722 6.21688 24.1355 5.81073C24.2237 5.24596 24.3128 4.68133 24.4021 4.11673C24.4282 3.94847 24.4543 3.78022 24.4813 3.60686C24.6651 2.45274 24.6651 2.45274 24.8806 2.02173Z" fill="#B0C5C6"/>
<path d="M58.3245 6.42126C58.5199 6.43722 58.7153 6.45317 58.9167 6.46961C59.3753 7.15749 59.3521 7.463 59.3564 8.27883C59.3603 8.52301 59.3643 8.76718 59.3684 9.01876C59.3742 9.53147 59.377 10.044 59.379 10.5568C59.4089 12.1929 59.5217 13.2977 60.5877 14.5896C61.5952 15.4186 62.532 15.8758 63.836 16.0181C65.2697 15.8671 66.411 15.4604 67.4257 14.3985C68.1552 13.2247 68.4106 12.2023 68.447 10.8246C68.4543 10.5836 68.4615 10.3427 68.4689 10.0945C68.4826 9.58532 68.4962 9.07617 68.5097 8.56702C68.517 8.32683 68.5242 8.08665 68.5316 7.83918C68.5375 7.61826 68.5433 7.39735 68.5494 7.16974C68.586 6.663 68.586 6.663 68.7794 6.46961C69.3475 6.42126 69.3475 6.42126 69.9397 6.46961C70.3658 7.10869 70.3761 7.31015 70.3779 8.05372C70.3786 8.35193 70.3786 8.35193 70.3794 8.65616C70.3779 8.86394 70.3764 9.07172 70.3748 9.2858C70.3771 9.58962 70.3771 9.58962 70.3794 9.89958C70.3736 12.2259 70.0777 14.2545 68.441 15.9939C66.8893 17.4701 65.2672 17.7793 63.1878 17.7381C61.515 17.6603 60.3083 16.9441 59.1063 15.8081C57.9374 14.457 57.5389 13.0254 57.5373 11.2778C57.5371 11.1463 57.5369 11.0148 57.5368 10.8793C57.5366 10.6025 57.537 10.3257 57.5378 10.0489C57.5388 9.62368 57.5378 9.19848 57.5366 8.77325C57.5367 8.5042 57.5369 8.23514 57.5373 7.96609C57.5375 7.72087 57.5378 7.47565 57.538 7.223C57.5709 6.48539 57.5709 6.48539 58.3245 6.42126Z" fill="#B0C5C6"/>
<path d="M39.7714 8.21008C40.2958 8.67645 40.579 9.16626 40.897 9.7889C40.9998 9.98849 41.1025 10.1881 41.2084 10.3937C41.3706 10.7128 41.3706 10.7128 41.536 11.0384C41.7607 11.4776 41.9856 11.9168 42.2106 12.3558C42.3765 12.6796 42.3765 12.6796 42.5458 13.01C42.8288 13.5541 43.1195 14.0922 43.4178 14.6281C43.5395 14.8485 43.5395 14.8485 43.6636 15.0733C43.8117 15.34 43.962 15.6056 44.1148 15.8697C44.5717 16.6997 44.7066 17.3232 44.6061 18.2662C44.2696 18.7227 44.0141 18.9619 43.4941 19.1848C42.8313 19.2584 42.1786 19.2442 41.5119 19.2331C41.4481 18.8502 41.3842 18.4673 41.3185 18.0728C41.9567 17.9452 42.5948 17.8175 43.2524 17.686C43.0031 16.8627 42.6875 16.1671 42.2492 15.4281C40.8719 13.0399 39.7167 11.0152 39.7714 8.21008Z" fill="#B0C5C6"/>
</svg>
