<svg width="23" height="18" viewBox="0 0 23 18" fill="none" xmlns="http://www.w3.org/2000/svg">
<path d="M16.3083 7.66667H21.6592C21.9476 7.66667 22.1051 7.99629 21.9205 8.21339L19.2451 11.3594C19.1091 11.5193 18.8584 11.5193 18.7224 11.3594L16.047 8.2134C15.8624 7.99629 16.0199 7.66667 16.3083 7.66667Z" fill="#164878"/>
<path d="M1.34082 10.3333H6.69168C6.98008 10.3333 7.13764 10.0037 6.953 9.78661L4.27757 6.64062C4.14158 6.4807 3.89092 6.4807 3.75492 6.64062L1.07949 9.78661C0.894859 10.0037 1.05241 10.3333 1.34082 10.3333Z" fill="#164878"/>
<path fill-rule="evenodd" clip-rule="evenodd" d="M11.5 2.33333C9.38755 2.33333 7.50036 3.27596 6.25142 4.75785C6.01216 5.04174 5.58334 5.08182 5.29362 4.84737C5.00391 4.61291 4.96301 4.19271 5.20227 3.90881C6.69862 2.13337 8.96453 1 11.5 1C15.5027 1 18.8314 3.82201 19.5295 7.54622C19.537 7.58627 19.5442 7.62642 19.5511 7.66667H18.1675C17.5374 4.62371 14.791 2.33333 11.5 2.33333ZM4.83255 10.3333C5.46256 13.3763 8.20902 15.6667 11.5 15.6667C13.6124 15.6667 15.4996 14.724 16.7486 13.2421C16.9878 12.9583 17.4167 12.9182 17.7064 13.1526C17.9961 13.3871 18.037 13.8073 17.7977 14.0912C16.3014 15.8666 14.0355 17 11.5 17C7.49728 17 4.16862 14.178 3.4705 10.4538C3.46299 10.4137 3.45579 10.3736 3.4489 10.3333H4.83255Z" fill="#164878"/>
<path d="M16.3083 7.66667H21.6592C21.9476 7.66667 22.1051 7.99629 21.9205 8.21339L19.2451 11.3594C19.1091 11.5193 18.8584 11.5193 18.7224 11.3594L16.047 8.2134C15.8624 7.99629 16.0199 7.66667 16.3083 7.66667Z" stroke="#164878" stroke-linecap="round"/>
<path d="M1.34082 10.3333H6.69168C6.98008 10.3333 7.13764 10.0037 6.953 9.78661L4.27757 6.64062C4.14158 6.4807 3.89092 6.4807 3.75492 6.64062L1.07949 9.78661C0.894859 10.0037 1.05241 10.3333 1.34082 10.3333Z" stroke="#164878" stroke-linecap="round"/>
<path fill-rule="evenodd" clip-rule="evenodd" d="M11.5 2.33333C9.38755 2.33333 7.50036 3.27596 6.25142 4.75785C6.01216 5.04174 5.58334 5.08182 5.29362 4.84737C5.00391 4.61291 4.96301 4.19271 5.20227 3.90881C6.69862 2.13337 8.96453 1 11.5 1C15.5027 1 18.8314 3.82201 19.5295 7.54622C19.537 7.58627 19.5442 7.62642 19.5511 7.66667H18.1675C17.5374 4.62371 14.791 2.33333 11.5 2.33333ZM4.83255 10.3333C5.46256 13.3763 8.20902 15.6667 11.5 15.6667C13.6124 15.6667 15.4996 14.724 16.7486 13.2421C16.9878 12.9583 17.4167 12.9182 17.7064 13.1526C17.9961 13.3871 18.037 13.8073 17.7977 14.0912C16.3014 15.8666 14.0355 17 11.5 17C7.49728 17 4.16862 14.178 3.4705 10.4538C3.46299 10.4137 3.45579 10.3736 3.4489 10.3333H4.83255Z" stroke="#164878" stroke-linecap="round"/>
</svg>
