<svg width="100" height="100" viewBox="0 0 100 100" fill="none" xmlns="http://www.w3.org/2000/svg">
<g clip-path="url(#clip0_891_1190)">
<path d="M71.577 -0.00874701C71.737 -0.0123461 71.8971 -0.0159452 72.062 -0.0196533C73.7957 -0.00182448 75.1355 0.658435 76.3913 1.83145C77.8497 3.39124 78.3594 4.9621 78.3464 7.08057C78.347 7.23236 78.3476 7.38414 78.3483 7.54053C78.3499 8.04757 78.3487 8.55457 78.3476 9.06162C78.3482 9.42944 78.3489 9.79727 78.3498 10.1651C78.3518 11.1747 78.3514 12.1843 78.3506 13.1939C78.3501 14.2832 78.3518 15.3725 78.3533 16.4618C78.3557 18.5953 78.3561 20.7288 78.3556 22.8623C78.3553 24.5962 78.3556 26.3301 78.3565 28.0641C78.3566 28.3108 78.3567 28.5575 78.3568 28.8117C78.357 29.3129 78.3573 29.8141 78.3575 30.3153C78.359 33.6806 78.3598 37.0459 78.359 40.4112C78.359 40.5428 78.3589 40.6744 78.3589 40.8099C78.3588 41.4768 78.3586 42.1436 78.3584 42.8104C78.3584 42.9429 78.3584 43.0753 78.3583 43.2117C78.3583 43.4795 78.3582 43.7473 78.3581 44.0152C78.3571 48.1828 78.3586 52.3504 78.3622 56.5181C78.3662 61.2015 78.3683 65.885 78.3675 70.5685C78.3671 73.0479 78.3676 75.5273 78.3703 78.0067C78.3726 80.1173 78.3729 82.2279 78.3706 84.3384C78.3694 85.4153 78.3692 86.4922 78.3715 87.5691C78.3736 88.555 78.373 89.5409 78.3703 90.5268C78.3698 90.8834 78.3703 91.2399 78.3718 91.5965C78.3808 93.8286 78.3637 95.7668 76.908 97.5947C75.2708 99.2107 73.3032 99.1547 71.1588 99.1695C70.8196 99.1727 70.4803 99.1779 70.1411 99.1853C66.1808 99.2714 66.1808 99.2714 64.5895 97.7977C63.5793 96.7378 63.0428 95.4134 63.0072 93.9479C63.0127 93.7621 63.0183 93.5763 63.024 93.3849C63.0299 93.1693 63.0358 92.9537 63.0419 92.7316C63.0495 92.4952 63.0571 92.2588 63.065 92.0152C63.0723 91.762 63.0795 91.5089 63.087 91.248C63.1073 90.545 63.129 89.8419 63.1509 89.1389C63.1741 88.3911 63.1961 87.6432 63.2183 86.8953C63.2576 85.5747 63.2979 84.2542 63.3387 82.9337C63.3865 81.3858 63.4333 79.8379 63.4794 78.29C63.5424 76.1769 63.6061 74.0639 63.6705 71.9509C63.6959 71.1168 63.7211 70.2827 63.746 69.4486C63.7757 68.4562 63.8062 67.4638 63.8371 66.4714C63.8485 66.104 63.8596 65.7365 63.8705 65.3691C63.8855 64.8623 63.9014 64.3556 63.9175 63.8489C63.9216 63.7031 63.9258 63.5573 63.93 63.4071C63.9631 62.4047 64.0597 61.4202 64.18 60.4245C63.9327 60.4404 63.6854 60.4564 63.4306 60.4728C61.6217 60.4587 60.2977 59.6453 59.0107 58.4211C57.0428 56.1315 57.1243 53.6809 57.3316 50.8509C57.3438 50.6765 57.3561 50.5021 57.3687 50.3224C57.4094 49.7436 57.4511 49.1649 57.4929 48.5861C57.5225 48.1689 57.552 47.7516 57.5815 47.3343C57.6616 46.2047 57.7425 45.0752 57.8238 43.9456C57.8746 43.239 57.9252 42.5323 57.9758 41.8256C58.1343 39.6116 58.2933 37.3977 58.4531 35.1839C58.6372 32.6335 58.8196 30.0831 59.0005 27.5325C59.1407 25.5571 59.2824 23.5818 59.4252 21.6066C59.5104 20.4286 59.5949 19.2505 59.6779 18.0723C59.756 16.9638 59.836 15.8554 59.9174 14.7471C59.9468 14.3418 59.9756 13.9365 60.0037 13.5312C60.2946 9.3371 60.899 5.6665 64.1535 2.71679C66.3253 0.865803 68.7526 0.0326498 71.577 -0.00874701Z" fill="#E8CE62"/>
<path d="M26.4697 0.32965C26.9774 0.773906 27.211 1.1723 27.2917 1.84712C27.2917 1.99297 27.2918 2.13881 27.2919 2.28907C27.2929 2.45741 27.294 2.62574 27.295 2.79917C27.2938 3.07391 27.2938 3.07391 27.2926 3.35419C27.2933 3.5483 27.294 3.7424 27.2947 3.94239C27.2961 4.36383 27.2966 4.78528 27.2963 5.20673C27.2961 5.87412 27.2986 6.54145 27.3019 7.20883C27.3108 9.10632 27.3156 11.0038 27.3169 12.9013C27.3179 14.0621 27.3225 15.2228 27.3295 16.3836C27.3314 16.8256 27.3319 17.2676 27.3308 17.7096C27.3295 18.3285 27.3328 18.9473 27.3372 19.5662C27.3356 19.7481 27.334 19.9301 27.3324 20.1176C27.3469 21.2751 27.5323 21.9604 28.2102 22.9075C29.1531 23.6035 30.1723 23.6351 31.3043 23.4877C31.8701 23.2264 31.8701 23.2264 32.2713 22.9075C32.3989 22.9075 32.5265 22.9075 32.658 22.9075C32.7179 22.7559 32.7777 22.6044 32.8393 22.4482C33.0448 21.9406 33.0448 21.9406 33.2382 21.5538C33.2566 21.2869 33.2632 21.0191 33.2636 20.7516C33.2644 20.5835 33.2651 20.4154 33.2659 20.2422C33.2658 19.9649 33.2658 19.9649 33.2656 19.6821C33.2663 19.4877 33.267 19.2934 33.2677 19.0931C33.2691 18.67 33.2701 18.2468 33.2708 17.8237C33.2722 17.1539 33.2752 16.4842 33.2788 15.8145C33.289 13.9099 33.2982 12.0054 33.3012 10.1008C33.3032 8.93667 33.3089 7.77264 33.317 6.60858C33.3193 6.16478 33.3203 5.72098 33.3199 5.27717C33.3194 4.65586 33.3237 4.03474 33.3291 3.41345C33.3272 3.13852 33.3272 3.13852 33.3252 2.85804C33.3409 1.75442 33.4624 1.11747 34.2051 0.281304C35.0437 0.00178115 35.8428 -0.0155122 36.7192 0.0879173C37.407 0.495004 37.627 0.684334 37.8795 1.44162C37.8972 1.71635 37.9044 1.99182 37.9049 2.26712C37.9056 2.43546 37.9064 2.60381 37.9072 2.77726C37.9071 2.96142 37.907 3.14557 37.9069 3.33531C37.9076 3.52969 37.9083 3.72408 37.9089 3.92436C37.9104 4.34697 37.9114 4.76958 37.9121 5.19219C37.9135 5.86113 37.9165 6.53003 37.9201 7.19896C37.9302 9.10106 37.9395 11.0032 37.9425 12.9053C37.9445 14.0683 37.9501 15.2313 37.9582 16.3944C37.9606 16.8376 37.9616 17.2809 37.9612 17.7242C37.9607 18.3445 37.965 18.9647 37.9704 19.585C37.9691 19.768 37.9678 19.951 37.9665 20.1395C37.9819 21.2247 38.119 21.855 38.8464 22.7141C39.5619 23.3773 40.1187 23.5456 41.0704 23.5844C42.0179 23.5483 42.574 23.3624 43.2943 22.7141C43.8995 22.0255 44.0917 21.4421 44.0932 20.5336C44.094 20.365 44.0948 20.1964 44.0956 20.0226C44.0955 19.8382 44.0954 19.6537 44.0953 19.4637C44.0963 19.1716 44.0963 19.1716 44.0973 18.8737C44.0987 18.4504 44.0998 18.0272 44.1005 17.6039C44.1018 16.9342 44.1049 16.2646 44.1085 15.5949C44.1186 13.6907 44.1279 11.7864 44.1309 9.88216C44.1328 8.71785 44.1385 7.5536 44.1466 6.38931C44.149 5.94536 44.15 5.50139 44.1495 5.05743C44.1491 4.43656 44.1534 3.81588 44.1587 3.19504C44.1568 2.91952 44.1568 2.91952 44.1549 2.63844C44.1666 1.81524 44.187 1.36754 44.6302 0.655181C45.3511 -0.0110537 45.9274 0.0346666 46.8757 0.045614C47.4971 0.100415 47.8532 0.257586 48.3223 0.668076C48.7477 1.32728 48.7581 1.87751 48.7595 2.65225C48.7609 2.90111 48.7623 3.14996 48.7637 3.40636C48.7632 3.68177 48.7628 3.95718 48.7622 4.2326C48.7631 4.52299 48.7641 4.81337 48.7652 5.10376C48.7678 5.89255 48.7679 6.68132 48.7674 7.47012C48.7672 8.1294 48.7682 8.78868 48.7691 9.44796C48.7712 11.0046 48.7713 12.5612 48.7702 14.1178C48.769 15.7207 48.7714 17.3236 48.7755 18.9265C48.7789 20.3045 48.7801 21.6825 48.7794 23.0604C48.7791 23.8826 48.7796 24.7047 48.7823 25.5269C48.7847 26.3012 48.7843 27.0754 48.7818 27.8497C48.7814 28.1327 48.7819 28.4157 48.7835 28.6986C48.7959 31.0679 48.5401 33.0458 46.9686 34.8975C45.5909 36.2039 44.3077 36.6685 42.4241 36.6742C42.005 36.663 41.586 36.6511 41.167 36.6379C41.1791 36.7644 41.1912 36.8908 41.2036 37.021C41.4014 39.3095 41.4535 41.6033 41.5244 43.8984C41.5396 44.3781 41.5549 44.8578 41.5702 45.3374C41.6072 46.5012 41.6437 47.6649 41.6799 48.8287C41.7094 49.7777 41.7391 50.7266 41.7689 51.6755C41.8631 54.6724 41.9567 57.6694 42.0497 60.6663C42.1226 63.0148 42.1966 65.3632 42.271 67.7116C42.3478 70.1354 42.4239 72.5592 42.4992 74.983C42.5413 76.3387 42.5837 77.6944 42.6269 79.0501C42.7247 82.1228 42.8164 85.1955 42.8928 88.2688C42.9068 88.8217 42.9217 89.3746 42.9369 89.9276C42.9574 90.6963 42.9726 91.4649 42.9826 92.2339C42.9884 92.6148 42.9988 92.9957 43.0095 93.3766C43.0201 95.0999 42.6264 96.3568 41.5062 97.6816C41.3664 97.7992 41.2265 97.9169 41.0824 98.0381C40.9431 98.1598 40.8037 98.2814 40.6602 98.4068C39.6483 99.0846 38.6184 99.165 37.4292 99.1735C37.2767 99.1752 37.1241 99.177 36.9669 99.1788C36.645 99.1816 36.3232 99.1833 36.0014 99.184C35.5145 99.1863 35.0281 99.1958 34.5413 99.2056C32.5982 99.2253 31.0462 99.1313 29.5399 97.7612C28.5322 96.751 28.0008 95.4787 27.9552 94.0451C27.9576 93.7655 27.9633 93.4859 27.9718 93.2064C27.9742 93.0498 27.9766 92.8932 27.9791 92.7319C27.9882 92.2121 28.0022 91.6926 28.0168 91.1729C28.0256 90.8033 28.0344 90.4338 28.0432 90.0642C28.0752 88.8063 28.1154 87.5487 28.1557 86.291C28.1707 85.8108 28.1856 85.3307 28.2005 84.8506C28.2366 83.6905 28.2732 82.5305 28.3101 81.3704C28.3532 80.0133 28.3956 78.6561 28.4381 77.2988C28.514 74.8726 28.5904 72.4465 28.6671 70.0203C28.7412 67.6786 28.815 65.3368 28.8883 62.9951C28.8928 62.851 28.8973 62.707 28.902 62.5585C28.9111 62.2682 28.9201 61.9779 28.9292 61.6875C28.936 61.4726 28.936 61.4726 28.9428 61.2533C28.9473 61.1103 28.9518 60.9673 28.9564 60.82C29.0268 58.5718 29.0975 56.3236 29.1682 54.0755C29.1895 53.4009 29.2107 52.7263 29.2319 52.0517C29.2802 50.5128 29.3286 48.9739 29.3774 47.4351C29.392 46.9722 29.4066 46.5094 29.4211 46.0465C29.5195 42.9098 29.6327 39.7738 29.7573 36.6379C29.522 36.6434 29.522 36.6434 29.2819 36.649C29.0748 36.6518 28.8677 36.6547 28.6543 36.6576C28.3473 36.663 28.3473 36.663 28.034 36.6686C27.1288 36.6221 26.465 36.3243 25.6961 35.8644C25.5608 35.7846 25.4254 35.7048 25.2859 35.6227C23.893 34.6958 23.0728 33.3445 22.6832 31.7264C22.5021 30.6046 22.5467 29.4625 22.5488 28.329C22.548 28.0369 22.547 27.7448 22.5458 27.4528C22.5433 26.6633 22.5431 25.8738 22.5436 25.0843C22.5438 24.4245 22.5429 23.7646 22.542 23.1047C22.5398 21.5483 22.5397 19.9919 22.5409 18.4355C22.5421 16.8306 22.5397 15.2256 22.5356 13.6207C22.5322 12.2411 22.531 10.8615 22.5316 9.48188C22.532 8.65857 22.5315 7.83529 22.5288 7.01198C22.5264 6.23846 22.5267 5.465 22.5293 4.69148C22.5297 4.40779 22.5292 4.1241 22.5276 3.84042C22.5256 3.45299 22.5275 3.06554 22.5296 2.67811C22.5296 2.46139 22.5295 2.24467 22.5295 2.02139C22.6113 1.36677 22.7953 1.00399 23.1821 0.47469C24.1324 -0.179226 25.4417 -0.0986657 26.4697 0.32965Z" fill="#E8CE62"/>
</g>
<defs>
<clipPath id="clip0_891_1190">
<rect width="99.0138" height="99.0138" fill="white" transform="translate(0.942627 0.0878906)"/>
</clipPath>
</defs>
</svg>
