<svg width="100" height="100" viewBox="0 0 100 100" fill="none" xmlns="http://www.w3.org/2000/svg">
<g clip-path="url(#clip0_891_1193)">
<path d="M36.4253 5.50266C36.5551 5.53482 36.6849 5.56698 36.8187 5.60011C41.3039 6.71883 45.5282 8.9058 49.0611 11.8784C49.195 11.9881 49.3289 12.0977 49.4668 12.2108C49.5782 12.3072 49.6896 12.4037 49.8045 12.5031C50.1675 12.7061 50.1675 12.7061 50.6256 12.5401C51.1657 12.2479 51.5706 11.918 52.0292 11.5097C57.1935 7.20264 63.9389 4.77562 70.6426 4.84999C70.7863 4.85082 70.9301 4.85166 71.0782 4.85252C73.1814 4.86684 75.1873 4.96033 77.2298 5.50266C77.4245 5.5509 77.4245 5.5509 77.6232 5.60011C85.1317 7.47291 91.7743 12.4417 95.7949 19.0397C98.5122 23.6621 99.9 28.3354 99.9044 33.7129C99.9046 33.9282 99.9046 33.9282 99.9048 34.1478C99.9017 36.2612 99.8161 38.2581 99.2759 40.3122C99.2437 40.4423 99.2115 40.5724 99.1784 40.7064C98.7761 42.3192 98.2386 43.8542 97.5716 45.3765C97.5146 45.5071 97.4576 45.6377 97.3989 45.7723C96.7602 47.1731 95.9872 48.4364 95.2147 49.7881C87.0461 49.7881 78.8775 49.7881 70.4613 49.7881C68.2356 45.7819 68.2356 45.7819 67.2342 43.914C67.1214 43.7042 67.0086 43.4943 66.8924 43.2781C66.2294 42.0439 65.568 40.809 64.9069 39.5738C64.4829 38.7814 64.0581 37.9895 63.6331 37.1976C63.1561 36.3084 62.6826 35.4173 62.2114 34.525C61.9881 34.1052 61.7647 33.6854 61.5413 33.2657C61.3904 32.9772 61.3904 32.9772 61.2365 32.6828C60.4168 31.1241 60.4168 31.1241 59.0515 30.0627C58.6192 30.0096 58.6192 30.0096 58.1329 30.0023C57.9704 29.9951 57.8078 29.9878 57.6404 29.9804C56.9114 30.0952 56.5361 30.3781 55.9573 30.8363C55.6335 31.2926 55.4041 31.7792 55.1709 32.2867C55.1021 32.4297 55.0334 32.5727 54.9625 32.72C54.739 33.1865 54.5202 33.6551 54.3014 34.1238C54.1464 34.4499 53.9911 34.7759 53.8355 35.1017C53.378 36.0629 52.9264 37.0268 52.4764 37.9916C52.3834 38.1905 52.3834 38.1905 52.2886 38.3935C51.8131 39.4109 51.3397 40.4294 50.8699 41.4495C50.0803 43.163 49.2635 44.8624 48.4392 46.5593C47.458 48.5802 46.5046 50.6129 45.5651 52.6534C45.05 53.7708 44.5256 54.88 43.9674 55.9765C43.2752 55.7458 43.2084 55.5874 42.8335 54.9831C42.7272 54.8137 42.6208 54.6444 42.5113 54.4698C42.3975 54.285 42.2837 54.1001 42.1664 53.9097C41.9215 53.5181 41.6765 53.1265 41.4314 52.735C41.3064 52.534 41.1813 52.333 41.0525 52.1259C40.3738 51.0383 39.6824 49.9588 38.992 48.8786C38.3995 47.9501 37.813 47.0185 37.2343 46.0813C37.1131 45.8865 36.9918 45.6917 36.8668 45.491C36.6344 45.1174 36.4037 44.7427 36.1749 44.3669C36.0698 44.1988 35.9647 44.0306 35.8565 43.8574C35.7653 43.7092 35.6742 43.5611 35.5803 43.4085C35.1002 42.8164 34.572 42.4877 33.8214 42.3556C33.6636 42.3554 33.5058 42.3551 33.3432 42.3549C33.1859 42.3511 33.0286 42.3474 32.8665 42.3435C32.079 42.4939 31.4629 42.8848 30.9621 43.5193C30.7281 43.8827 30.5122 44.2519 30.3004 44.6287C30.2214 44.764 30.1424 44.8993 30.061 45.0388C29.8109 45.4683 29.5645 45.8997 29.3183 46.3314C29.0687 46.764 28.8183 47.1962 28.5674 47.6281C28.412 47.8962 28.2574 48.1647 28.1038 48.4339C27.8143 48.9374 27.5554 49.3754 27.1427 49.7881C26.7601 49.8411 26.7601 49.8411 26.2818 49.8477C26.1007 49.851 25.9196 49.8543 25.733 49.8577C25.5337 49.8594 25.3344 49.861 25.129 49.8627C24.8148 49.8675 24.8148 49.8675 24.4943 49.8723C23.7988 49.8819 23.1033 49.8883 22.4078 49.8939C22.1706 49.896 21.9335 49.898 21.6892 49.9001C20.5635 49.9094 19.4378 49.9169 18.3121 49.9218C17.1424 49.927 15.9731 49.9372 14.8036 49.9553C13.5492 49.9743 12.2951 49.9839 11.0406 49.9867C10.5622 49.9893 10.0838 49.9952 9.60554 50.0044C8.93582 50.0166 8.26712 50.0167 7.59731 50.0138C7.39956 50.0202 7.20181 50.0265 6.99807 50.033C6.43089 50.0231 6.01209 49.9959 5.48347 49.7881C4.96176 49.1993 4.64454 48.5677 4.32315 47.8543C4.20599 47.6504 4.08883 47.4464 3.96811 47.2363C2.84308 45.0948 2.09975 42.8224 1.42236 40.5056C1.36085 40.2954 1.36085 40.2954 1.29809 40.081C0.254635 36.27 0.414861 31.1497 1.42236 27.3553C1.45452 27.2255 1.48668 27.0957 1.51981 26.9619C2.67043 22.3488 4.93445 18.061 8.19088 14.5918C8.29957 14.4749 8.40826 14.3581 8.52024 14.2376C12.3211 10.1879 17.118 7.16761 22.5015 5.69605C22.6392 5.65785 22.7769 5.61964 22.9187 5.58028C27.0945 4.47794 32.2375 4.39071 36.4253 5.50266Z" fill="#FA6C5D"/>
<path d="M58.0845 38.9586C58.2122 38.9586 58.3398 38.9586 58.4713 38.9586C58.5295 39.0711 58.5876 39.1835 58.6475 39.2994C59.8083 41.5415 60.9825 43.7746 62.1984 45.9872C62.7605 47.0113 63.3153 48.0387 63.8627 49.0706C63.9923 49.3144 64.1219 49.5583 64.2515 49.8021C64.4412 50.1591 64.6306 50.5162 64.8189 50.8739C65.2081 51.613 65.6067 52.3461 66.0134 53.0758C66.1533 53.3358 66.1533 53.3358 66.2961 53.6011C66.3868 53.7556 66.4775 53.91 66.5709 54.0692C66.6835 54.2669 66.6835 54.2669 66.7984 54.4686C67.935 55.5216 69.6237 55.4822 71.0823 55.4801C71.2919 55.482 71.5015 55.484 71.7175 55.486C72.4049 55.4919 73.0923 55.4937 73.7798 55.4954C74.2586 55.4987 74.7374 55.5022 75.2162 55.5059C76.4723 55.5151 77.7283 55.5209 78.9845 55.5259C80.2679 55.5317 81.5512 55.5407 82.8346 55.5494C85.3497 55.566 87.8649 55.5791 90.3801 55.5898C89.531 56.6052 88.6379 57.5537 87.7017 58.4887C87.5524 58.6386 87.4032 58.7884 87.2494 58.9429C86.7515 59.4424 86.2529 59.9413 85.7543 60.4401C85.3962 60.7991 85.0382 61.1582 84.6801 61.5172C83.7093 62.4907 82.7378 63.4633 81.7662 64.4358C81.159 65.0435 80.5521 65.6513 79.9451 66.2591C78.2631 67.9435 76.5809 69.6277 74.898 71.3112C74.7905 71.4188 74.683 71.5263 74.5722 71.6372C74.4106 71.7988 74.4106 71.7988 74.2457 71.9638C74.0274 72.1822 73.809 72.4006 73.5907 72.619C73.4283 72.7815 73.4283 72.7815 73.2626 72.9473C71.5061 74.7046 69.751 76.4631 67.9964 78.2222C66.193 80.0301 64.3886 81.8369 62.5831 83.6427C61.5701 84.6558 60.5576 85.6694 59.5463 86.6842C58.5957 87.6381 57.6437 88.5905 56.6906 89.5419C56.3411 89.8912 55.992 90.2411 55.6436 90.5915C55.1678 91.0697 54.6903 91.5461 54.2123 92.0221C54.0061 92.2306 54.0061 92.2306 53.7957 92.4434C52.9049 93.3254 52.0311 94.1352 50.7593 94.3699C50.588 94.3679 50.4168 94.3659 50.2403 94.3638C49.9827 94.3668 49.9827 94.3668 49.7198 94.3699C48.5509 94.1437 47.7191 93.24 46.9082 92.4185C46.8017 92.3122 46.6952 92.2059 46.5854 92.0964C46.2309 91.742 45.8778 91.3864 45.5247 91.0307C45.2699 90.7755 45.0151 90.5203 44.7601 90.2653C44.2122 89.7168 43.6649 89.1678 43.1181 88.6182C42.2526 87.7484 41.3858 86.88 40.5187 86.0117C39.1466 84.6375 37.7755 83.2623 36.4047 81.8867C33.952 79.4254 31.4982 76.9652 29.0434 74.506C28.1826 73.6436 27.3223 72.7806 26.4625 71.9172C25.9263 71.3789 25.3896 70.841 24.8529 70.3032C24.6051 70.0548 24.3576 69.8062 24.1102 69.5574C23.001 68.4423 21.8959 67.3335 20.698 66.3124C20.1944 65.8774 19.7286 65.4117 19.2577 64.9412C19.1575 64.8414 19.0573 64.7415 18.9541 64.6386C18.6293 64.3146 18.3051 63.99 17.981 63.6652C17.7535 63.4378 17.5259 63.2104 17.2983 62.983C16.8247 62.5097 16.3514 62.0361 15.8784 61.5622C15.2709 60.9535 14.6624 60.3456 14.0537 59.7381C13.5852 59.2703 13.1171 58.802 12.6492 58.3336C12.4248 58.1091 12.2003 57.8847 11.9756 57.6605C11.6636 57.349 11.3522 57.0369 11.041 56.7246C10.8636 56.547 10.6862 56.3694 10.5034 56.1865C10.1247 55.7832 10.1247 55.7832 10.1247 55.5898C10.4691 55.5875 10.4691 55.5875 10.8204 55.5851C12.9857 55.5701 15.1511 55.5531 17.3163 55.5342C18.4295 55.5246 19.5427 55.5156 20.6558 55.5083C21.7304 55.5011 22.805 55.4922 23.8796 55.4819C24.2892 55.4783 24.6989 55.4754 25.1085 55.4732C25.683 55.4699 26.2574 55.4643 26.8319 55.4581C27.085 55.4575 27.085 55.4575 27.3432 55.4569C28.5288 55.4407 29.5817 55.3745 30.5436 54.6146C31.2682 53.727 31.8111 52.7451 32.3778 51.752C32.4675 51.5993 32.5572 51.4466 32.6497 51.2893C32.7296 51.1496 32.8096 51.0099 32.8919 50.866C32.973 50.7656 33.0541 50.6652 33.1377 50.5618C33.3292 50.5618 33.5206 50.5618 33.7179 50.5618C34.0009 50.9111 34.0009 50.9111 34.3003 51.4071C34.4699 51.6839 34.4699 51.6839 34.643 51.9663C34.7645 52.1689 34.886 52.3715 35.0111 52.5803C35.273 53.0082 35.5351 53.4361 35.7975 53.8637C35.865 53.9743 35.9325 54.0848 36.002 54.1987C37.0846 55.9707 38.2168 57.7116 39.3411 59.4574C39.708 60.0302 40.0708 60.6055 40.4327 61.1814C40.6561 61.5335 40.8794 61.8855 41.1028 62.2375C41.2027 62.3985 41.3025 62.5595 41.4054 62.7253C42.1022 63.8181 42.1022 63.8181 43.1938 64.4856C43.6752 64.5761 43.6752 64.5761 44.1607 64.5581C44.3203 64.5596 44.4798 64.5611 44.6442 64.5627C45.2629 64.4641 45.5991 64.2912 46.0946 63.9055C46.4492 63.3694 46.4492 63.3694 46.7473 62.6968C46.8099 62.5656 46.8726 62.4344 46.9371 62.2993C47.0855 61.9886 47.2327 61.6774 47.3791 61.3658C47.6805 60.7293 47.9889 60.0963 48.2981 59.4636C49.6009 56.795 50.8755 54.1154 52.1187 51.4184C52.9273 49.6683 53.7621 47.9319 54.605 46.1981C55.5164 44.3224 56.3978 42.4347 57.2556 40.5338C57.3776 40.2642 57.3776 40.2642 57.5021 39.989C57.573 39.8313 57.6439 39.6735 57.7169 39.511C57.8912 39.152 57.8912 39.152 58.0845 38.9586Z" fill="#FA6C5D"/>
</g>
<defs>
<clipPath id="clip0_891_1193">
<rect width="99.0138" height="99.0138" fill="white" transform="translate(0.842285 0.0878906)"/>
</clipPath>
</defs>
</svg>
