<svg width="100" height="100" viewBox="0 0 100 100" fill="none" xmlns="http://www.w3.org/2000/svg">
<g clip-path="url(#clip0_891_1196)">
<path d="M27.1419 6.20127C27.3503 6.20023 27.5587 6.19918 27.7734 6.19811C28.466 6.19536 29.1586 6.19672 29.8513 6.1981C30.3502 6.197 30.8491 6.19565 31.348 6.19408C32.5592 6.19077 33.7703 6.19059 34.9815 6.19161C35.9668 6.19239 36.9521 6.19211 37.9374 6.19107C38.1484 6.19086 38.1484 6.19086 38.3636 6.19064C38.6493 6.19034 38.935 6.19004 39.2208 6.18974C41.8963 6.18709 44.5718 6.18814 47.2474 6.19036C49.6902 6.19228 52.133 6.18978 54.5759 6.18515C57.0895 6.18043 59.6031 6.17858 62.1167 6.17986C63.5258 6.18054 64.9348 6.18012 66.3439 6.17672C67.6695 6.17356 68.995 6.1745 70.3206 6.17813C70.8056 6.17884 71.2907 6.17825 71.7757 6.17622C76.0153 6.15984 79.3234 6.63817 82.5341 9.68392C84.7884 11.9991 85.6542 14.566 86.5654 17.5987C86.7457 18.1975 86.9291 18.7952 87.1129 19.3928C87.831 21.74 88.5167 24.0937 89.1731 26.4587C89.4896 27.5983 89.8126 28.7361 90.1367 29.8736C90.4111 30.839 90.6769 31.8064 90.9366 32.7759C91.1031 33.3887 91.2775 33.999 91.4541 34.6089C91.5348 34.8938 91.6122 35.1796 91.6859 35.4663C92.0312 36.8025 92.3547 37.9112 93.573 38.7028C93.8932 38.8866 94.2223 39.0545 94.5517 39.2213C97.0852 40.5316 98.6431 43.135 99.6132 45.7271C100.033 47.2375 100.058 48.684 100.056 50.244C100.057 50.5212 100.059 50.7984 100.06 51.0756C100.064 51.824 100.064 52.5723 100.065 53.3207C100.065 53.7893 100.066 54.2578 100.067 54.7263C100.07 56.3637 100.072 58.001 100.072 59.6383C100.071 61.1603 100.076 62.6822 100.082 64.2042C100.087 65.5149 100.089 66.8255 100.089 68.1361C100.088 68.9172 100.09 69.6983 100.094 70.4793C100.097 71.2142 100.097 71.9489 100.095 72.6837C100.094 72.952 100.095 73.2203 100.097 73.4886C100.114 75.5634 99.8547 77.3244 98.3955 78.8868C97.0054 80.1366 95.6476 80.5573 93.8117 80.5366C93.8157 80.7608 93.8198 80.985 93.8239 81.216C93.838 82.0558 93.8469 82.8955 93.8542 83.7353C93.858 84.0973 93.8633 84.4593 93.87 84.8212C93.9529 89.3943 93.9529 89.3943 92.2072 91.2635C90.6681 92.6473 89.1142 92.9737 87.0945 92.9783C86.8947 92.9796 86.6949 92.9809 86.489 92.9822C86.0671 92.9841 85.6451 92.9851 85.2232 92.985C84.5823 92.9858 83.9416 92.9929 83.3008 93.0002C82.8894 93.0013 82.4779 93.0021 82.0665 93.0025C81.7823 93.0066 81.7823 93.0066 81.4925 93.0109C79.7358 92.9994 78.1981 92.5246 76.8964 91.3088C74.1659 88.2718 75.2466 84.7074 75.2466 80.5366C58.9093 80.5366 42.572 80.5366 25.7397 80.5366C25.7397 83.0893 25.7397 85.642 25.7397 88.2721C24.9132 90.3381 24.2264 91.5608 22.2587 92.5266C21.182 92.9832 20.1724 92.9757 19.0225 92.9783C18.8227 92.9796 18.6229 92.9809 18.417 92.9822C17.9951 92.9841 17.5731 92.9851 17.1512 92.985C16.5103 92.9858 15.8697 92.9929 15.2288 93.0002C14.8174 93.0013 14.4059 93.0021 13.9945 93.0025C13.7103 93.0066 13.7103 93.0066 13.4205 93.0109C11.6638 92.9994 10.1261 92.5246 8.8244 91.3088C7.52007 89.8581 7.11339 88.3809 7.1368 86.4666C7.13735 86.2966 7.1379 86.1265 7.13846 85.9513C7.14062 85.4114 7.14547 84.8716 7.1504 84.3318C7.15234 83.9644 7.15411 83.597 7.15569 83.2297C7.15994 82.3319 7.16661 81.4343 7.17457 80.5366C6.93016 80.5392 6.68575 80.5419 6.43394 80.5446C4.974 80.5605 3.69372 79.9199 2.63604 78.9321C1.53093 77.7029 0.939008 76.3553 0.935796 74.6922C0.934425 74.4547 0.933055 74.2173 0.931644 73.9727C0.932087 73.7121 0.932573 73.4515 0.933095 73.1908C0.932254 72.9144 0.931252 72.6379 0.9301 72.3614C0.927515 71.6122 0.927397 70.8629 0.927887 70.1137C0.928095 69.4866 0.927151 68.8596 0.926226 68.2325C0.924081 66.7515 0.923993 65.2706 0.925164 63.7896C0.92633 62.2664 0.923956 60.7433 0.919831 59.2201C0.916413 57.909 0.915267 56.5978 0.915895 55.2867C0.916244 54.5052 0.91575 53.7237 0.913047 52.9421C0.910597 52.2059 0.911007 51.4698 0.913514 50.7335C0.913967 50.4651 0.913456 50.1966 0.911846 49.9282C0.891911 46.3421 1.94546 43.3247 4.4106 40.7021C5.3882 39.7213 6.5499 38.8975 7.84071 38.3835C8.6067 37.776 8.73167 37.0097 8.99125 36.0907C9.04958 35.8953 9.1079 35.6999 9.168 35.4986C9.36057 34.8505 9.54797 34.2009 9.73543 33.5513C9.86921 33.0978 10.0033 32.6444 10.1378 32.1912C10.4921 30.9938 10.8421 29.7952 11.1911 28.5963C11.6797 26.9205 12.1741 25.2464 12.6679 23.5721C12.9304 22.6816 13.1915 21.7907 13.4512 20.8994C14.0255 18.9341 14.614 16.9754 15.2561 15.031C15.3104 14.8654 15.3647 14.6997 15.4207 14.5291C16.5665 11.1146 19.012 8.7282 22.1847 7.11928C23.8342 6.45641 25.3701 6.19046 27.1419 6.20127ZM27.2868 18.653C23.6502 27.7987 23.6502 27.7987 21.8719 37.2181C40.7619 37.2181 59.6519 37.2181 79.1143 37.2181C77.8501 30.897 75.5649 24.8234 73.6995 18.653C58.3833 18.653 43.0671 18.653 27.2868 18.653ZM20.905 55.0096C19.7523 56.7071 19.5903 58.1928 19.7447 60.231C20.1012 61.803 20.984 63.109 22.3191 64.0157C23.9868 64.9756 25.7476 65.1775 27.6463 64.7469C29.3758 64.1185 30.5189 63.0286 31.3652 61.4133C32.0094 59.9175 31.9841 58.0023 31.4325 56.4842C30.6665 54.8532 29.5163 53.7861 27.8669 53.0757C25.3256 52.2411 22.6372 53.0388 20.905 55.0096ZM70.4119 55.0096C69.2592 56.7071 69.0972 58.1928 69.2516 60.231C69.6081 61.803 70.4909 63.109 71.8261 64.0157C73.4937 64.9756 75.2545 65.1775 77.1532 64.7469C78.8827 64.1185 80.0258 63.0286 80.8721 61.4133C81.5163 59.9175 81.491 58.0023 80.9394 56.4842C80.1734 54.8532 79.0232 53.7861 77.3738 53.0757C74.8325 52.2411 72.1441 53.0388 70.4119 55.0096Z" fill="#E39F62"/>
</g>
<defs>
<clipPath id="clip0_891_1196">
<rect width="99.0138" height="99.0138" fill="white" transform="translate(0.986206 0.0878906)"/>
</clipPath>
</defs>
</svg>
