<?xml version="1.0" encoding="UTF-8"?>
<!DOCTYPE svg PUBLIC "-//W3C//DTD SVG 1.1//EN" "http://www.w3.org/Graphics/SVG/1.1/DTD/svg11.dtd">
<svg xmlns="http://www.w3.org/2000/svg" version="1.1" width="512px" height="512px" style="shape-rendering:geometricPrecision; text-rendering:geometricPrecision; image-rendering:optimizeQuality; fill-rule:evenodd; clip-rule:evenodd" xmlns:xlink="http://www.w3.org/1999/xlink">
<g><path style="opacity:0.989"  d="M 247.5,25.5 C 294.69,24.8913 326.524,46.558 343,90.5C 346.124,104.317 347.29,118.317 346.5,132.5C 367.542,128.726 385.709,134.06 401,148.5C 405.637,154.106 408.971,160.439 411,167.5C 417.663,252.438 423.663,337.438 429,422.5C 433.805,449.824 423.972,469.658 399.5,482C 397.212,482.822 394.878,483.489 392.5,484C 346.864,485.151 301.198,485.651 255.5,485.5C 209.802,485.651 164.136,485.151 118.5,484C 100.84,479.007 89.0071,467.84 83,450.5C 81.4806,441.219 81.1473,431.886 82,422.5C 87.3374,337.438 93.3374,252.438 100,167.5C 106.11,148.524 118.944,137.024 138.5,133C 147.16,132.5 155.827,132.334 164.5,132.5C 160.694,81.2315 182.694,46.7315 230.5,29C 236.265,27.6145 241.931,26.4478 247.5,25.5 Z M 249.5,58.5 C 281.414,58.2631 302.247,73.2631 312,103.5C 313.359,113.109 313.859,122.776 313.5,132.5C 274.833,132.5 236.167,132.5 197.5,132.5C 193.754,92.569 211.087,67.9023 249.5,58.5 Z M 185.5,218.5 C 189.813,218.548 193.813,219.715 197.5,222C 201.79,228.08 205.957,234.247 210,240.5C 231.601,262.445 256.434,266.945 284.5,254C 290.827,250.577 296.327,246.077 301,240.5C 305.043,234.247 309.21,228.08 313.5,222C 323.001,216.61 330.835,218.443 337,227.5C 339.36,234.308 338.36,240.642 334,246.5C 309.618,283.933 275.451,298.1 231.5,289C 207.64,282.151 189.474,267.985 177,246.5C 169.116,233.663 171.949,224.329 185.5,218.5 Z"/></g>
</svg>
