<svg width="82" height="15" viewBox="0 0 82 15" fill="none" xmlns="http://www.w3.org/2000/svg">
<g clip-path="url(#clip0_464_1095)">
<path d="M80.8806 7.49741L75.8877 3.60179C75.7907 3.52737 75.6762 3.49036 75.5443 3.49036C75.4478 3.49036 75.3576 3.51453 75.2735 3.56326C75.1906 3.61161 75.1177 3.67583 75.0556 3.75591C74.9943 3.83599 74.9446 3.93004 74.9069 4.03846C74.8697 4.14687 74.8508 4.26397 74.8508 4.38937C74.8508 4.71461 74.9654 4.97449 75.1938 5.16865L79.2159 8.28499L75.1938 11.4187C74.9654 11.6129 74.8508 11.8697 74.8508 12.1893C74.8508 12.4462 74.9181 12.6585 75.0524 12.8269C75.1866 12.9954 75.3508 13.08 75.5443 13.08C75.6762 13.08 75.7907 13.0422 75.8877 12.9686L80.8806 9.08127C81.1225 8.88711 81.2439 8.62194 81.2439 8.28537C81.2439 7.97109 81.1225 7.70856 80.8806 7.49741Z" fill="#F6921E" fill-opacity="0.7"/>
<path d="M63.0315 9.92327C62.3236 9.25505 61.9694 8.44783 61.9694 7.50008C61.9694 6.55271 62.324 5.74511 63.0315 5.07727C63.7399 4.40942 64.5964 4.0755 65.6013 4.0755C66.6065 4.0755 67.4627 4.40942 68.171 5.07727C68.5212 5.40703 68.7836 5.77042 68.9615 6.16817L69.637 4.57563C69.5036 4.41547 69.3573 4.25984 69.1975 4.10988C68.2051 3.17346 67.0063 2.70544 65.6013 2.70544C64.197 2.70544 62.9983 3.17346 62.0051 4.10988C61.0119 5.04629 60.5159 6.17611 60.5159 7.50008C60.5159 8.82443 61.0119 9.95463 62.0051 10.891C62.9983 11.8275 64.197 12.2951 65.6013 12.2951C65.8697 12.2951 66.1297 12.2777 66.3825 12.2433L67.0592 10.6497C66.6141 10.8329 66.1281 10.925 65.6009 10.925C64.5964 10.9247 63.7399 10.5911 63.0315 9.92327Z" fill="white" fill-opacity="0.7"/>
<path d="M74.5746 0.261017C74.3899 0.0868799 74.1672 0 73.9072 0C73.6463 0 73.426 0.0857467 73.2441 0.256862C73.1531 0.342609 73.0838 0.434022 73.0354 0.530723L67.4323 13.7331C67.3774 13.8641 67.3506 13.9869 67.3506 14.1014C67.3506 14.3586 67.4399 14.5724 67.6182 14.7435C67.7965 14.9146 68.0225 15.0004 68.2949 15.0004C68.6523 15.0004 68.9428 14.8232 69.1671 14.4697L74.7693 1.26731C74.8242 1.15324 74.8511 1.02745 74.8511 0.890708C74.8511 0.645178 74.7589 0.435155 74.5746 0.261017Z" fill="#F6921E" fill-opacity="0.7"/>
<path d="M35.0896 3.94858C35.0896 3.94783 35.0896 3.94707 35.0896 3.94707C34.3576 3.27961 33.5066 2.88147 32.5379 2.75228C32.5359 2.75191 32.5339 2.75191 32.5315 2.75153C32.497 2.747 32.463 2.74284 32.4281 2.73906C32.4237 2.73869 32.4193 2.73793 32.4145 2.73717C32.3816 2.73377 32.3492 2.73075 32.3167 2.72773C32.3103 2.72735 32.3039 2.7266 32.2971 2.72622C32.2662 2.72358 32.2358 2.72131 32.2045 2.71904C32.1961 2.71867 32.1877 2.71791 32.1793 2.71753C32.15 2.71564 32.1204 2.71413 32.0912 2.71262C32.0807 2.71224 32.0707 2.71149 32.0599 2.71111C32.0311 2.70998 32.0014 2.70922 31.9718 2.70847C31.9613 2.70809 31.9513 2.70771 31.9401 2.70733C31.9012 2.7062 31.8612 2.70582 31.8215 2.70544H31.8203H31.8191C31.779 2.70582 31.7394 2.70582 31.7001 2.70658C31.6897 2.70696 31.6789 2.70733 31.6685 2.70771C31.6388 2.70847 31.6096 2.70922 31.5803 2.71035C31.5703 2.71073 31.5595 2.71149 31.5495 2.71187C31.5198 2.71338 31.4906 2.71451 31.4613 2.71678C31.4529 2.71715 31.4445 2.71791 31.4361 2.71829C31.4048 2.72055 31.374 2.72282 31.3435 2.72546C31.3367 2.72584 31.3303 2.7266 31.3235 2.72698C31.2911 2.73 31.2582 2.7334 31.2258 2.73642C31.2213 2.7368 31.2169 2.73755 31.2121 2.73831C31.1777 2.74208 31.1432 2.74624 31.1092 2.75077C31.1072 2.75115 31.1048 2.75115 31.1028 2.75153C30.1336 2.88071 29.283 3.27885 28.5506 3.94632V3.94783C28.5278 3.9686 28.505 3.98938 28.4829 4.01053C27.5598 4.88084 27.0979 5.92982 27.0979 7.15672V11.6091C27.0979 11.6458 27.1015 11.6809 27.1067 11.7156C27.1275 11.8509 27.19 11.971 27.2938 12.0749C27.2998 12.0809 27.305 12.0866 27.3114 12.0926C27.3187 12.0994 27.3259 12.1051 27.3335 12.1119C27.4328 12.1988 27.5458 12.2554 27.6728 12.2792C27.7213 12.2887 27.7722 12.294 27.8247 12.294C27.8776 12.294 27.928 12.2887 27.9769 12.2792C28.1035 12.2554 28.2165 12.1988 28.3163 12.1119C28.3235 12.1051 28.3307 12.0994 28.3379 12.0926C28.3443 12.0866 28.3495 12.0809 28.3555 12.0749C28.4577 11.9721 28.5202 11.8535 28.5418 11.7202C28.5474 11.6839 28.551 11.6473 28.551 11.6091V7.15747C28.551 6.97162 28.5667 6.79144 28.5971 6.61731C28.7009 6.02501 28.9817 5.50184 29.4389 5.04705C29.4621 5.024 29.4853 5.00134 29.5094 4.97868C29.5326 4.95639 29.5563 4.93524 29.5799 4.91408C30.1612 4.39394 30.8487 4.11592 31.6412 4.07966C31.7005 4.07701 31.7598 4.0755 31.8207 4.0755C31.8812 4.0755 31.9405 4.07701 31.9998 4.07966C32.7927 4.11592 33.4802 4.39431 34.0611 4.91408C34.0848 4.93524 34.1084 4.95677 34.1316 4.97868C34.1557 5.00134 34.1793 5.024 34.2022 5.04705C34.6597 5.50184 34.9401 6.02501 35.0443 6.61731C35.0744 6.79144 35.09 6.97162 35.09 7.15747V11.6099C35.09 11.6465 35.0932 11.6816 35.0988 11.7164C35.1196 11.8516 35.1821 11.9718 35.2859 12.0756C35.2919 12.0817 35.2971 12.0873 35.3031 12.0934C35.4454 12.2275 35.6164 12.2947 35.816 12.2947C36.0159 12.2947 36.187 12.2275 36.3292 12.0934C36.471 11.9593 36.5423 11.7984 36.5423 11.6099V7.15747C36.5423 5.93058 36.0808 4.8816 35.1577 4.01129C35.1353 3.99013 35.1124 3.96936 35.0896 3.94858Z" fill="white" fill-opacity="0.7"/>
<path d="M37.9954 7.50001C37.9954 8.82436 38.4918 9.95456 39.4846 10.891C40.3059 11.6653 41.2682 12.1186 42.3712 12.2527V10.8649C41.6665 10.7418 41.0463 10.4282 40.5106 9.9232C39.8019 9.25498 39.4485 8.44776 39.4485 7.50001C39.4485 6.55264 39.8023 5.74504 40.5106 5.07719C41.0463 4.57254 41.6665 4.25863 42.3712 4.13511V2.74768C41.2682 2.8814 40.3059 3.33506 39.4846 4.10943C38.4918 5.04584 37.9954 6.17604 37.9954 7.50001Z" fill="white" fill-opacity="0.7"/>
<path d="M43.7903 2.74768V4.13511C44.495 4.25863 45.116 4.57216 45.6513 5.07719C46.3596 5.74504 46.7134 6.55264 46.7134 7.50001C46.7134 8.44776 46.3596 9.25498 45.6513 9.9232C45.116 10.4282 44.4954 10.7418 43.7903 10.8649V12.2527C44.8933 12.1186 45.8556 11.6646 46.6773 10.891C47.6701 9.95456 48.1661 8.82436 48.1661 7.50001C48.1661 6.17604 47.6701 5.04584 46.6773 4.10981C45.8556 3.33544 44.8933 2.88178 43.7903 2.74768Z" fill="white" fill-opacity="0.7"/>
<path d="M50.8634 2.90262C50.7184 2.77117 50.5457 2.70544 50.3454 2.70544C50.1462 2.70544 49.9752 2.77268 49.8329 2.90678C49.6907 3.04088 49.6194 3.20217 49.6194 3.39028C49.6194 3.48736 49.6374 3.57613 49.6743 3.65584L52.5012 9.46055L53.2981 7.81587L50.9992 3.08243C50.9571 3.00839 50.9115 2.94833 50.8634 2.90262Z" fill="white" fill-opacity="0.7"/>
<path d="M58.3367 2.70544C58.1364 2.70544 57.9669 2.77117 57.8275 2.90262C57.7734 2.94833 57.7245 3.00839 57.6828 3.08243L55.4552 7.66969C55.4436 7.70066 55.43 7.73012 55.414 7.75921L53.5474 11.611L53.7048 11.9347C53.7417 12.0091 53.7805 12.0639 53.8234 12.0979C53.956 12.2294 54.1287 12.2947 54.3406 12.2947C54.553 12.2947 54.7253 12.232 54.8579 12.1066C54.9007 12.0666 54.9396 12.0091 54.9765 11.9347L59.0082 3.65583C59.045 3.57613 59.0631 3.48736 59.0631 3.39028C59.0631 3.20217 58.9917 3.04088 58.8495 2.90678C58.7073 2.77268 58.5362 2.70544 58.3367 2.70544Z" fill="white" fill-opacity="0.7"/>
<path d="M21.2688 2.72681V4.11424C21.9739 4.23738 22.5941 4.55128 23.1294 5.05594C23.6622 5.55834 23.9951 6.13779 24.1286 6.79392H16.9911C17.1245 6.13779 17.457 5.55834 17.9899 5.05594C18.5255 4.55128 19.1457 4.23738 19.8509 4.11386V2.72681C18.7479 2.86053 17.7851 3.31419 16.9638 4.08855C15.971 5.02459 15.4746 6.15478 15.4746 7.47876C15.4746 8.80311 15.971 9.93293 16.9638 10.8693C17.9566 11.8058 19.1549 12.2734 20.56 12.2734C21.8309 12.2734 22.9358 11.8881 23.8742 11.1175C24.0132 10.9808 24.0829 10.8176 24.0829 10.6295C24.0829 10.4414 24.0116 10.2797 23.8697 10.146C23.7271 10.0123 23.5564 9.94501 23.3565 9.94501C23.187 9.94501 23.0356 9.99336 22.9026 10.0904C22.2491 10.6329 21.4675 10.9037 20.56 10.9037C19.5548 10.9037 18.6982 10.5698 17.9895 9.90233C17.4566 9.39994 17.1241 8.82086 16.9907 8.16398H24.9182C25.1182 8.16398 25.2888 8.09674 25.4315 7.96264C25.5733 7.82892 25.6446 7.66725 25.6446 7.47914C25.6446 6.15516 25.1482 5.02497 24.1554 4.08855C23.3345 3.31419 22.3721 2.86053 21.2688 2.72681Z" fill="white" fill-opacity="0.7"/>
</g>
<path d="M0.700838 10V3.14148H2.04521V4.7371C2.04521 4.92517 2.03934 5.10882 2.02758 5.28807C2.01583 5.46732 2.00407 5.60837 1.99232 5.71122H2.04521C2.17745 5.50846 2.35523 5.33656 2.57856 5.19551C2.80188 5.05152 3.09133 4.97953 3.44689 4.97953C3.99933 4.97953 4.44599 5.19551 4.78686 5.62747C5.13066 6.0565 5.30257 6.68975 5.30257 7.52723C5.30257 8.37059 5.12773 9.00825 4.77804 9.44021C4.4313 9.87217 3.97436 10.0882 3.40722 10.0882C3.04872 10.0882 2.76515 10.0235 2.55652 9.89421C2.34788 9.76492 2.17745 9.61946 2.04521 9.45784H1.95706L1.72785 10H0.700838ZM3.01052 6.05503C2.66377 6.05503 2.41694 6.16522 2.27001 6.38561C2.12602 6.606 2.05109 6.93512 2.04521 7.37296V7.51842C2.04521 7.99446 2.11574 8.3603 2.25679 8.61595C2.39784 8.87161 2.65496 8.99943 3.02815 8.99943C3.30731 8.99943 3.5277 8.87161 3.68932 8.61595C3.85094 8.3603 3.93175 7.99152 3.93175 7.5096C3.93175 7.02768 3.84947 6.66477 3.68491 6.42088C3.52035 6.17698 3.29556 6.05503 3.01052 6.05503ZM7.49535 10.2072L7.57469 9.96474L5.61764 5.07209H7.08984L8.01988 7.84459C8.10804 8.10612 8.1624 8.39116 8.18297 8.6997H8.20942C8.22705 8.54396 8.25056 8.39703 8.27994 8.25892C8.30933 8.12081 8.349 7.9827 8.39895 7.84459L9.31136 5.07209H10.7527L8.66783 10.6303C8.47682 11.1416 8.20354 11.5251 7.84798 11.7807C7.49242 12.0393 7.07955 12.1686 6.60939 12.1686C6.45365 12.1686 6.32141 12.1598 6.21269 12.1422C6.10396 12.1275 6.00846 12.1113 5.92618 12.0937V11.027C5.98495 11.0417 6.06282 11.0549 6.1598 11.0667C6.25677 11.0784 6.35521 11.0843 6.45512 11.0843C6.74015 11.0843 6.96348 10.9976 7.1251 10.8243C7.28672 10.6538 7.41014 10.4481 7.49535 10.2072Z" fill="white" fill-opacity="0.7"/>
<defs>
<clipPath id="clip0_464_1095">
<rect width="65.7692" height="15" fill="white" transform="translate(15.4749)"/>
</clipPath>
</defs>
</svg>
