<svg width="405" height="62" viewBox="0 0 405 62" fill="none" xmlns="http://www.w3.org/2000/svg">
<path d="M236.652 24.5C241.062 7.11807 246.523 1.49623 262.356 0H385.288C395.782 0 402.279 5.5 404.778 18C404.778 18 405.278 33 404.778 44C404.278 55 393.783 59.5 385.788 61C385.788 61 29.9835 62 18.4898 61C6.99615 60 1.49918 53.5 0 43V16C0 10 7.99561 -0.000700919 18.9896 0C28.6971 0.00061897 117.498 0.000144851 139.866 2.54236e-05L144.92 0C161.624 1.28807 165.5 7.5 169 24.5C174.799 44.224 182.103 50.5105 203.388 52C224.052 51 230.471 44.897 236.652 24.5Z" fill="#ECECEC"/>
</svg>
