<svg width="147" height="137" viewBox="0 0 147 137" fill="none" xmlns="http://www.w3.org/2000/svg">
<path d="M127.023 58.9512C131.017 57.3259 134.183 54.9546 136.127 51.1779C138.998 45.6187 138.471 45.1476 133.338 42.9569C127.784 40.5856 122.034 41.1353 116.375 42.6664C115.003 43.0354 114.099 42.7999 112.976 41.9519C108.228 38.3871 102.787 36.4712 97.1729 35.0108C96.5776 34.8538 95.9898 34.681 95.4999 34.5475C95.8089 31.5874 96.359 28.7764 96.359 25.9654C96.3892 6.44556 76.087 -6.14889 59.5831 3.0928C59.0329 3.39902 58.3019 3.63458 58.0156 4.1214C57.6614 4.7417 57.3976 5.72319 57.6312 6.31208C57.8046 6.75179 58.8295 6.90882 59.4926 7.00305C59.8167 7.05016 60.1935 6.67327 60.5477 6.47697C68.2495 2.19768 75.9363 2.25264 83.2312 7.2386C90.5337 12.2324 93.7139 19.6054 92.9527 28.6429C92.493 34.0921 90.187 38.7797 86.2909 42.5015C85.7784 42.9883 84.8892 43.3417 84.2034 43.3024C76.6372 42.8313 69.1614 43.4516 61.8137 45.391C60.6456 45.6972 59.7715 45.5402 58.8068 44.8335C50.9317 39.1016 47.5781 28.423 50.7206 18.9301C50.8864 18.4276 51.0522 17.9172 51.218 17.4147C51.5572 16.3625 51.3386 15.4595 50.2986 15.0905C49.2888 14.7293 48.5427 15.2161 48.1358 16.2683C46.6361 20.1314 45.7468 24.1595 46.3648 28.2739C46.9225 31.98 48.0227 35.5918 48.9572 39.5413C42.9359 42.5722 37.1934 46.8515 32.2498 52.3085C27.2383 57.8284 23.8772 64.2434 22.2419 71.8598C19.1672 70.9254 16.8461 69.1744 14.6229 66.8031C15.2409 66.4891 15.678 66.2771 16.1151 66.0494C19.5289 64.2905 21.8952 61.6444 22.5358 57.6164C23.2969 52.866 19.3706 49.2463 14.8942 50.5183C11.3899 51.5076 9.04622 54.8211 8.86536 59.1004C8.81261 60.2782 8.85783 61.456 8.85783 63.1363C7.38077 62.2098 6.02428 61.456 4.78082 60.5373C3.95186 59.9249 3.38664 58.8806 2.51247 58.4016C1.86436 58.0483 0.907272 58.3074 0.0933838 58.2917C0.108459 59.0926 -0.18544 60.1761 0.198898 60.6473C2.57275 63.5289 5.41383 65.7431 9.05376 66.7089C9.8978 66.9288 10.787 67.5648 11.3297 68.2793C13.4473 71.051 16.0472 73.2024 19.1898 74.3802C21.2471 75.1497 21.6465 76.2097 21.6239 78.3612C21.5335 87.7442 24.6082 96.185 29.371 103.982C31.353 107.225 33.7645 110.185 35.9726 113.286C36.4398 113.946 36.9146 114.629 37.2612 115.367C40.336 121.861 43.4333 128.346 46.4025 134.895C47.1259 136.489 48.0453 137.038 49.6957 136.999C54.7148 136.881 59.7338 136.913 64.7528 136.881C67.0965 136.866 67.5336 136.387 67.624 133.992C67.7295 131.032 67.8803 128.072 68.0159 125.025C70.548 125.323 72.9596 125.897 75.356 125.826C79.953 125.692 84.55 125.284 89.132 124.797C90.5186 124.648 91.1667 124.852 91.5586 126.336C92.2896 129.077 93.2617 131.746 94.0605 134.471C94.4826 135.916 95.2286 136.591 96.7584 136.591C101.205 136.607 105.651 136.771 110.105 136.858C112.946 136.913 113.202 136.646 113.202 133.615C113.21 129.453 113.24 125.292 113.187 121.13C113.172 119.968 113.519 119.482 114.642 119.246C119.691 118.178 123.813 115.493 127.084 111.331C127.423 110.899 128.108 110.57 128.644 110.546C136.489 110.216 141.636 106.047 144.447 98.5563C146.203 93.8844 146.557 88.9848 146.436 84.0224C146.398 82.3656 145.449 82.0594 144.153 81.7375C141.568 81.0936 139.021 80.2927 136.496 79.429C136.036 79.272 135.494 78.5496 135.449 78.0392C134.883 72.0404 132.148 66.9916 129.103 62.0763C128.485 61.087 127.815 60.1369 127.023 58.9512ZM64.3534 133.191C63.5621 133.246 62.9517 133.324 62.3413 133.332C58.5808 133.372 54.8127 133.34 51.0522 133.458C49.8841 133.489 49.334 133.05 48.8517 131.998C46.0031 125.787 43.1092 119.599 40.1852 113.42C39.7406 112.478 39.1528 111.567 38.4746 110.79C34.1112 105.764 30.6069 100.166 28.0748 93.9315C25.3844 87.3045 23.945 80.3791 25.3844 73.2417C28.3988 58.2132 38.2786 49.1678 50.7508 42.5486C51.0598 42.3837 51.7079 42.4465 51.9415 42.6742C53.3281 44.0483 54.6394 45.5009 56.0788 47.0399C54.3003 47.8801 52.6499 48.6653 50.9995 49.4426C49.967 49.9294 49.4546 50.7303 49.9444 51.8767C50.4644 53.0937 51.4441 52.9602 52.4163 52.5441C53.313 52.1593 54.1646 51.6804 55.0614 51.2956C66.4107 46.4196 78.1821 45.9014 90.1644 47.5817C92.2519 47.8722 94.3092 48.359 96.3816 48.7438C97.497 48.9558 98.5144 48.5789 98.5294 47.3854C98.5294 46.718 97.708 45.9092 97.075 45.4067C96.6228 45.0455 95.8843 45.0691 95.2738 44.9434C93.5782 44.5901 91.8826 44.2368 90.1418 43.8756C91.3551 41.9597 92.4101 40.2088 93.5556 38.5284C93.7742 38.2065 94.3997 37.9395 94.7614 38.0181C100.368 39.2273 105.952 40.8055 110.557 44.4095C113.157 46.4432 115.35 46.6552 118.312 45.8072C123.044 44.4566 127.882 44.3074 132.585 46.2861C134.439 47.0635 134.514 47.2598 133.512 49.1207C131.53 52.7954 128.538 55.0724 124.597 56.0146C122.193 56.5878 121.861 57.64 123.368 59.7207C124.567 61.3775 125.78 63.0421 126.865 64.7774C129.714 69.3472 132.08 74.1054 132.314 79.7352C132.344 80.3948 132.977 81.3527 133.565 81.6197C136.21 82.821 138.908 83.936 141.658 84.839C142.924 85.2551 143.49 85.7419 143.286 87.1396C142.917 89.5972 142.811 92.1177 142.254 94.5282C140.475 102.207 135.712 107.311 127.317 107.068C126.549 107.044 125.516 107.735 125.011 108.418C121.733 112.847 117.52 115.469 112.155 115.933C110.504 116.074 109.834 116.875 109.849 118.547C109.886 121.994 109.856 125.441 109.856 128.888C109.856 130.286 109.856 131.691 109.856 133.05C105.666 133.05 101.74 133.081 97.821 132.995C97.4668 132.995 96.9695 132.304 96.8112 131.84C96.0124 129.493 95.3341 127.106 94.5655 124.742C93.1185 120.298 93.5933 120.337 89.1922 121.288C88.8607 121.358 88.5215 121.437 88.1899 121.492C81.5055 122.591 74.821 123.062 68.1892 121.123C65.4989 120.337 65.0241 120.612 64.8357 123.455C64.6247 126.643 64.5192 129.838 64.3685 133.152L64.3534 133.191ZM12.7766 63.2462C11.9627 60.977 11.9175 58.7864 12.754 56.6114C13.3644 55.0174 14.4722 53.9731 16.1301 53.6983C18.1121 53.3685 19.4309 54.7034 19.2199 56.792C18.8883 60.1604 16.2809 62.8458 12.7766 63.2462Z" fill="white"/>
<path d="M66.4403 23.3206C65.6339 27.1131 65.8374 27.3879 69.1306 27.4115C69.7034 27.4115 70.3816 27.2623 70.8112 27.5292C71.399 27.8904 72.1827 28.605 72.1677 29.1467C72.1526 29.7042 71.3689 30.4502 70.7584 30.7171C70.1254 30.9998 69.304 30.8192 68.5579 30.827C67.8269 30.8349 67.0959 30.827 66.4177 30.827C65.7922 34.0149 67.3747 36.6217 70.2008 37.3991C73.1248 38.1921 76.1241 36.5668 76.9229 33.748C77.0661 33.2376 76.9832 32.5937 77.2621 32.2011C77.7067 31.573 78.3096 30.725 78.9275 30.6465C79.9976 30.513 80.4724 31.4473 80.4347 32.5545C80.3443 35.2712 79.2968 37.5404 77.2093 39.1501C74.3004 41.3879 71.09 41.6862 67.8344 40.108C64.7371 38.6004 63.0867 35.9622 62.8908 32.3817C62.8682 32.0284 62.8305 31.6829 62.7853 31.2432C61.6172 30.8113 59.7407 31.2825 59.8538 29.1153C59.9593 27.2701 61.5192 27.7098 62.725 27.4036V23.6897C62.1824 23.619 61.5569 23.7211 61.2178 23.4384C60.6601 22.983 59.9216 22.2763 59.9367 21.6953C59.9517 21.1535 60.8259 20.2034 61.3534 20.1799C62.7325 20.117 62.8456 19.4182 62.9285 18.2561C63.2375 13.757 66.9 10.3964 71.5045 10.2472C76.0186 10.1059 79.7866 13.2859 80.3292 17.6987C80.4649 18.8293 80.6985 20.0935 79.1913 20.4076C77.6238 20.7373 77.3374 19.6224 77.1113 18.3111C76.5537 15.0761 74.5039 13.4586 71.286 13.5686C68.6333 13.6628 66.5006 15.6886 66.1388 18.3661C65.9806 19.5203 66.2669 20.0542 67.4501 19.9757C68.362 19.9129 69.2738 19.9679 70.1857 19.9757C71.2634 19.9757 72.1526 20.2662 72.1677 21.6246C72.1827 22.9516 71.3689 23.3442 70.2611 23.3442C68.9649 23.3442 67.6687 23.3442 66.4252 23.3442L66.4403 23.3206Z" fill="white"/>
<path d="M51.6546 10.5207C52.28 10.9133 52.9734 11.7064 53.516 11.6043C54.0887 11.4944 54.9403 10.5129 54.9026 9.97108C54.8574 9.38219 53.9606 8.47922 53.3803 8.43211C52.8302 8.39285 52.2198 9.28011 51.6319 9.75908C51.6395 10.0103 51.647 10.2616 51.6621 10.5129L51.6546 10.5207Z" fill="white"/>
<path d="M118.13 68.1694C114.423 68.1694 111.378 70.8783 110.715 74.71C110.504 75.9192 110.677 76.9478 111.906 77.2462C113.179 77.5524 113.714 76.6808 113.918 75.4559C114.257 73.4773 115.297 72.0639 117.264 71.6556C119.042 71.2866 120.565 71.8833 121.567 73.4851C121.989 74.1525 121.981 75.1183 122.411 75.77C122.825 76.3982 123.519 77.1834 124.144 77.2383C125.244 77.3325 125.576 76.3668 125.553 75.2675C125.455 71.4829 122.011 68.1772 118.13 68.1772V68.1694Z" fill="white"/>
<path d="M95.3337 34.5475C95.3338 35 93.4498 38.3685 93.3894 38.5284C92.2439 40.2087 91.1251 41.9589 89.9118 43.8748C88.2701 43.9326 85.5006 43.3862 84.0372 43.3024C84.723 43.3417 85.6122 42.9883 86.1247 42.5015C90.0208 38.7797 92.3268 34.0921 92.7865 28.6429C93.5477 19.6054 90.3675 12.2324 83.065 7.2386C75.7701 2.25264 68.0833 2.19768 60.3815 6.47697C60.0273 6.67327 59.6505 7.05016 59.3264 7.00305C58.6632 6.90882 57.6383 6.75178 57.465 6.31208C57.2314 5.72319 57.4952 4.7417 57.8494 4.1214C58.1357 3.63458 58.8667 3.39902 59.4169 3.0928C75.9208 -6.14889 96.223 6.44556 96.1928 25.9654C96.1928 28.7764 95.6427 31.5874 95.3337 34.5475Z" fill="#FFA723"/>
<path d="M58.6406 44.8335C59.6053 45.5402 60.4794 45.6972 61.6475 45.391C61.0554 45.5462 56.7701 46.9992 55.8488 47.0391C54.4094 45.5001 52.6569 44.3733 51.2703 42.9992C51.0366 42.7715 49.2491 40.457 48.7701 39.4992C47.2701 34.9992 46.7563 31.9799 46.1986 28.2739C45.5806 24.1595 46.4699 20.1314 47.9696 16.2683C48.3765 15.2161 49.1226 14.7293 50.1324 15.0905C51.1724 15.4595 51.391 16.3625 51.0518 17.4147C50.886 17.9172 50.7202 18.4276 50.5545 18.9301C47.4119 28.423 50.7655 39.1016 58.6406 44.8335Z" fill="#FFA723"/>
<path d="M66.2103 23.3198C65.4039 27.1122 65.6074 27.3871 68.9007 27.4106C69.4734 27.4106 70.1517 27.2614 70.5812 27.5284C71.169 27.8896 71.9528 28.6041 71.9377 29.1459C71.9226 29.7034 71.1389 30.4493 70.5285 30.7163C69.8954 30.9989 69.074 30.8183 68.3279 30.8262C67.5969 30.834 66.8659 30.8262 66.1877 30.8262C65.5622 34.0141 67.1448 36.6209 69.9708 37.3982C72.8948 38.1913 75.8941 36.5659 76.693 33.7471C76.8361 33.2367 76.7532 32.5929 77.0321 32.2003C77.4767 31.5721 78.0796 30.7241 78.6975 30.6456C79.7677 30.5121 80.2424 31.4465 80.2048 32.5536C80.1143 35.2704 79.0668 37.5396 76.9793 39.1492C74.0704 41.387 70.86 41.6854 67.6045 40.1071C64.5071 38.5996 62.8567 35.9613 62.6608 32.3809C62.6382 32.0275 62.6005 31.682 62.5553 31.2423C61.3872 30.8105 59.5107 31.2816 59.6238 29.1145C59.7293 27.2693 61.2892 27.709 62.495 27.4028V23.6888C61.9524 23.6181 61.3269 23.7202 60.9878 23.4375C60.4301 22.9821 59.6916 22.2755 59.7067 21.6944C59.7217 21.1526 60.5959 20.2026 61.1235 20.179C62.5026 20.1162 62.6156 19.4174 62.6985 18.2553C63.0075 13.7562 66.67 10.3955 71.2745 10.2464C75.7886 10.105 79.5567 13.285 80.0993 17.6978C80.2349 18.8285 80.4685 20.0926 78.9613 20.4067C77.3938 20.7365 77.1074 19.6215 76.8814 18.3103C76.3237 15.0753 74.2739 13.4578 71.056 13.5677C68.4033 13.6619 66.2706 15.6877 65.9088 18.3652C65.7506 19.5195 66.037 20.0534 67.2201 19.9749C68.132 19.912 69.0439 19.967 69.9557 19.9749C71.0334 19.9749 71.9226 20.2654 71.9377 21.6238C71.9528 22.9507 71.1389 23.3433 70.0311 23.3433C68.7349 23.3433 67.4387 23.3433 66.1952 23.3433L66.2103 23.3198Z" fill="#FFA723"/>
<path d="M51.4246 10.5199C52.0501 10.9125 52.7434 11.7056 53.286 11.6035C53.8587 11.4936 54.7103 10.5121 54.6726 9.97029C54.6274 9.38139 53.7306 8.47843 53.1503 8.43131C52.6002 8.39205 51.9898 9.27932 51.402 9.75829C51.4095 10.0095 51.417 10.2608 51.4321 10.5121L51.4246 10.5199Z" fill="#FFA723"/>
</svg>
