<?xml version="1.0" encoding="utf-8"?>
<!-- Generator: Adobe Illustrator 27.0.0, SVG Export Plug-In . SVG Version: 6.00 Build 0)  -->
<svg version="1.1" id="Camada_2_00000056386613928200582660000006899858268875783046_"
	 xmlns="http://www.w3.org/2000/svg" xmlns:xlink="http://www.w3.org/1999/xlink" x="0px" y="0px" viewBox="0 0 194.3 174.5"
	 style="enable-background:new 0 0 194.3 174.5;" xml:space="preserve">
<g id="Camada_1-2">
	<g>
		<path d="M25.8,75.1c-5.3-2.1-9.5-5.1-12.1-9.9c-3.8-7.1-3.1-7.7,3.7-10.5c7.4-3,15-2.3,22.5-0.4c1.8,0.5,3,0.2,4.5-0.9
			c6.3-4.5,13.5-7,21-8.8c0.8-0.2,1.6-0.4,2.2-0.6c-0.4-3.8-1.1-7.3-1.1-10.9c0-24.9,26.9-40.9,48.8-29.1c0.7,0.4,1.7,0.7,2.1,1.3
			c0.5,0.8,0.8,2,0.5,2.8c-0.2,0.6-1.6,0.8-2.5,0.9C115,9,114.5,8.5,114,8.2c-10.2-5.4-20.4-5.4-30.1,1C74.2,15.6,70,25,71,36.5
			c0.6,6.9,3.7,12.9,8.8,17.7c0.7,0.6,1.9,1.1,2.8,1c10-0.6,20,0.2,29.7,2.7c1.6,0.4,2.7,0.2,4-0.7c10.4-7.3,14.9-20.9,10.7-33
			c-0.2-0.6-0.4-1.3-0.7-1.9c-0.4-1.3-0.2-2.5,1.2-3c1.3-0.5,2.3,0.2,2.9,1.5c2,4.9,3.2,10,2.4,15.3c-0.7,4.7-2.2,9.3-3.4,14.4
			c8,3.9,15.6,9.3,22.2,16.3c6.6,7,11.1,15.2,13.3,24.9c4.1-1.2,7.2-3.4,10.1-6.4c-0.8-0.4-1.4-0.7-2-1c-4.5-2.2-7.7-5.6-8.5-10.7
			c-1-6.1,4.2-10.7,10.1-9c4.6,1.3,7.8,5.5,8,10.9c0.1,1.5,0,3,0,5.1c2-1.2,3.8-2.1,5.4-3.3c1.1-0.8,1.9-2.1,3-2.7
			c0.9-0.4,2.1-0.1,3.2-0.1c0,1,0.4,2.4-0.1,3c-3.1,3.7-6.9,6.5-11.8,7.7c-1.1,0.3-2.3,1.1-3,2c-2.8,3.5-6.3,6.3-10.4,7.8
			c-2.7,1-3.3,2.3-3.2,5.1c0.1,11.9-4,22.7-10.3,32.6c-2.6,4.1-5.8,7.9-8.8,11.9c-0.6,0.8-1.2,1.7-1.7,2.6
			c-4.1,8.3-8.2,16.5-12.1,24.9c-1,2-2.2,2.7-4.4,2.7c-6.7-0.1-13.3-0.1-20-0.1c-3.1,0-3.7-0.6-3.8-3.7c-0.1-3.8-0.3-7.5-0.5-11.4
			c-3.4,0.4-6.6,1.1-9.7,1c-6.1-0.2-12.2-0.7-18.3-1.3c-1.8-0.2-2.7,0.1-3.2,2c-1,3.5-2.3,6.9-3.3,10.4c-0.6,1.8-1.6,2.7-3.6,2.7
			c-5.9,0-11.8,0.2-17.7,0.3c-3.8,0.1-4.1-0.3-4.1-4.1c0-5.3,0-10.6,0-15.9c0-1.5-0.4-2.1-1.9-2.4c-6.7-1.4-12.2-4.8-16.5-10.1
			c-0.5-0.6-1.4-1-2.1-1c-10.4-0.4-17.2-5.7-21-15.3c-2.3-6-2.8-12.2-2.6-18.5c0-2.1,1.3-2.5,3-2.9c3.4-0.8,6.8-1.8,10.2-2.9
			c0.6-0.2,1.3-1.1,1.4-1.8C15.4,91.7,19,85.3,23,79C23.8,77.8,24.7,76.6,25.8,75.1z M109,169.6c1.1,0.1,1.9,0.2,2.7,0.2
			c5,0.1,10,0,15,0.2c1.6,0,2.3-0.5,2.9-1.9c3.8-7.9,7.6-15.8,11.5-23.7c0.6-1.2,1.4-2.4,2.3-3.4c5.8-6.4,10.4-13.5,13.8-21.5
			c3.6-8.4,5.5-17.3,3.6-26.3c-4-19.1-17.1-30.7-33.7-39.1c-0.4-0.2-1.3-0.1-1.6,0.2c-1.8,1.8-3.6,3.6-5.5,5.6
			c2.4,1.1,4.6,2.1,6.7,3.1c1.4,0.6,2.1,1.6,1.4,3.1c-0.7,1.6-2,1.4-3.3,0.8c-1.2-0.5-2.3-1.1-3.5-1.6c-15.1-6.2-30.7-6.9-46.6-4.7
			c-2.8,0.4-5.5,1-8.2,1.5c-1.5,0.3-2.8-0.2-2.8-1.7c0-0.8,1.1-1.9,1.9-2.5c0.6-0.5,1.6-0.4,2.4-0.6c2.2-0.5,4.5-0.9,6.8-1.4
			c-1.6-2.4-3-4.7-4.5-6.8c-0.3-0.4-1.1-0.8-1.6-0.7c-7.4,1.5-14.8,3.5-21,8.1c-3.5,2.6-6.4,2.9-10.3,1.8
			c-6.3-1.7-12.7-1.9-18.9,0.6c-2.5,1-2.6,1.2-1.2,3.6c2.6,4.7,6.6,7.6,11.8,8.8c3.2,0.7,3.6,2.1,1.6,4.7c-1.6,2.1-3.2,4.2-4.6,6.4
			c-3.8,5.8-6.9,11.9-7.2,19c0,0.8-0.9,2.1-1.7,2.4c-3.5,1.5-7.1,2.9-10.7,4.1c-1.7,0.5-2.4,1.2-2.2,2.9c0.5,3.1,0.6,6.3,1.4,9.4
			c2.4,9.8,8.7,16.3,19.8,16c1,0,2.4,0.9,3.1,1.7c4.4,5.6,9.9,9,17.1,9.6c2.2,0.2,3.1,1.2,3.1,3.3c0,4.4,0,8.8,0,13.2
			c0,1.8,0,3.6,0,5.3c5.6,0,10.8,0,16-0.1c0.5,0,1.1-0.9,1.3-1.5c1.1-3,2-6,3-9c1.9-5.7,1.3-5.6,7.1-4.4c0.4,0.1,0.9,0.2,1.3,0.3
			c8.9,1.4,17.7,2,26.5-0.5c3.6-1,4.2-0.6,4.4,3C108.6,161.3,108.7,165.3,109,169.6L109,169.6z M177.4,80.5c1.1-2.9,1.1-5.7,0-8.4
			c-0.8-2-2.3-3.4-4.5-3.7c-2.6-0.4-4.4,1.3-4.1,3.9C169.3,76.6,172.7,80,177.4,80.5z"/>
		<path d="M105.6,29.4c1.1,4.8,0.8,5.2-3.6,5.2c-0.8,0-1.7-0.2-2.2,0.2c-0.8,0.5-1.8,1.4-1.8,2.1c0,0.7,1.1,1.7,1.9,2
			c0.8,0.4,1.9,0.1,2.9,0.1c1,0,1.9,0,2.8,0c0.8,4.1-1.3,7.4-5,8.4c-3.9,1-7.9-1.1-8.9-4.7c-0.2-0.7-0.1-1.5-0.4-2
			c-0.6-0.8-1.4-1.9-2.2-2c-1.4-0.2-2.1,1-2,2.4c0.1,3.5,1.5,6.3,4.3,8.4c3.9,2.8,8.1,3.2,12.4,1.2c4.1-1.9,6.3-5.3,6.6-9.8
			c0-0.5,0.1-0.9,0.1-1.5c1.6-0.5,4,0,3.9-2.7c-0.1-2.3-2.2-1.8-3.8-2.2v-4.7c0.7-0.1,1.6,0,2-0.3c0.7-0.6,1.7-1.5,1.7-2.2
			c0-0.7-1.2-1.9-1.9-1.9c-1.8-0.1-2-1-2.1-2.5c-0.4-5.7-5.3-10-11.4-10.2c-6-0.2-11,3.9-11.7,9.5c-0.2,1.4-0.5,3,1.5,3.5
			c2.1,0.4,2.5-1,2.8-2.7c0.7-4.1,3.5-6.2,7.7-6c3.5,0.1,6.3,2.7,6.8,6.1c0.2,1.5-0.2,2.1-1.7,2c-1.2-0.1-2.4,0-3.6,0
			c-1.4,0-2.6,0.4-2.6,2.1c0,1.7,1.1,2.2,2.5,2.2C102.3,29.4,104,29.4,105.6,29.4L105.6,29.4z"/>
		<path d="M125.8,13.4c-0.8,0.5-1.8,1.5-2.5,1.4c-0.8-0.1-1.9-1.4-1.8-2.1c0.1-0.8,1.2-1.9,2-2c0.7-0.1,1.5,1.1,2.3,1.7
			C125.8,12.7,125.8,13.1,125.8,13.4L125.8,13.4z"/>
		<path d="M37.6,86.8c4.9,0,9,3.4,9.8,8.3c0.3,1.5,0,2.8-1.6,3.2c-1.7,0.4-2.4-0.7-2.7-2.3c-0.5-2.5-1.8-4.3-4.4-4.8
			c-2.4-0.5-4.4,0.3-5.7,2.3c-0.6,0.8-0.5,2.1-1.1,2.9c-0.5,0.8-1.5,1.8-2.3,1.9c-1.5,0.1-1.9-1.1-1.9-2.5
			C27.9,91,32.4,86.8,37.6,86.8L37.6,86.8z"/>
	</g>
</g>
</svg>
