<?xml version="1.0" encoding="UTF-8"?>
<svg id="Camada_2" data-name="Camada 2" xmlns="http://www.w3.org/2000/svg" viewBox="0 0 194.33 174.48">
  <g id="Camada_1-2" data-name="Camada 1">
    <g>
      <path d="M25.79,75.07c-5.3-2.07-9.5-5.09-12.08-9.9-3.81-7.08-3.11-7.68,3.7-10.47,7.37-3.02,15-2.32,22.51-.37,1.82,.47,3.02,.17,4.51-.91,6.3-4.54,13.52-6.98,20.97-8.84,.79-.2,1.57-.42,2.22-.59-.41-3.77-1.14-7.35-1.14-10.93-.04-24.86,26.9-40.9,48.8-29.13,.73,.39,1.7,.69,2.08,1.31,.47,.79,.82,2.04,.51,2.79-.23,.56-1.59,.76-2.47,.88-.43,.06-.93-.42-1.4-.67-10.22-5.45-20.42-5.38-30.1,.97-9.69,6.36-13.91,15.75-12.9,27.26,.61,6.94,3.67,12.91,8.84,17.65,.68,.62,1.86,1.07,2.77,1.02,10.04-.6,19.96,.19,29.71,2.66,1.55,.39,2.71,.19,3.99-.71,10.45-7.3,14.9-20.9,10.73-32.99-.22-.64-.44-1.29-.66-1.93-.45-1.34-.16-2.49,1.22-2.96,1.34-.46,2.33,.16,2.87,1.5,1.99,4.92,3.17,10.05,2.35,15.29-.74,4.72-2.2,9.32-3.44,14.35,7.99,3.86,15.61,9.31,22.17,16.26,6.65,7.03,11.11,15.2,13.28,24.9,4.08-1.19,7.16-3.42,10.11-6.44-.82-.4-1.4-.67-1.98-.96-4.53-2.24-7.67-5.61-8.52-10.74-1.01-6.05,4.2-10.66,10.14-9.04,4.65,1.26,7.76,5.48,8,10.93,.07,1.5,.01,3,.01,5.14,1.96-1.18,3.76-2.14,5.41-3.31,1.1-.78,1.85-2.11,3.01-2.72,.86-.45,2.13-.12,3.21-.14-.02,1.02,.37,2.4-.14,3-3.15,3.67-6.92,6.49-11.75,7.72-1.12,.28-2.3,1.09-3.02,2-2.81,3.53-6.26,6.27-10.43,7.77-2.73,.98-3.26,2.33-3.23,5.07,.12,11.95-3.96,22.7-10.28,32.63-2.63,4.13-5.83,7.9-8.76,11.85-.62,.84-1.25,1.71-1.71,2.65-4.08,8.27-8.19,16.53-12.13,24.87-.96,2.03-2.18,2.73-4.37,2.68-6.66-.15-13.32-.11-19.98-.15-3.11-.02-3.69-.63-3.81-3.68-.14-3.77-.34-7.54-.52-11.42-3.36,.38-6.56,1.11-9.74,1.02-6.1-.17-12.2-.69-18.28-1.31-1.84-.19-2.7,.07-3.22,1.96-.97,3.49-2.26,6.89-3.32,10.36-.56,1.84-1.55,2.7-3.58,2.7-5.9,.02-11.8,.23-17.71,.34-3.77,.07-4.11-.27-4.11-4.13-.01-5.3-.05-10.6,.02-15.9,.02-1.48-.44-2.1-1.93-2.4-6.7-1.36-12.17-4.78-16.51-10.08-.45-.55-1.36-.97-2.07-1-10.41-.42-17.24-5.73-20.97-15.27C.34,119.56-.13,113.32,.03,107c.05-2.11,1.31-2.5,3.03-2.91,3.43-.82,6.81-1.84,10.16-2.94,.61-.2,1.33-1.12,1.39-1.77,.75-7.64,4.38-14.07,8.42-20.33,.82-1.26,1.71-2.47,2.76-3.98Zm83.16,94.55c1.05,.07,1.86,.17,2.67,.18,4.99,.05,9.99,.01,14.98,.16,1.55,.04,2.28-.52,2.92-1.86,3.78-7.91,7.62-15.79,11.5-23.66,.59-1.2,1.37-2.36,2.27-3.35,5.79-6.4,10.44-13.53,13.8-21.47,3.57-8.44,5.48-17.26,3.57-26.35-4-19.14-17.11-30.66-33.66-39.09-.41-.21-1.27-.13-1.58,.16-1.84,1.75-3.58,3.6-5.49,5.56,2.36,1.07,4.55,2.07,6.74,3.06,1.37,.62,2.05,1.64,1.4,3.1-.69,1.55-1.99,1.38-3.28,.85-1.19-.49-2.32-1.1-3.51-1.59-15.06-6.21-30.68-6.87-46.58-4.73-2.77,.37-5.5,.99-8.25,1.48-1.48,.27-2.83-.21-2.85-1.73,0-.85,1.09-1.88,1.93-2.52,.6-.46,1.58-.43,2.39-.59,2.25-.45,4.5-.9,6.81-1.36-1.61-2.44-3.01-4.67-4.53-6.81-.29-.41-1.12-.75-1.6-.65-7.44,1.54-14.85,3.55-20.96,8.14-3.45,2.59-6.36,2.86-10.29,1.78-6.28-1.72-12.7-1.91-18.94,.61-2.46,.99-2.56,1.24-1.23,3.61,2.63,4.68,6.6,7.58,11.83,8.78,3.19,.73,3.63,2.07,1.63,4.72-1.59,2.11-3.2,4.23-4.64,6.44-3.78,5.82-6.92,11.88-7.23,19.05-.04,.84-.88,2.06-1.66,2.4-3.51,1.53-7.09,2.95-10.74,4.1-1.68,.53-2.43,1.15-2.16,2.93,.49,3.13,.63,6.34,1.37,9.41,2.36,9.78,8.68,16.28,19.82,15.97,1.02-.03,2.39,.85,3.06,1.72,4.35,5.64,9.94,8.98,17.06,9.57,2.19,.18,3.08,1.2,3.06,3.33-.05,4.39-.01,8.78-.01,13.17,0,1.78,0,3.57,0,5.3,5.56,0,10.77,.04,15.97-.07,.47,0,1.13-.88,1.34-1.47,1.06-2.99,1.96-6.03,2.98-9.04,1.92-5.66,1.29-5.61,7.13-4.4,.44,.09,.89,.19,1.33,.26,8.87,1.4,17.74,2,26.54-.47,3.57-1,4.2-.65,4.45,2.97,.28,4.06,.42,8.13,.62,12.35Zm68.44-89.08c1.08-2.89,1.14-5.68,.03-8.45-.81-2.03-2.28-3.36-4.48-3.71-2.63-.42-4.38,1.28-4.1,3.94,.44,4.29,3.9,7.71,8.55,8.22Z"/>
      <path d="M92.46,30.97c-1.07,4.83-.8,5.18,3.57,5.21,.76,0,1.66-.19,2.23,.15,.78,.46,1.82,1.37,1.8,2.06-.02,.71-1.06,1.66-1.87,2-.84,.36-1.93,.13-2.92,.14-.97,.01-1.94,0-2.84,0-.83,4.06,1.27,7.38,5.02,8.37,3.88,1.01,7.86-1.06,8.92-4.65,.19-.65,.08-1.47,.45-1.97,.59-.8,1.39-1.88,2.21-1.98,1.42-.17,2.05,1.02,2,2.43-.12,3.46-1.51,6.35-4.28,8.4-3.86,2.85-8.12,3.23-12.44,1.22-4.11-1.92-6.3-5.28-6.56-9.84-.03-.45-.08-.89-.14-1.45-1.55-.55-4.04,.05-3.89-2.71,.14-2.35,2.21-1.79,3.81-2.18v-4.73c-.72-.09-1.55,.04-2-.32-.74-.58-1.72-1.48-1.7-2.22,.02-.69,1.18-1.9,1.88-1.93,1.83-.08,1.98-.97,2.09-2.45,.41-5.73,5.27-10.01,11.38-10.2,5.99-.18,10.99,3.87,11.71,9.49,.18,1.44,.49,3.05-1.51,3.45-2.08,.42-2.46-1-2.76-2.67-.74-4.12-3.46-6.18-7.73-6.04-3.52,.12-6.35,2.7-6.83,6.11-.21,1.47,.17,2.15,1.74,2.05,1.21-.08,2.42-.01,3.63,0,1.43,0,2.61,.37,2.63,2.1,.02,1.69-1.06,2.19-2.53,2.19-1.72,0-3.44,0-5.09,0Z"/>
      <path d="M125.8,13.39c-.83,.5-1.75,1.51-2.47,1.38-.76-.14-1.89-1.39-1.84-2.08,.06-.75,1.25-1.9,2.02-1.96,.73-.05,1.54,1.08,2.32,1.69-.01,.32-.02,.64-.04,.96Z"/>
      <path d="M37.59,86.81c4.92,0,8.96,3.45,9.84,8.33,.28,1.54,.05,2.85-1.58,3.23-1.69,.39-2.4-.72-2.67-2.28-.45-2.52-1.83-4.32-4.44-4.84-2.36-.47-4.38,.29-5.71,2.33-.56,.85-.55,2.08-1.12,2.91-.55,.8-1.47,1.8-2.3,1.87-1.46,.12-1.9-1.11-1.87-2.51,.13-4.82,4.7-9.03,9.85-9.03Z"/>
    </g>
  </g>
</svg>