<?xml version="1.0" encoding="UTF-8"?>
<svg id="Camada_2" data-name="Camada 2" xmlns="http://www.w3.org/2000/svg" viewBox="0 0 25.4 25.2">
  <g id="Layer_1" data-name="Layer 1">
    <g>
      <path d="M0,12.6c0,3.5,1.2,6.5,3.7,9,2,2,4.5,3.2,7.2,3.6v-3.7c-1.8-.3-3.3-1.2-4.6-2.5-1.8-1.8-2.7-3.9-2.7-6.4s.9-4.6,2.7-6.4c1.3-1.3,2.9-2.2,4.6-2.5V0c-2.8,.4-5.2,1.6-7.2,3.6C1.3,6.1,0,9,0,12.6Z" />
      <path d="M14.5,0V3.7c1.8,.3,3.3,1.2,4.6,2.5,1.8,1.8,2.7,3.9,2.7,6.4s-.9,4.6-2.7,6.4c-1.3,1.3-2.9,2.2-4.6,2.5v3.7c2.8-.4,5.2-1.6,7.2-3.6,2.5-2.5,3.7-5.5,3.7-9s-1.2-6.5-3.7-9C19.6,1.5,17.2,.3,14.5,0Z" />
    </g>
  </g>
</svg>