<?xml version="1.0" encoding="UTF-8"?>
<svg id="Camada_2" data-name="Camada 2" xmlns="http://www.w3.org/2000/svg" viewBox="0 0 337.35 446.78">
  <g id="Camada_1-2" data-name="Camada 1">
    <path d="M.21,264.87c0-54.48,.43-108.97-.2-163.45-.27-22.94,16.56-46.44,45.86-47.3,4.06-.12,5.49-1.49,5.61-5.57,.51-17.53,6.78-32.05,22.35-41.61C81.46,2.26,89.81,.13,98.57,.11,162.71,0,226.86-.08,291.01,.12c26.65,.08,46.32,20.26,46.32,46.84,.03,110.14,.01,220.27,.02,330.41,0,3.35,.02,6.69-1.87,9.66-3.77,5.93-11.04,7.75-16.92,3.37-7.06-5.26-13.57-11.26-20.28-16.97-2.92-2.48-5.74-5.07-8.65-7.56-.96-.82-1.77-2.41-3.28-1.7-1.45,.68-.94,2.36-.95,3.62-.04,17.16-.03,34.32-.03,51.49,0,4.83-.13,9.67,.03,14.49,.17,5.45-2.22,9.41-6.92,11.75-4.84,2.4-9.42,1.24-13.43-2.22-9.96-8.59-19.93-17.16-29.82-25.83-5.5-4.82-5.69-4.83-10.98,.11-8.88,8.29-17.79,16.56-26.81,24.7-6.74,6.08-12.94,5.79-19.91-.54-10.35-9.4-20.81-18.68-31.09-28.16-2.33-2.14-3.93-2.22-6.31-.1-10.3,9.21-20.84,18.14-31.11,27.39-8.66,7.8-14.04,7.86-22.42-.02-9.1-8.55-18.39-16.89-27.47-25.47-2.46-2.33-4.36-2.35-6.83-.14-10.19,9.08-20.54,17.98-30.69,27.11-4.37,3.93-9.01,5.62-14.6,3.19-5.57-2.43-6.84-7.14-6.83-12.72,.05-55.98,.03-111.97,.03-167.95Zm313.04,89.16v-7.86c0-98.48,0-196.95,0-295.43,0-2,.07-4.01-.08-6-.89-11.35-9.11-19.73-19.99-19.74-65.65-.09-131.3-.1-196.95,0-11.55,.02-19.63,8.45-19.93,20.05q-.23,8.98,9,8.99c50.82,0,101.64-.05,152.46,.02,28.02,.04,47.57,19.59,47.6,47.47,.04,30.16,0,60.32,.01,90.48,0,44.16,0,88.31,.03,132.47,0,2.43-.72,5.2,1.47,7.09,8.3,7.16,16.69,14.23,26.38,22.47ZM142.81,118.98c13.99,0,27.99,0,41.98,0,23.49,0,46.98-.09,70.47,.07,4.53,.03,6.38-1.4,6.08-6.03-.3-4.65,.05-9.33-.12-13.99-.44-11.83-8.71-20.05-20.53-20.06-65.31-.07-130.62-.07-195.92,0-11.98,.01-19.97,8.05-20.4,20.08-.15,4.33-.06,8.66-.05,12.99,.02,6.85,.08,6.92,7.03,6.92,37.15,0,74.3,0,111.46,0Zm-56.31,64.01c-7.44-.12-12.07,4.54-12.09,12.76,0,3.95-1.09,6.16-4.99,7.98-19.47,9.09-26.22,31.45-15.29,49.79,5.65,9.49,14.52,14.89,24.52,18.75,5.74,2.22,11.54,4.34,17.16,6.83,4.43,1.96,6.43,5.98,6.18,10.57-.26,4.84-3.11,8.32-7.74,10.12-9.09,3.55-18.05-.55-21.21-9.7-2.6-7.52-8.25-10.95-14.87-9.03-6.77,1.96-9.81,8.13-7.86,15.95,2.62,10.49,8.88,18.28,18.43,23.02,4.21,2.09,5.78,4.5,5.71,9.15-.1,6.95,4.61,11.62,10.94,11.84,7.05,.24,12.23-3.65,12.47-10.75,.18-5.37,2.28-7.69,7.01-9.8,12.97-5.77,20.6-16.24,21-30.35,.4-13.9-5.75-25.08-18.38-32.08-5.14-2.85-10.73-4.52-16.19-6.53-4.69-1.72-9.51-3.2-13.42-6.51-3.77-3.19-6.22-7.11-4.91-12.25,1.37-5.37,5.17-8.42,10.53-9.46,8.64-1.67,15.33,2.32,18.28,10.78,2.54,7.3,8.05,10.79,14.35,9.09,6.82-1.84,10.36-8.17,8.4-15.7-3.03-11.67-9.9-20.32-21.25-24.8-3.65-1.44-5.11-3.31-5.22-7.28-.23-7.76-4.76-12.27-11.6-12.39Zm104.5,90.93v.03c11.32,0,22.64,.05,33.97-.02,8.71-.05,13.37-4.3,13.38-11.97,0-7.36-4.61-11.82-13-11.87-22.98-.13-45.95-.05-68.93-.04-2.89,0-5.62,.6-7.99,2.39-4.2,3.17-5.91,8.05-4.49,12.81,1.51,5.06,5.83,8.53,11.6,8.62,11.82,.17,23.64,.05,35.46,.05Zm.33,53.13c11.65,0,23.3,.07,34.95-.03,7.58-.07,12.09-4.52,12.05-11.6-.03-6.86-4.47-11.41-11.72-11.44-23.63-.1-47.27-.1-70.91,0-7.54,.03-12.3,4.75-12.25,11.59,.05,6.81,4.93,11.41,12.41,11.45,11.82,.08,23.64,.02,35.45,.02Zm-.47-107.01c11.65,0,23.3,.06,34.94-.02,7.99-.05,12.58-4.4,12.55-11.63-.03-7.17-4.65-11.43-12.74-11.45-22.96-.06-45.93-.06-68.89,0-8.11,.02-13.22,4.42-13.3,11.11-.08,7.46,4.86,11.92,13.48,11.97,11.31,.07,22.63,.02,33.94,.02Z"/>
  </g>
</svg>