<?xml version="1.0" encoding="UTF-8"?>
<svg id="Camada_2" data-name="Camada 2" xmlns="http://www.w3.org/2000/svg" viewBox="0 0 400.18 403.39">
  <g id="Camada_1-2" data-name="Camada 1">
    <path d="M.05,261.3c0-26.99-.15-53.99,.05-80.98,.14-18.75,7.89-33.99,22.14-46.18,21.38-18.29,42.53-36.84,63.83-55.22,20.04-17.29,40.14-34.52,60.23-51.75,6.82-5.85,13.17-12.3,20.78-17.15,24.37-15.55,52.25-12.83,75.15,6.97,35.76,30.92,71.63,61.71,107.44,92.58,10.21,8.8,20.54,17.49,30.53,26.54,13.01,11.79,19.84,26.65,19.88,44.23,.13,54.49,.1,108.98,.03,163.47-.04,32.56-27.03,59.45-59.63,59.55-18.33,.06-36.66,.05-54.99,0-13.44-.04-21.42-8.07-21.43-21.57-.04-32.99-.04-65.99,0-98.98,.02-16.66-5.29-31.32-15.93-44.15-20.5-24.73-57.54-30.63-84.61-13.28-20.89,13.39-31.21,32.73-31.35,57.39-.17,32.66-.03,65.32-.05,97.98,0,14.63-7.93,22.6-22.44,22.62-16.5,.02-32.99,.03-49.49,0C26.94,403.29,.11,376.5,.06,343.29c-.04-27.33,0-54.66,0-81.98Z"/>
  </g>
</svg>