<svg width="34" height="24" viewBox="0 0 34 24" fill="none" xmlns="http://www.w3.org/2000/svg">
<path d="M10.1633 22.1755C10.1633 21.4755 10.732 20.9081 11.4337 20.9081H19.0561C19.7577 20.9081 20.3265 21.4755 20.3265 22.1755C20.3265 22.8754 19.7577 23.4428 19.0561 23.4428H11.4337C10.732 23.4428 10.1633 22.8754 10.1633 22.1755Z" fill="white"/>
<path d="M5.08163 14.5714C5.08163 13.8714 5.65041 13.304 6.35204 13.304H24.1378C24.8394 13.304 25.4082 13.8714 25.4082 14.5714C25.4082 15.2713 24.8394 15.8387 24.1378 15.8387H6.35204C5.65041 15.8387 5.08163 15.2713 5.08163 14.5714Z" fill="white"/>
<path d="M0 6.9673C0 6.26736 0.568781 5.69995 1.27041 5.69995H29.2194C29.921 5.69995 30.4898 6.26736 30.4898 6.9673C30.4898 7.66723 29.921 8.23465 29.2194 8.23465H1.27041C0.568781 8.23465 0 7.66723 0 6.9673Z" fill="white"/>
<circle cx="26.3037" cy="7.5" r="7.5" fill="#67B8EF"/>
</svg>
