<svg width="31" height="19" viewBox="0 0 31 19" fill="none" xmlns="http://www.w3.org/2000/svg">
<path d="M10.3597 17.1755C10.3597 16.4755 10.9285 15.9081 11.6301 15.9081H19.2525C19.9542 15.9081 20.5229 16.4755 20.5229 17.1755C20.5229 17.8754 19.9542 18.4428 19.2525 18.4428H11.6301C10.9285 18.4428 10.3597 17.8754 10.3597 17.1755Z" fill="white"/>
<path d="M5.27804 9.57138C5.27804 8.87144 5.84682 8.30403 6.54845 8.30403H24.3342C25.0358 8.30403 25.6046 8.87144 25.6046 9.57138C25.6046 10.2713 25.0358 10.8387 24.3342 10.8387H6.54845C5.84682 10.8387 5.27804 10.2713 5.27804 9.57138Z" fill="white"/>
<path d="M0.196411 1.9673C0.196411 1.26736 0.765192 0.699951 1.46682 0.699951H29.4158C30.1174 0.699951 30.6862 1.26736 30.6862 1.9673C30.6862 2.66723 30.1174 3.23465 29.4158 3.23465H1.46682C0.765192 3.23465 0.196411 2.66723 0.196411 1.9673Z" fill="white"/>
</svg>
