<svg width="35" height="24" viewBox="0 0 35 24" fill="none" xmlns="http://www.w3.org/2000/svg">
<g clip-path="url(#clip0_1431_1437)">
<path d="M10.6631 22.1755C10.6631 21.4755 11.2318 20.9081 11.9335 20.9081H19.5559C20.2575 20.9081 20.8263 21.4755 20.8263 22.1755C20.8263 22.8754 20.2575 23.4428 19.5559 23.4428H11.9335C11.2318 23.4428 10.6631 22.8754 10.6631 22.1755Z" fill="white"/>
<path d="M5.58154 14.5714C5.58154 13.8714 6.15032 13.304 6.85195 13.304H24.6377C25.3393 13.304 25.9081 13.8714 25.9081 14.5714C25.9081 15.2713 25.3393 15.8387 24.6377 15.8387H6.85195C6.15032 15.8387 5.58154 15.2713 5.58154 14.5714Z" fill="white"/>
<path d="M0.5 6.9673C0.5 6.26736 1.06878 5.69995 1.77041 5.69995H29.7194C30.421 5.69995 30.9898 6.26736 30.9898 6.9673C30.9898 7.66723 30.421 8.23465 29.7194 8.23465H1.77041C1.06878 8.23465 0.5 7.66723 0.5 6.9673Z" fill="white"/>
</g>
<defs>
<clipPath id="clip0_1431_1437">
<rect width="34" height="24" fill="white" transform="translate(0.5)"/>
</clipPath>
</defs>
</svg>
