<svg width="778" height="800" viewBox="0 0 778 800" fill="none" xmlns="http://www.w3.org/2000/svg">
<path d="M777.067 181C777.376 182.084 777.534 183.206 777.533 184.334V355.967C777.533 360.467 775.1 364.634 771.233 366.834L627.133 449.834V614.3C627.129 616.501 626.548 618.662 625.449 620.569C624.349 622.475 622.769 624.061 620.867 625.167L320 798.3C319.303 798.682 318.565 798.984 317.8 799.2C317.533 799.267 317.267 799.467 317 799.534C314.909 800.134 312.691 800.134 310.6 799.534C310.233 799.467 309.933 799.267 309.6 799.134C308.933 798.867 308.2 798.667 307.533 798.3L6.7668 625.167C4.85345 624.07 3.26341 622.488 2.15725 620.58C1.05109 618.672 0.467975 616.506 0.466797 614.3V99.1335C0.466797 98.0335 0.633464 96.9335 0.933463 95.8669C1.03346 95.4669 1.2668 95.2002 1.40013 94.8002C1.60065 94.1353 1.85712 93.4885 2.1668 92.8669C2.30013 92.4335 2.6668 92.1335 2.93346 91.7669L4.03346 90.2669C4.43346 89.9335 4.8668 89.6669 5.2668 89.3669C5.73346 88.9669 6.1668 88.5669 6.63346 88.2335L157.1 1.66687C159 0.569766 161.156 -0.0078125 163.35 -0.0078125C165.544 -0.0078125 167.7 0.569766 169.6 1.66687L320 88.2335H320.067C320.567 88.5669 320.967 88.9335 321.4 89.3335L322.667 90.2335C323.1 90.7002 323.333 91.2335 323.767 91.7335C324.033 92.1002 324.433 92.4335 324.6 92.8335C324.933 93.5002 325.167 94.1002 325.4 94.7669C325.5 95.1335 325.733 95.4669 325.833 95.8335C326.167 96.8669 326.3 97.9669 326.3 99.1002V420.834L451.633 348.7V184.234C451.633 183.134 451.767 182.034 452.067 180.967C452.167 180.634 452.4 180.3 452.5 179.9C452.724 179.228 452.991 178.571 453.3 177.934C453.533 177.534 453.9 177.267 454.133 176.834C454.533 176.334 454.833 175.834 455.233 175.4C455.633 175 456.067 174.734 456.467 174.467C456.933 174.134 457.333 173.7 457.833 173.4H457.867L608.3 86.8002C610.2 85.7031 612.356 85.1255 614.55 85.1255C616.744 85.1255 618.9 85.7031 620.8 86.8002L771.233 173.4C771.767 173.734 772.133 174.1 772.633 174.434C773.033 174.767 773.467 175.034 773.833 175.367C774.267 175.834 774.567 176.367 774.967 176.834C775.233 177.234 775.6 177.534 775.767 177.934C776.105 178.569 776.373 179.24 776.567 179.934C776.767 180.267 776.967 180.634 777.067 181ZM752.4 348.734V205.967L699.8 236.234L627.067 278.1V420.867L752.4 348.734ZM602.067 607.067V464.167L530.5 505L326.3 621.6V765.767L602.067 607.067ZM25.4335 120.8V607.067L301.2 765.767V621.6L157.133 540.1L157.067 540H157C156.533 539.667 156.167 539.3 155.667 538.967C155.3 538.634 154.867 538.367 154.5 538.067L154.467 538C154.033 537.6 153.767 537.167 153.433 536.667C153.1 536.3 152.733 535.933 152.5 535.467H152.433C152.167 535 152 534.434 151.767 533.9C151.567 533.367 151.3 533 151.167 532.467C151.041 531.839 150.952 531.205 150.9 530.567C150.833 530.1 150.7 529.667 150.7 529.2V192.967L78.0335 151.067L25.4335 120.8ZM163.333 27.0002L38.0001 99.1335L163.333 171.267L288.6 99.1335L163.333 27.0002ZM228.533 477.167L301.267 435.3V120.8L248.6 151.134L175.867 192.967V507.467L228.533 477.167ZM614.567 112.167L489.233 184.267L614.567 256.367L739.867 184.234L614.567 112.167ZM602.033 278.1L529.333 236.234L476.667 206V348.767L549.4 390.634L602.067 420.9L602.033 278.1ZM313.7 599.9L497.5 494.967L589.367 442.567L464.133 370.467L320.033 453.434L188.667 529.1L313.7 599.9Z" fill="#2565A3"/>
</svg>
