<?xml version="1.0" encoding="UTF-8"?>
<svg id="Camada_2" data-name="Camada 2" xmlns="http://www.w3.org/2000/svg" viewBox="0 0 437.82 438.78">
  <g id="Camada_1-2" data-name="Camada 1">
    <g>
      <path d="M341.42,194.33c13.16,.74,25.95-.22,37.72-7.16,8.5-5.01,14.64-12.54,21.56-19.24,8.22-7.96,7.41-8.67,10.79,2.79,8.06,27.34,10.33,55.17,6.76,83.52-5.09,40.42-20.52,76.31-46.23,107.85-16.73,20.52-36.75,37.06-59.8,50.06-25.95,14.63-53.81,23.36-83.39,25.82-42.75,3.55-83.23-4.67-120.84-25.72-37.55-21.02-66.12-50.81-85.57-89.14C9.85,298.36,2.74,272,.64,244.18c-2.8-37.3,3.47-72.99,20.21-106.19C52.53,75.13,103.03,35.97,172.48,22.49c32.93-6.39,65.65-4.39,97.81,5.42,5.72,1.75,5.66,1.83,1.57,6.03-5.34,5.49-10.91,10.74-15.92,16.57-8.51,9.91-12.9,21.27-13.04,34.27-.11,9.5-.12,19,0,28.5,.05,4.11-1.39,5.11-5.47,4.22-42.78-9.36-79.96,1.17-110.62,32.53-18.57,18.99-29.13,42.11-30.93,68.74-3.35,49.52,17.46,86.51,59.88,111.19,40.94,23.82,98.12,15.77,132.28-17.15,24.95-24.05,37.08-53.18,36.73-87.63-.09-8.51-1.58-16.92-3.79-25.14-1.14-4.25,.11-5.88,4.46-5.74,5.33,.17,10.66,.04,16,.04Z"/>
      <path d="M278.89,107.07c0-6.5,.04-13,0-19.49-.04-5.97,2.01-11,6.27-15.25,22.19-22.11,44.39-44.21,66.42-66.47,5.76-5.82,12.43-7.03,19.71-4.83,7.21,2.17,11.24,7.69,12.02,15.11,1.03,9.76,1.96,19.54,2.31,29.34,.19,5.25,2.84,6.41,7.18,6.69,9.3,.59,18.59,1.28,27.87,2.05,7.44,.62,12.92,4.23,15.69,11.3,2.9,7.41,1.48,14.19-4.1,19.8-22.32,22.45-44.74,44.8-67.12,67.19-3.98,3.99-8.83,5.8-14.43,5.8-13.5,0-26.99,.06-40.49-.03-3.17-.02-5.72,.71-8.04,3.09-11.9,12.14-23.87,24.19-35.93,36.17-3.86,3.84-5.07,7.25-2.98,13.07,11.12,31.06-7.12,64.51-39.28,73.12-30.92,8.28-63.42-11.93-69.55-43.74-4.11-21.33,2.13-39.85,18.57-53.98,16.42-14.12,35.58-17.49,56.13-10.27,4.03,1.42,6.36,.69,9.15-2.15,12.24-12.5,24.6-24.88,37.04-37.18,2.58-2.54,3.73-5.24,3.63-8.84-.19-6.83-.05-13.66-.05-20.49Z"/>
    </g>
  </g>
</svg>