<?xml version="1.0" encoding="UTF-8"?>
<svg id="Camada_2" data-name="Camada 2" xmlns="http://www.w3.org/2000/svg" viewBox="0 0 427.09 512">
  <g id="Camada_1-2" data-name="Camada 1">
    <g>
      <path d="M0,402c1-9.24,1.75-18.52,3.03-27.72,4.19-30.13,11.71-59.13,28.98-84.85,18.19-27.09,44.09-40.13,76.07-42.37,6.56-.46,12.54,1.18,18.06,4.68,8.59,5.44,17.14,10.93,25.79,16.26,21.78,13.4,45.4,20.03,70.99,17.85,19.04-1.63,36.72-7.96,52.94-18.14,6.07-3.81,12.29-7.44,18-11.75,11.02-8.31,22.98-9.94,36.39-7.77,31.96,5.19,54.87,22.52,70.56,50.34,14.71,26.07,20.83,54.57,24.31,83.89,1.77,14.93,2.05,29.89,1.95,44.89-.3,44.84-30.13,78.29-74.73,83.8-1.13,.14-2.23,.59-3.34,.9H78c-1.48-.94-3.18-.8-4.82-1.05-36.13-5.57-63.78-28.59-71.26-65.72-.62-3.08-1.28-6.15-1.93-9.23,0-11.33,0-22.67,0-34Z"/>
      <path d="M224,0c8.19,2.15,16.74,2.73,24.75,5.73,47.22,17.65,76.57,50.66,83.83,100.93,5.84,40.46-6.59,75.84-35.67,104.7-20.93,20.76-46.25,32.23-75.97,34.93-61.92,5.63-113.41-35.08-128.3-85.68-13.53-45.95-4.56-87.63,29.09-122.97C141.55,16.82,165.63,4.49,194.17,.88c.97-.12,1.89-.58,2.83-.88,9,0,18,0,27,0Z"/>
    </g>
  </g>
</svg>