<svg width="725" height="650" viewBox="0 0 725 650" fill="none" xmlns="http://www.w3.org/2000/svg">
<g filter="url(#filter0_d_1750_1749)">
<path d="M363 258C375.3 258.001 387.325 261.641 397.561 268.461C407.796 275.281 415.785 284.977 420.522 296.328C425.259 307.679 426.532 320.178 424.18 332.251C421.829 344.324 415.958 355.432 407.307 364.175C398.656 372.918 387.612 378.907 375.564 381.387C363.517 383.867 351.006 382.727 339.605 378.111C328.204 373.496 318.423 365.61 311.495 355.447C304.566 345.285 300.799 333.299 300.667 321C300.623 312.771 302.201 304.613 305.309 296.993C308.418 289.373 312.997 282.441 318.786 276.59C324.574 270.74 331.458 266.088 339.044 262.898C346.63 259.708 354.771 258.044 363 258ZM208.667 587.667C229.667 600.334 275.334 581 328.667 531C310.841 510.744 294.043 489.606 278.334 467.667C251.448 464.656 224.743 460.205 198.334 454.334C181.334 525.667 187.667 574.667 208.667 587.667ZM232.334 396.334L222.667 379.334C218.899 388.696 215.671 398.268 213 408C222 410 232 411.667 242.334 413.334L232.334 396.334ZM450.334 371L477.334 321L450.334 271C440.334 253.334 429.667 237.667 420 222C402 221 383 221 363 221C343 221 324 221 306 221C296.334 236.667 285.667 252.334 275.667 270L248.667 321L275.667 371C285.667 388.667 296.334 404.334 306 420C324 420 343 420 363 420C383 420 402 420 420 420C429.667 404.334 440.334 388.667 450.334 371ZM363 147C356.667 154.334 350 162 343.334 171H382.667C376 162 369.334 154.334 363 147ZM363 495C369.334 487.667 376 480 382.667 471H343.334C350 480 356.667 487.667 363 495ZM517 54.3337C496.334 41.667 450.334 61.0004 397.334 111C415.159 131.257 431.958 152.395 447.667 174.334C474.529 176.904 501.233 180.91 527.667 186.334C544.667 115 538.334 66.0004 517 53.0004M493.667 244.334L503.334 261.334C507.102 251.971 510.329 242.4 513 232.667C504 230.667 494 229 483.667 227.334L493.667 244.334ZM542 11.0004C591 39.0004 596.334 112.667 575.334 198.667C660 223.667 721 265.334 721 321.334C721 377.334 660 419 575.334 444C596 530 590.667 603.667 542 631.667C493.334 659.667 427 627.667 363 566.667C299 627.667 232.667 659.667 183.667 631.667C134.667 603.667 129.667 531.667 150.334 444C65.667 419 4.66699 377.334 4.66699 321.334C4.66699 265.334 65.667 223.334 150.334 198.334C129.667 112.334 135 38.667 183.667 10.667C232.334 -17.3329 299 14.667 363 75.667C427 14.667 493.334 -17.3329 542 10.667M532.334 321C543.91 345.539 554.148 370.687 563 396.334C633 375.334 672.334 345.334 672.334 321C672.334 296.667 632 266.667 563 245.667C554.148 271.314 543.91 296.462 532.334 321ZM193.667 321C182.09 296.462 171.853 271.314 163 245.667C93.0003 266.667 53.667 296.667 53.667 321C53.667 345.334 94.0003 375.334 163 396.334C171.853 370.687 182.09 345.539 193.667 321ZM493.667 396.334L483.667 413.334C494 413.334 504 410 513 408C510.329 398.268 507.102 388.696 503.334 379.334L493.667 396.334ZM396.334 531C449.334 581 496.334 600.334 516 587.667C535.667 575 543.667 527 526.667 454.334C500.233 459.757 473.529 463.763 446.667 466.334C430.995 488.727 414.195 510.311 396.334 531ZM232.334 245.667L242.334 228.667C232 228.667 222 232 213 234C215.671 243.733 218.899 253.304 222.667 262.667L232.334 245.667ZM329.667 111C275.667 61.0004 229.667 41.667 208.667 54.3337C187.667 67.0004 181.334 115 198.334 187.667C224.767 182.243 251.472 178.238 278.334 175.667C294.331 153.25 311.464 131.666 329.667 111Z" fill="#2565A3"/>
</g>
<defs>
<filter id="filter0_d_1750_1749" x="0.666992" y="0.432617" width="724.333" height="649.469" filterUnits="userSpaceOnUse" color-interpolation-filters="sRGB">
<feFlood flood-opacity="0" result="BackgroundImageFix"/>
<feColorMatrix in="SourceAlpha" type="matrix" values="0 0 0 0 0 0 0 0 0 0 0 0 0 0 0 0 0 0 127 0" result="hardAlpha"/>
<feOffset dy="4"/>
<feGaussianBlur stdDeviation="2"/>
<feComposite in2="hardAlpha" operator="out"/>
<feColorMatrix type="matrix" values="0 0 0 0 0 0 0 0 0 0 0 0 0 0 0 0 0 0 0.25 0"/>
<feBlend mode="normal" in2="BackgroundImageFix" result="effect1_dropShadow_1750_1749"/>
<feBlend mode="normal" in="SourceGraphic" in2="effect1_dropShadow_1750_1749" result="shape"/>
</filter>
</defs>
</svg>
