<?xml version="1.0" encoding="UTF-8"?>
<svg id="Camada_2" data-name="Camada 2" xmlns="http://www.w3.org/2000/svg" viewBox="0 0 720.41 715.53">
  <g id="Camada_1-2" data-name="Camada 1">
    <g>
      <path d="M187.03,653.13H109.1c-27.28,0-46.76-23.4-46.76-46.8v-78c0-15.6-11.69-31.2-31.17-31.2s-31.17,15.6-31.17,31.2v78c0,58.5,46.76,109.2,109.1,109.2h77.93c15.59,0,31.17-11.7,31.17-31.2s-15.59-31.2-31.17-31.2h0Z"/>
      <path d="M533.37,653.13h77.93c27.28,0,46.76-23.4,46.76-46.8v-78c0-15.6,11.69-31.2,31.17-31.2s31.17,15.6,31.17,31.2v78c0,58.5-46.76,109.2-109.1,109.2h-77.93c-15.59,0-31.17-11.7-31.17-31.2s15.59-31.2,31.17-31.2h0Z"/>
      <path d="M187.03,62.4H109.1c-27.28,0-46.76,23.4-46.76,46.8v78c0,15.6-11.69,31.2-31.17,31.2S0,202.8,0,187.2V109.2C0,50.7,46.76,0,109.1,0h77.93c15.59,0,31.17,11.7,31.17,31.2s-15.59,31.2-31.17,31.2h0Z"/>
      <path d="M533.37,62.4h77.93c27.28,0,46.76,23.4,46.76,46.8v78c0,15.6,11.69,31.2,31.17,31.2s31.17-15.6,31.17-31.2V109.2c0-58.5-46.76-109.2-109.1-109.2h-77.93c-15.59,0-31.17,11.7-31.17,31.2s15.59,31.2,31.17,31.2h0Z"/>
      <path d="M417.04,192.14h69.29c24.25,0,41.58,20.8,41.58,41.61v69.35c0,13.87,10.39,27.74,27.72,27.74s27.72-13.87,27.72-27.74v-69.35c0-52.02-41.58-97.1-97.01-97.1h-69.29c-13.86,0-27.72,10.41-27.72,27.74s13.86,27.74,27.72,27.74h0Z"/>
      <path d="M297.87,192.14h-69.29c-24.25,0-41.58,20.8-41.58,41.61v69.35c0,13.87-10.39,27.74-27.72,27.74s-27.72-13.87-27.72-27.74v-69.35c0-52.02,41.58-97.1,97.01-97.1h69.29c13.86,0,27.72,10.41,27.72,27.74s-13.86,27.74-27.72,27.74h0Z"/>
      <path d="M417.04,525.96h69.29c24.25,0,41.58-20.8,41.58-41.61v-69.35c0-13.87,10.39-27.74,27.72-27.74s27.72,13.87,27.72,27.74v69.35c0,52.02-41.58,97.1-97.01,97.1h-69.29c-13.86,0-27.72-10.41-27.72-27.74s13.86-27.74,27.72-27.74h0Z"/>
      <path d="M297.87,525.96h-69.29c-24.25,0-41.58-20.8-41.58-41.61v-69.35c0-13.87-10.39-27.74-27.72-27.74s-27.72,13.87-27.72,27.74v69.35c0,52.02,41.58,97.1,97.01,97.1h69.29c13.86,0,27.72-10.41,27.72-27.74s-13.86-27.74-27.72-27.74h0Z"/>
      <path d="M620.44,379.91h-91.54c-.1,0-.2,0-.29,0,0,0,0,0,0,0h-120.67c-.1,0-.2,0-.29,0,0,0,0,0,0,0h-62.15c-1.74,0-3.48,.16-5.19,.48-.01-.16-.03-.32-.04-.48h-62.15c-.1,0-.2,0-.29,0,0,0,0,0,0,0h-118.51c-.1,0-.2,0-.29,0,0,0,0,0,0,0h-62.15c-13.87,0-27.74,10.39-27.74,27.72s13.87,27.72,27.74,27.72h247.42s0-.02,0-.03c.4,.02,.81,.03,1.21,.03h274.95c13.87,0,27.74-10.39,27.74-27.72s-13.87-27.72-27.74-27.72Z"/>
    </g>
  </g>
</svg>