<svg width="30" height="30" viewBox="0 0 30 30" fill="none" xmlns="http://www.w3.org/2000/svg">
<mask id="path-1-inside-1_1657_1567" fill="white">
<path d="M2.14286 15C2.14286 15.5917 1.66312 16.0714 1.07143 16.0714C0.479732 16.0714 0 15.5917 0 15C0 6.72884 6.72884 0 15 0C19.1226 0 22.9371 1.64277 25.7143 4.47134V1.07143C25.7143 0.479732 26.194 0 26.7857 0C27.3774 0 27.8571 0.479732 27.8571 1.07143V7.5C27.8571 8.0917 27.3774 8.57143 26.7857 8.57143H20.3571C19.7654 8.57143 19.2857 8.0917 19.2857 7.5C19.2857 6.9083 19.7654 6.42857 20.3571 6.42857H24.6182C22.2142 3.72429 18.7559 2.14286 15 2.14286C7.91062 2.14286 2.14286 7.91062 2.14286 15ZM28.9286 13.9286C28.3369 13.9286 27.8571 14.4083 27.8571 15C27.8571 22.0894 22.0894 27.8571 15 27.8571C11.2441 27.8571 7.7858 26.2757 5.38179 23.5714H9.64286C10.2346 23.5714 10.7143 23.0917 10.7143 22.5C10.7143 21.9083 10.2346 21.4286 9.64286 21.4286H3.21429C2.62259 21.4286 2.14286 21.9083 2.14286 22.5V28.9286C2.14286 29.5203 2.62259 30 3.21429 30C3.80598 30 4.28571 29.5203 4.28571 28.9286V25.5287C7.06286 28.3572 10.8774 30 15 30C23.2712 30 30 23.2712 30 15C30 14.4083 29.5203 13.9286 28.9286 13.9286Z"/>
</mask>
<path d="M2.14286 15C2.14286 15.5917 1.66312 16.0714 1.07143 16.0714C0.479732 16.0714 0 15.5917 0 15C0 6.72884 6.72884 0 15 0C19.1226 0 22.9371 1.64277 25.7143 4.47134V1.07143C25.7143 0.479732 26.194 0 26.7857 0C27.3774 0 27.8571 0.479732 27.8571 1.07143V7.5C27.8571 8.0917 27.3774 8.57143 26.7857 8.57143H20.3571C19.7654 8.57143 19.2857 8.0917 19.2857 7.5C19.2857 6.9083 19.7654 6.42857 20.3571 6.42857H24.6182C22.2142 3.72429 18.7559 2.14286 15 2.14286C7.91062 2.14286 2.14286 7.91062 2.14286 15ZM28.9286 13.9286C28.3369 13.9286 27.8571 14.4083 27.8571 15C27.8571 22.0894 22.0894 27.8571 15 27.8571C11.2441 27.8571 7.7858 26.2757 5.38179 23.5714H9.64286C10.2346 23.5714 10.7143 23.0917 10.7143 22.5C10.7143 21.9083 10.2346 21.4286 9.64286 21.4286H3.21429C2.62259 21.4286 2.14286 21.9083 2.14286 22.5V28.9286C2.14286 29.5203 2.62259 30 3.21429 30C3.80598 30 4.28571 29.5203 4.28571 28.9286V25.5287C7.06286 28.3572 10.8774 30 15 30C23.2712 30 30 23.2712 30 15C30 14.4083 29.5203 13.9286 28.9286 13.9286Z" fill="#164878"/>
<path d="M25.7143 4.47134L16.8661 13.1587L38.1143 34.8003V4.47134H25.7143ZM24.6182 6.42857V18.8286H52.2327L33.8857 -1.80994L24.6182 6.42857ZM5.38179 23.5714V11.1714H-22.2327L-3.88574 31.8099L5.38179 23.5714ZM4.28571 25.5287L13.1339 16.8413L-8.11429 -4.80034V25.5287H4.28571ZM2.14286 15H-10.2571C-10.2571 8.74337 -5.18521 3.67143 1.07143 3.67143V16.0714V28.4714C8.51146 28.4714 14.5429 22.44 14.5429 15H2.14286ZM1.07143 16.0714V3.67143C7.32807 3.67143 12.4 8.74337 12.4 15H0H-12.4C-12.4 22.44 -6.36861 28.4714 1.07143 28.4714V16.0714ZM0 15H12.4C12.4 13.5772 13.5772 12.4 15 12.4V0V-12.4C-0.119492 -12.4 -12.4 -0.119492 -12.4 15H0ZM15 0V12.4C15.7758 12.4 16.4075 12.6915 16.8661 13.1587L25.7143 4.47134L34.5625 -4.21598C29.4668 -9.40601 22.4694 -12.4 15 -12.4V0ZM25.7143 4.47134H38.1143V1.07143H25.7143H13.3143V4.47134H25.7143ZM25.7143 1.07143H38.1143C38.1143 7.3281 33.0423 12.4 26.7857 12.4V0V-12.4C19.3457 -12.4 13.3143 -6.36864 13.3143 1.07143H25.7143ZM26.7857 0V12.4C20.5291 12.4 15.4571 7.32804 15.4571 1.07143H27.8571H40.2571C40.2571 -6.36858 34.2258 -12.4 26.7857 -12.4V0ZM27.8571 1.07143H15.4571V7.5H27.8571H40.2571V1.07143H27.8571ZM27.8571 7.5H15.4571C15.4571 1.24338 20.5291 -3.82857 26.7857 -3.82857V8.57143V20.9714C34.2258 20.9714 40.2571 14.94 40.2571 7.5H27.8571ZM26.7857 8.57143V-3.82857H20.3571V8.57143V20.9714H26.7857V8.57143ZM20.3571 8.57143V-3.82857C26.6138 -3.82857 31.6857 1.24335 31.6857 7.5H19.2857H6.88571C6.88571 14.94 12.9171 20.9714 20.3571 20.9714V8.57143ZM19.2857 7.5H31.6857C31.6857 13.7566 26.6138 18.8286 20.3571 18.8286V6.42857V-5.97143C12.9171 -5.97143 6.88571 0.0599721 6.88571 7.5H19.2857ZM20.3571 6.42857V18.8286H24.6182V6.42857V-5.97143H20.3571V6.42857ZM24.6182 6.42857L33.8857 -1.80994C29.125 -7.16533 22.2921 -10.2571 15 -10.2571V2.14286V14.5429C15.128 14.5429 15.2016 14.5678 15.24 14.585C15.2809 14.6034 15.3166 14.6287 15.3507 14.6671L24.6182 6.42857ZM15 2.14286V-10.2571C1.06229 -10.2571 -10.2571 1.06229 -10.2571 15H2.14286H14.5429C14.5429 14.9229 14.5561 14.8759 14.5723 14.8377C14.5921 14.7911 14.6271 14.735 14.681 14.681C14.735 14.6271 14.7911 14.5921 14.8377 14.5723C14.8759 14.5561 14.9229 14.5429 15 14.5429V2.14286ZM28.9286 13.9286V1.52857C21.4885 1.52857 15.4571 7.55997 15.4571 15H27.8571H40.2571C40.2571 21.2566 35.1852 26.3286 28.9286 26.3286V13.9286ZM27.8571 15H15.4571C15.4571 15.0771 15.4439 15.1241 15.4277 15.1623C15.4079 15.2089 15.3729 15.265 15.319 15.319C15.265 15.3729 15.2089 15.4079 15.1623 15.4277C15.1241 15.4439 15.0771 15.4571 15 15.4571V27.8571V40.2571C28.9377 40.2571 40.2571 28.9377 40.2571 15H27.8571ZM15 27.8571V15.4571C14.872 15.4571 14.7984 15.4322 14.76 15.415C14.7191 15.3966 14.6834 15.3713 14.6493 15.3329L5.38179 23.5714L-3.88574 31.8099C0.875019 37.1653 7.70785 40.2571 15 40.2571V27.8571ZM5.38179 23.5714V35.9714H9.64286V23.5714V11.1714H5.38179V23.5714ZM9.64286 23.5714V35.9714C17.0829 35.9714 23.1143 29.9401 23.1143 22.5H10.7143H-1.68571C-1.68571 16.2433 3.38625 11.1714 9.64286 11.1714V23.5714ZM10.7143 22.5H23.1143C23.1143 15.0599 17.0829 9.02857 9.64286 9.02857V21.4286V33.8286C3.38625 33.8286 -1.68571 28.7567 -1.68571 22.5H10.7143ZM9.64286 21.4286V9.02857H3.21429V21.4286V33.8286H9.64286V21.4286ZM3.21429 21.4286V9.02857C-4.22572 9.02857 -10.2571 15.06 -10.2571 22.5H2.14286H14.5429C14.5429 28.7567 9.4709 33.8286 3.21429 33.8286V21.4286ZM2.14286 22.5H-10.2571V28.9286H2.14286H14.5429V22.5H2.14286ZM2.14286 28.9286H-10.2571C-10.2571 36.3686 -4.22575 42.4 3.21429 42.4V30V17.6C9.47093 17.6 14.5429 22.6719 14.5429 28.9286H2.14286ZM3.21429 30V42.4C10.6543 42.4 16.6857 36.3686 16.6857 28.9286H4.28571H-8.11429C-8.11429 22.6719 -3.04236 17.6 3.21429 17.6V30ZM4.28571 28.9286H16.6857V25.5287H4.28571H-8.11429V28.9286H4.28571ZM4.28571 25.5287L-4.56248 34.216C0.533189 39.406 7.5306 42.4 15 42.4V30V17.6C14.2242 17.6 13.5925 17.3085 13.1339 16.8413L4.28571 25.5287ZM15 30V42.4C30.1195 42.4 42.4 30.1195 42.4 15H30H17.6C17.6 16.4228 16.4228 17.6 15 17.6V30ZM30 15H42.4C42.4 7.55997 36.3686 1.52857 28.9286 1.52857V13.9286V26.3286C22.6719 26.3286 17.6 21.2566 17.6 15H30Z" fill="#164878" mask="url(#path-1-inside-1_1657_1567)"/>
</svg>
