<svg width="17" height="17" viewBox="0 0 17 17" fill="none" xmlns="http://www.w3.org/2000/svg">
<mask id="path-1-inside-1_1716_1716" fill="white">
<path d="M1.21429 8.5C1.21429 8.83529 0.942438 9.10714 0.607143 9.10714C0.271848 9.10714 0 8.83529 0 8.5C0 3.81301 3.81301 0 8.5 0C10.8361 0 12.9977 0.930902 14.5714 2.53376V0.607143C14.5714 0.271848 14.8433 0 15.1786 0C15.5139 0 15.7857 0.271848 15.7857 0.607143V4.25C15.7857 4.58529 15.5139 4.85714 15.1786 4.85714H11.5357C11.2004 4.85714 10.9286 4.58529 10.9286 4.25C10.9286 3.91471 11.2004 3.64286 11.5357 3.64286H13.9503C12.588 2.11043 10.6283 1.21429 8.5 1.21429C4.48269 1.21429 1.21429 4.48269 1.21429 8.5ZM16.3929 7.89286C16.0576 7.89286 15.7857 8.16471 15.7857 8.5C15.7857 12.5173 12.5173 15.7857 8.5 15.7857C6.37166 15.7857 4.41196 14.8896 3.04968 13.3571H5.46429C5.79958 13.3571 6.07143 13.0853 6.07143 12.75C6.07143 12.4147 5.79958 12.1429 5.46429 12.1429H1.82143C1.48613 12.1429 1.21429 12.4147 1.21429 12.75V16.3929C1.21429 16.7282 1.48613 17 1.82143 17C2.15672 17 2.42857 16.7282 2.42857 16.3929V14.4662C4.00229 16.0691 6.16387 17 8.5 17C13.187 17 17 13.187 17 8.5C17 8.16471 16.7282 7.89286 16.3929 7.89286Z"/>
</mask>
<path d="M1.21429 8.5C1.21429 8.83529 0.942438 9.10714 0.607143 9.10714C0.271848 9.10714 0 8.83529 0 8.5C0 3.81301 3.81301 0 8.5 0C10.8361 0 12.9977 0.930902 14.5714 2.53376V0.607143C14.5714 0.271848 14.8433 0 15.1786 0C15.5139 0 15.7857 0.271848 15.7857 0.607143V4.25C15.7857 4.58529 15.5139 4.85714 15.1786 4.85714H11.5357C11.2004 4.85714 10.9286 4.58529 10.9286 4.25C10.9286 3.91471 11.2004 3.64286 11.5357 3.64286H13.9503C12.588 2.11043 10.6283 1.21429 8.5 1.21429C4.48269 1.21429 1.21429 4.48269 1.21429 8.5ZM16.3929 7.89286C16.0576 7.89286 15.7857 8.16471 15.7857 8.5C15.7857 12.5173 12.5173 15.7857 8.5 15.7857C6.37166 15.7857 4.41196 14.8896 3.04968 13.3571H5.46429C5.79958 13.3571 6.07143 13.0853 6.07143 12.75C6.07143 12.4147 5.79958 12.1429 5.46429 12.1429H1.82143C1.48613 12.1429 1.21429 12.4147 1.21429 12.75V16.3929C1.21429 16.7282 1.48613 17 1.82143 17C2.15672 17 2.42857 16.7282 2.42857 16.3929V14.4662C4.00229 16.0691 6.16387 17 8.5 17C13.187 17 17 13.187 17 8.5C17 8.16471 16.7282 7.89286 16.3929 7.89286Z" fill="white"/>
<path d="M14.5714 2.53376L9.55745 7.45657L21.5981 19.7202V2.53376H14.5714ZM13.9503 3.64286V10.6695H29.5985L19.2019 -1.02563L13.9503 3.64286ZM3.04968 13.3571V6.33048H-12.5985L-2.20192 18.0256L3.04968 13.3571ZM2.42857 14.4662L7.44255 9.54343L-4.5981 -2.72019L-4.5981 14.4662H2.42857ZM1.21429 8.5H-5.81238C-5.81238 4.95458 -2.93829 2.08048 0.607143 2.08048V9.10714V16.1338C4.82317 16.1338 8.24095 12.716 8.24095 8.5H1.21429ZM0.607143 9.10714V2.08048C4.15258 2.08048 7.02667 4.95458 7.02667 8.5H0H-7.02667C-7.02667 12.716 -3.60888 16.1338 0.607143 16.1338V9.10714ZM0 8.5H7.02667C7.02667 7.69373 7.69373 7.02667 8.5 7.02667V0V-7.02667C-0.0677118 -7.02667 -7.02667 -0.0677118 -7.02667 8.5H0ZM8.5 0V7.02667C8.93961 7.02667 9.29757 7.19188 9.55745 7.45657L14.5714 2.53376L19.5854 -2.38905C16.6979 -5.33007 12.7327 -7.02667 8.5 -7.02667V0ZM14.5714 2.53376H21.5981V0.607143H14.5714H7.54476V2.53376H14.5714ZM14.5714 0.607143H21.5981C21.5981 4.15259 18.724 7.02667 15.1786 7.02667V0V-7.02667C10.9626 -7.02667 7.54476 -3.6089 7.54476 0.607143H14.5714ZM15.1786 0V7.02667C11.6331 7.02667 8.75905 4.15256 8.75905 0.607143H15.7857H22.8124C22.8124 -3.60887 19.3946 -7.02667 15.1786 -7.02667V0ZM15.7857 0.607143H8.75905V4.25H15.7857H22.8124V0.607143H15.7857ZM15.7857 4.25H8.75905C8.75905 0.704581 11.6331 -2.16952 15.1786 -2.16952V4.85714V11.8838C19.3946 11.8838 22.8124 8.46601 22.8124 4.25H15.7857ZM15.1786 4.85714V-2.16952H11.5357V4.85714V11.8838H15.1786V4.85714ZM11.5357 4.85714V-2.16952C15.0811 -2.16952 17.9552 0.704566 17.9552 4.25H10.9286H3.9019C3.9019 8.46602 7.31971 11.8838 11.5357 11.8838V4.85714ZM10.9286 4.25H17.9552C17.9552 7.79543 15.0811 10.6695 11.5357 10.6695V3.64286V-3.38381C7.3197 -3.38381 3.9019 0.0339807 3.9019 4.25H10.9286ZM11.5357 3.64286V10.6695H13.9503V3.64286V-3.38381H11.5357V3.64286ZM13.9503 3.64286L19.2019 -1.02563C16.5042 -4.06035 12.6322 -5.81238 8.5 -5.81238V1.21429V8.24095C8.57254 8.24095 8.61427 8.2551 8.63599 8.26485C8.65917 8.27525 8.67938 8.28959 8.69873 8.31135L13.9503 3.64286ZM8.5 1.21429V-5.81238C0.601966 -5.81238 -5.81238 0.601966 -5.81238 8.5H1.21429H8.24095C8.24095 8.45632 8.24847 8.4297 8.25764 8.40805C8.26884 8.38163 8.28869 8.34982 8.31925 8.31925C8.34982 8.28869 8.38163 8.26884 8.40805 8.25764C8.4297 8.24847 8.45632 8.24095 8.5 8.24095V1.21429ZM16.3929 7.89286V0.86619C12.1768 0.86619 8.75905 4.28399 8.75905 8.5H15.7857H22.8124C22.8124 12.0454 19.9383 14.9195 16.3929 14.9195V7.89286ZM15.7857 8.5H8.75905C8.75905 8.54368 8.75153 8.5703 8.74236 8.59195C8.73116 8.61837 8.71131 8.65018 8.68075 8.68075C8.65018 8.71131 8.61837 8.73116 8.59195 8.74236C8.5703 8.75153 8.54368 8.75905 8.5 8.75905V15.7857V22.8124C16.398 22.8124 22.8124 16.398 22.8124 8.5H15.7857ZM8.5 15.7857V8.75905C8.42746 8.75905 8.38573 8.7449 8.36401 8.73515C8.34083 8.72475 8.32062 8.71041 8.30127 8.68865L3.04968 13.3571L-2.20192 18.0256C0.495844 21.0604 4.36778 22.8124 8.5 22.8124V15.7857ZM3.04968 13.3571V20.3838H5.46429V13.3571V6.33048H3.04968V13.3571ZM5.46429 13.3571V20.3838C9.68029 20.3838 13.0981 16.966 13.0981 12.75H6.07143H-0.955238C-0.955238 9.20456 1.91887 6.33048 5.46429 6.33048V13.3571ZM6.07143 12.75H13.0981C13.0981 8.53396 9.68027 5.11619 5.46429 5.11619V12.1429V19.1695C1.91889 19.1695 -0.955238 16.2955 -0.955238 12.75H6.07143ZM5.46429 12.1429V5.11619H1.82143V12.1429V19.1695H5.46429V12.1429ZM1.82143 12.1429V5.11619C-2.39457 5.11619 -5.81238 8.53397 -5.81238 12.75H1.21429H8.24095C8.24095 16.2954 5.36684 19.1695 1.82143 19.1695V12.1429ZM1.21429 12.75H-5.81238V16.3929H1.21429H8.24095V12.75H1.21429ZM1.21429 16.3929H-5.81238C-5.81238 20.6089 -2.3946 24.0267 1.82143 24.0267V17V9.97333C5.36687 9.97333 8.24095 12.8474 8.24095 16.3929H1.21429ZM1.82143 17V24.0267C6.03745 24.0267 9.45524 20.6089 9.45524 16.3929H2.42857H-4.5981C-4.5981 12.8474 -1.724 9.97333 1.82143 9.97333V17ZM2.42857 16.3929H9.45524V14.4662H2.42857H-4.5981V16.3929H2.42857ZM2.42857 14.4662L-2.58541 19.3891C0.30214 22.3301 4.26734 24.0267 8.5 24.0267V17V9.97333C8.06039 9.97333 7.70243 9.80812 7.44255 9.54343L2.42857 14.4662ZM8.5 17V24.0267C17.0677 24.0267 24.0267 17.0677 24.0267 8.5H17H9.97333C9.97333 9.30627 9.30627 9.97333 8.5 9.97333V17ZM17 8.5H24.0267C24.0267 4.28398 20.6089 0.86619 16.3929 0.86619V7.89286V14.9195C12.8474 14.9195 9.97333 12.0454 9.97333 8.5H17Z" fill="white" mask="url(#path-1-inside-1_1716_1716)"/>
</svg>
