<svg width="17" height="17" viewBox="0 0 17 17" fill="none" xmlns="http://www.w3.org/2000/svg">
<path d="M8.5 1C9.01777 1 9.4375 1.41973 9.4375 1.9375V7.5625H15.0625C15.5803 7.5625 16 7.98223 16 8.5C16 9.01777 15.5803 9.4375 15.0625 9.4375H9.4375V15.0625C9.4375 15.5803 9.01777 16 8.5 16C7.98223 16 7.5625 15.5803 7.5625 15.0625V9.4375H1.9375C1.41973 9.4375 1 9.01777 1 8.5C1 7.98223 1.41973 7.5625 1.9375 7.5625H7.5625V1.9375C7.5625 1.41973 7.98223 1 8.5 1Z" fill="#E14D43" stroke="white" stroke-width="1.875" stroke-linecap="round"/>
</svg>
