<svg width="71" height="68" viewBox="0 0 71 68" fill="none" xmlns="http://www.w3.org/2000/svg">
<path d="M64 36C64 53.6731 49.6731 68 32 68C14.3269 68 0 53.6731 0 36C0 18.3269 14.3269 4 32 4C49.6731 4 64 18.3269 64 36Z" fill="#B8B8B8"/>
<circle cx="56.5" cy="14.5" r="14.5" fill="white"/>
<path d="M57.0603 23.2043C56.4338 23.2087 55.9226 22.7323 55.9184 22.1404L55.8319 9.72251L50.9942 14.3577C50.5541 14.7793 49.8358 14.7843 49.3899 14.3688C48.944 13.9534 48.9393 13.2747 49.3793 12.8531L56.1408 6.37471C56.5809 5.95305 57.2991 5.94804 57.7451 6.36352L64.5962 12.747C65.0421 13.1625 65.0468 13.8411 64.6068 14.2628C64.1667 14.6844 63.4484 14.6894 63.0025 14.274L58.1006 9.7067L58.1872 22.1246C58.1913 22.7165 57.6868 23.1999 57.0603 23.2043Z" fill="#B8B8B8" stroke="#B8B8B8" stroke-width="2" stroke-linecap="round" stroke-linejoin="round"/>
<path d="M33.5777 17.3243V23.0382H30.5562V17.3243H33.5777ZM33.2097 48.9541V54.1644H30.1881V48.9541H33.2097ZM35.3403 42.601C35.3403 41.865 35.2047 41.2387 34.9336 40.7222C34.6753 40.2057 34.2492 39.7473 33.6552 39.347C33.0741 38.9467 32.2865 38.5593 31.2922 38.1848C29.6135 37.5392 28.135 36.8548 26.8567 36.1317C25.5912 35.3957 24.6034 34.4853 23.8932 33.4007C23.183 32.3031 22.8279 30.915 22.8279 29.2363C22.8279 27.6351 23.2088 26.247 23.9707 25.072C24.7325 23.8969 25.7849 22.993 27.1278 22.3603C28.4837 21.7147 30.059 21.3918 31.8539 21.3918C33.2226 21.3918 34.4623 21.5984 35.5728 22.0116C36.6833 22.4119 37.6388 23.0059 38.4394 23.7936C39.24 24.5684 39.8533 25.5175 40.2795 26.6409C40.7056 27.7643 40.9186 29.0491 40.9186 30.4953H35.3597C35.3597 29.7205 35.2758 29.0362 35.1079 28.4422C34.94 27.8482 34.6947 27.3511 34.3719 26.9508C34.062 26.5505 33.6875 26.2535 33.2485 26.0598C32.8094 25.8532 32.3252 25.7499 31.7958 25.7499C31.0081 25.7499 30.3625 25.9048 29.8589 26.2147C29.3553 26.5246 28.9873 26.9443 28.7548 27.4737C28.5353 27.9902 28.4256 28.5842 28.4256 29.2557C28.4256 29.9142 28.5418 30.4889 28.7742 30.9795C29.0195 31.4702 29.4392 31.9222 30.0332 32.3354C30.6272 32.7357 31.4407 33.1489 32.4737 33.575C34.1524 34.2206 35.6244 34.9179 36.8899 35.6669C38.1553 36.4158 39.1431 37.3326 39.8533 38.4173C40.5635 39.5019 40.9186 40.8836 40.9186 42.5623C40.9186 44.228 40.5312 45.6484 39.7565 46.8235C38.9817 47.9856 37.8971 48.8766 36.5025 49.4964C35.1079 50.1033 33.4938 50.4068 31.6602 50.4068C30.4722 50.4068 29.2907 50.2518 28.1157 49.9419C26.9406 49.6191 25.8753 49.1026 24.9198 48.3924C23.9642 47.6822 23.2024 46.7395 22.6342 45.5645C22.066 44.3765 21.782 42.9174 21.782 41.1871H27.3603C27.3603 42.1297 27.4829 42.9174 27.7283 43.5501C27.9736 44.1699 28.2964 44.667 28.6967 45.0415C29.1099 45.4031 29.5748 45.6613 30.0913 45.8163C30.6078 45.9712 31.1308 46.0487 31.6602 46.0487C32.4866 46.0487 33.1645 45.9002 33.694 45.6032C34.2363 45.3062 34.643 44.8995 34.9142 44.383C35.1983 43.8535 35.3403 43.2596 35.3403 42.601Z" fill="white"/>
</svg>
